M48
; DRILL file KiCad 10.0.0 date 2026-03-23T02:15:13
; FORMAT={-:-/ absolute / metric / decimal}
; #@! TF.CreationDate,2026-03-23T02:15:13-04:00
; #@! TF.GenerationSoftware,Kicad,Pcbnew,10.0.0
; #@! TF.FileFunction,Plated,1,2,PTH
FMAT,2
METRIC
; #@! TA.AperFunction,Plated,PTH,ViaDrill
T1C0.300
; #@! TA.AperFunction,Plated,PTH,ComponentDrill
T2C0.600
; #@! TA.AperFunction,Plated,PTH,ComponentDrill
T3C0.700
; #@! TA.AperFunction,Plated,PTH,ComponentDrill
T4C1.000
; #@! TA.AperFunction,Plated,PTH,ComponentDrill
T5C1.200
%
G90
G05
T1
X128.25Y-111.735
X141.125Y-94.25
X141.65Y-90.8
X141.675Y-95.325
X142.0Y-111.3
X143.5Y-106.9
X143.8Y-90.9
X143.933Y-93.487
X145.113Y-105.0
X146.02Y-91.12
X146.064Y-87.35
X146.5Y-94.4
X147.25Y-87.35
X147.3Y-105.1
X148.003Y-96.475
X148.366Y-95.87
X148.5Y-84.15
X148.5Y-87.75
X149.0Y-79.7
X149.36Y-94.74
X149.5Y-99.0
X150.5Y-101.0
X150.996Y-83.3
X151.7Y-103.6
X152.0Y-84.75
X152.0Y-85.75
X152.0Y-86.75
X152.5Y-98.5
X153.1Y-84.8
X153.1Y-86.8
X153.125Y-85.8
X154.058Y-88.3
X154.1Y-83.6
X154.25Y-84.75
X154.25Y-85.75
X154.25Y-86.75
X154.3Y-104.0
X154.5Y-101.0
X154.827Y-88.078
X155.4Y-83.6
X155.4Y-85.0
X155.4Y-86.4
X155.593Y-88.306
X157.5Y-101.9
X157.6Y-91.1
X157.9Y-108.4
X158.0Y-89.4
X158.6Y-105.2
X160.3Y-109.1
X160.9Y-91.8
X162.4Y-97.9
X164.5Y-92.4
X165.1Y-107.7
X167.4Y-94.9
X174.5Y-96.2
T3
X177.8Y-93.56
X177.8Y-98.64
T4
X139.4Y-89.92
X139.4Y-92.46
X139.4Y-95.0
X139.4Y-97.54
T5
X176.7Y-77.5
X176.7Y-81.0
T2
X148.76Y-105.45G85X148.76Y-106.55
G05
X148.76Y-109.8G85X148.76Y-110.6
G05
X157.4Y-105.45G85X157.4Y-106.55
G05
X157.4Y-109.8G85X157.4Y-110.6
G05
M30
