%TF.GenerationSoftware,KiCad,Pcbnew,10.0.0*%
%TF.CreationDate,2026-03-23T02:15:25-04:00*%
%TF.ProjectId,HotPlate,486f7450-6c61-4746-952e-6b696361645f,rev?*%
%TF.SameCoordinates,Original*%
%TF.FileFunction,Legend,Bot*%
%TF.FilePolarity,Positive*%
%FSLAX46Y46*%
G04 Gerber Fmt 4.6, Leading zero omitted, Abs format (unit mm)*
G04 Created by KiCad (PCBNEW 10.0.0) date 2026-03-23 02:15:25*
%MOMM*%
%LPD*%
G01*
G04 APERTURE LIST*
%ADD10C,0.150000*%
%ADD11C,0.120000*%
G04 APERTURE END LIST*
D10*
X140161904Y-86994819D02*
X140161904Y-87804342D01*
X140161904Y-87804342D02*
X140114285Y-87899580D01*
X140114285Y-87899580D02*
X140066666Y-87947200D01*
X140066666Y-87947200D02*
X139971428Y-87994819D01*
X139971428Y-87994819D02*
X139780952Y-87994819D01*
X139780952Y-87994819D02*
X139685714Y-87947200D01*
X139685714Y-87947200D02*
X139638095Y-87899580D01*
X139638095Y-87899580D02*
X139590476Y-87804342D01*
X139590476Y-87804342D02*
X139590476Y-86994819D01*
X138685714Y-86994819D02*
X138876190Y-86994819D01*
X138876190Y-86994819D02*
X138971428Y-87042438D01*
X138971428Y-87042438D02*
X139019047Y-87090057D01*
X139019047Y-87090057D02*
X139114285Y-87232914D01*
X139114285Y-87232914D02*
X139161904Y-87423390D01*
X139161904Y-87423390D02*
X139161904Y-87804342D01*
X139161904Y-87804342D02*
X139114285Y-87899580D01*
X139114285Y-87899580D02*
X139066666Y-87947200D01*
X139066666Y-87947200D02*
X138971428Y-87994819D01*
X138971428Y-87994819D02*
X138780952Y-87994819D01*
X138780952Y-87994819D02*
X138685714Y-87947200D01*
X138685714Y-87947200D02*
X138638095Y-87899580D01*
X138638095Y-87899580D02*
X138590476Y-87804342D01*
X138590476Y-87804342D02*
X138590476Y-87566247D01*
X138590476Y-87566247D02*
X138638095Y-87471009D01*
X138638095Y-87471009D02*
X138685714Y-87423390D01*
X138685714Y-87423390D02*
X138780952Y-87375771D01*
X138780952Y-87375771D02*
X138971428Y-87375771D01*
X138971428Y-87375771D02*
X139066666Y-87423390D01*
X139066666Y-87423390D02*
X139114285Y-87471009D01*
X139114285Y-87471009D02*
X139161904Y-87566247D01*
%TO.C,U6*%
D11*
X138020000Y-91190000D02*
X138020000Y-98920000D01*
X140780000Y-88540000D02*
X139400000Y-88540000D01*
X140780000Y-89920000D02*
X140780000Y-88540000D01*
X140780000Y-91190000D02*
X138020000Y-91190000D01*
X140780000Y-91190000D02*
X140780000Y-98920000D01*
X140780000Y-98920000D02*
X138020000Y-98920000D01*
%TD*%
M02*
