%TF.GenerationSoftware,KiCad,Pcbnew,10.0.0*%
%TF.CreationDate,2026-03-23T02:15:25-04:00*%
%TF.ProjectId,HotPlate,486f7450-6c61-4746-952e-6b696361645f,rev?*%
%TF.SameCoordinates,Original*%
%TF.FileFunction,Soldermask,Top*%
%TF.FilePolarity,Negative*%
%FSLAX46Y46*%
G04 Gerber Fmt 4.6, Leading zero omitted, Abs format (unit mm)*
G04 Created by KiCad (PCBNEW 10.0.0) date 2026-03-23 02:15:25*
%MOMM*%
%LPD*%
G01*
G04 APERTURE LIST*
G04 Aperture macros list*
%AMRoundRect*
0 Rectangle with rounded corners*
0 $1 Rounding radius*
0 $2 $3 $4 $5 $6 $7 $8 $9 X,Y pos of 4 corners*
0 Add a 4 corners polygon primitive as box body*
4,1,4,$2,$3,$4,$5,$6,$7,$8,$9,$2,$3,0*
0 Add four circle primitives for the rounded corners*
1,1,$1+$1,$2,$3*
1,1,$1+$1,$4,$5*
1,1,$1+$1,$6,$7*
1,1,$1+$1,$8,$9*
0 Add four rect primitives between the rounded corners*
20,1,$1+$1,$2,$3,$4,$5,0*
20,1,$1+$1,$4,$5,$6,$7,0*
20,1,$1+$1,$6,$7,$8,$9,0*
20,1,$1+$1,$8,$9,$2,$3,0*%
%AMFreePoly0*
4,1,27,3.921279,0.947402,3.957606,0.897402,3.962500,0.866500,3.962500,-0.866500,3.943402,-0.925279,3.893402,-0.961606,3.862500,-0.966500,0.737500,-0.966500,0.678721,-0.947402,0.642394,-0.897402,0.637500,-0.866500,0.637500,-0.550000,-0.737500,-0.550000,-0.796279,-0.530902,-0.832606,-0.480902,-0.837500,-0.450000,-0.837500,0.450000,-0.818402,0.508779,-0.768402,0.545106,-0.737500,0.550000,
0.637500,0.550000,0.637500,0.866500,0.656598,0.925279,0.706598,0.961606,0.737500,0.966500,3.862500,0.966500,3.921279,0.947402,3.921279,0.947402,$1*%
G04 Aperture macros list end*
%ADD10RoundRect,0.275000X0.275000X-0.475000X0.275000X0.475000X-0.275000X0.475000X-0.275000X-0.475000X0*%
%ADD11FreePoly0,90.000000*%
%ADD12RoundRect,0.275000X0.300000X-0.275000X0.300000X0.275000X-0.300000X0.275000X-0.300000X-0.275000X0*%
%ADD13RoundRect,0.275000X0.275000X0.300000X-0.275000X0.300000X-0.275000X-0.300000X0.275000X-0.300000X0*%
%ADD14RoundRect,0.275000X-0.300000X0.275000X-0.300000X-0.275000X0.300000X-0.275000X0.300000X0.275000X0*%
%ADD15C,1.600000*%
%ADD16RoundRect,0.250000X-0.325000X0.250000X-0.325000X-0.250000X0.325000X-0.250000X0.325000X0.250000X0*%
%ADD17RoundRect,0.200000X0.200000X-0.562500X0.200000X0.562500X-0.200000X0.562500X-0.200000X-0.562500X0*%
%ADD18RoundRect,0.100000X0.437500X0.100000X-0.437500X0.100000X-0.437500X-0.100000X0.437500X-0.100000X0*%
%ADD19RoundRect,0.100000X0.100000X0.437500X-0.100000X0.437500X-0.100000X-0.437500X0.100000X-0.437500X0*%
%ADD20RoundRect,0.100000X1.600000X1.600000X-1.600000X1.600000X-1.600000X-1.600000X1.600000X-1.600000X0*%
%ADD21RoundRect,0.100000X0.500000X-0.450000X0.500000X0.450000X-0.500000X0.450000X-0.500000X-0.450000X0*%
%ADD22RoundRect,0.250000X0.250000X0.325000X-0.250000X0.325000X-0.250000X-0.325000X0.250000X-0.325000X0*%
%ADD23RoundRect,0.250000X0.325000X-0.250000X0.325000X0.250000X-0.325000X0.250000X-0.325000X-0.250000X0*%
%ADD24RoundRect,0.112500X0.362500X0.112500X-0.362500X0.112500X-0.362500X-0.112500X0.362500X-0.112500X0*%
%ADD25RoundRect,0.100000X0.900000X1.250000X-0.900000X1.250000X-0.900000X-1.250000X0.900000X-1.250000X0*%
%ADD26RoundRect,0.270834X1.029166X-1.029166X1.029166X1.029166X-1.029166X1.029166X-1.029166X-1.029166X0*%
%ADD27C,2.600000*%
%ADD28C,0.850000*%
%ADD29RoundRect,0.100000X-0.300000X-0.620000X0.300000X-0.620000X0.300000X0.620000X-0.300000X0.620000X0*%
%ADD30RoundRect,0.100000X-0.150000X-0.620000X0.150000X-0.620000X0.150000X0.620000X-0.150000X0.620000X0*%
%ADD31O,1.200000X2.300000*%
%ADD32O,1.200000X2.000000*%
%ADD33RoundRect,0.250000X-0.250000X-0.325000X0.250000X-0.325000X0.250000X0.325000X-0.250000X0.325000X0*%
%ADD34RoundRect,0.275974X2.549026X-0.786526X2.549026X0.786526X-2.549026X0.786526X-2.549026X-0.786526X0*%
%ADD35RoundRect,0.300000X-0.575000X-0.300000X0.575000X-0.300000X0.575000X0.300000X-0.575000X0.300000X0*%
%ADD36RoundRect,0.291666X-0.908334X-0.408334X0.908334X-0.408334X0.908334X0.408334X-0.908334X0.408334X0*%
%ADD37RoundRect,0.258618X-3.041382X-2.741382X3.041382X-2.741382X3.041382X2.741382X-3.041382X2.741382X0*%
%ADD38RoundRect,0.212500X0.700000X0.212500X-0.700000X0.212500X-0.700000X-0.212500X0.700000X-0.212500X0*%
%ADD39RoundRect,0.268750X0.306250X-0.268750X0.306250X0.268750X-0.306250X0.268750X-0.306250X-0.268750X0*%
%ADD40RoundRect,0.268750X-0.306250X0.268750X-0.306250X-0.268750X0.306250X-0.268750X0.306250X0.268750X0*%
%ADD41RoundRect,0.275000X-0.275000X-0.300000X0.275000X-0.300000X0.275000X0.300000X-0.275000X0.300000X0*%
%ADD42RoundRect,0.291666X0.508334X0.408334X-0.508334X0.408334X-0.508334X-0.408334X0.508334X-0.408334X0*%
%ADD43RoundRect,0.100000X0.850000X0.850000X-0.850000X0.850000X-0.850000X-0.850000X0.850000X-0.850000X0*%
%ADD44C,1.900000*%
G04 APERTURE END LIST*
D10*
%TO.C,U4*%
X157500000Y-100650000D03*
D11*
X159000000Y-100562500D03*
D10*
X160500000Y-100650000D03*
%TD*%
D12*
%TO.C,C12*%
X152925000Y-80100000D03*
X152925000Y-78550000D03*
%TD*%
D13*
%TO.C,C6*%
X147800000Y-99700000D03*
X146250000Y-99700000D03*
%TD*%
D14*
%TO.C,C19*%
X145500000Y-92200000D03*
X145500000Y-93750000D03*
%TD*%
D15*
%TO.C,TH1*%
X177800000Y-98640000D03*
X177800000Y-93560000D03*
%TD*%
D16*
%TO.C,R12*%
X159500000Y-105550000D03*
X159500000Y-107200000D03*
%TD*%
D17*
%TO.C,U2*%
X151600000Y-102025000D03*
X152550000Y-102025000D03*
X153500000Y-102025000D03*
X153500000Y-99750000D03*
X152550000Y-99750000D03*
X151600000Y-99750000D03*
%TD*%
D12*
%TO.C,C5*%
X154700000Y-78275000D03*
X154700000Y-76725000D03*
%TD*%
D18*
%TO.C,U1*%
X156562500Y-88400000D03*
X156562500Y-88000000D03*
X156562500Y-87600000D03*
X156562500Y-87200000D03*
X156562500Y-86800000D03*
X156562500Y-86400000D03*
X156562500Y-86000000D03*
X156562500Y-85600000D03*
X156562500Y-85200000D03*
X156562500Y-84800000D03*
X156562500Y-84400000D03*
X156562500Y-84000000D03*
X156562500Y-83600000D03*
X156562500Y-83200000D03*
D19*
X155725000Y-82362500D03*
X155325000Y-82362500D03*
X154925000Y-82362500D03*
X154525000Y-82362500D03*
X154125000Y-82362500D03*
X153725000Y-82362500D03*
X153325000Y-82362500D03*
X152925000Y-82362500D03*
X152525000Y-82362500D03*
X152125000Y-82362500D03*
X151725000Y-82362500D03*
X151325000Y-82362500D03*
X150925000Y-82362500D03*
X150525000Y-82362500D03*
D18*
X149687500Y-83200000D03*
X149687500Y-83600000D03*
X149687500Y-84000000D03*
X149687500Y-84400000D03*
X149687500Y-84800000D03*
X149687500Y-85200000D03*
X149687500Y-85600000D03*
X149687500Y-86000000D03*
X149687500Y-86400000D03*
X149687500Y-86800000D03*
X149687500Y-87200000D03*
X149687500Y-87600000D03*
X149687500Y-88000000D03*
X149687500Y-88400000D03*
D19*
X150525000Y-89237500D03*
X150925000Y-89237500D03*
X151325000Y-89237500D03*
X151725000Y-89237500D03*
X152125000Y-89237500D03*
X152525000Y-89237500D03*
X152925000Y-89237500D03*
X153325000Y-89237500D03*
X153725000Y-89237500D03*
X154125000Y-89237500D03*
X154525000Y-89237500D03*
X154925000Y-89237500D03*
X155325000Y-89237500D03*
X155725000Y-89237500D03*
D20*
X153125000Y-85800000D03*
%TD*%
D21*
%TO.C,BOOT*%
X161825000Y-112000000D03*
X161825000Y-107900000D03*
X163425000Y-112000000D03*
X163425000Y-107900000D03*
%TD*%
D22*
%TO.C,R6*%
X145100000Y-105950000D03*
X143450000Y-105950000D03*
%TD*%
D23*
%TO.C,R19*%
X143300000Y-79010000D03*
X143300000Y-77360000D03*
%TD*%
D16*
%TO.C,R2*%
X144400000Y-99700000D03*
X144400000Y-101350000D03*
%TD*%
D24*
%TO.C,U5*%
X147225000Y-98000000D03*
X147225000Y-97500000D03*
X147225000Y-97000000D03*
X147225000Y-96500000D03*
X147225000Y-96000000D03*
X144275000Y-96000000D03*
X144275000Y-96500000D03*
X144275000Y-97000000D03*
X144275000Y-97500000D03*
X144275000Y-98000000D03*
D25*
X145750000Y-97000000D03*
%TD*%
D26*
%TO.C,J2*%
X176700000Y-81000000D03*
D27*
X176700000Y-77500000D03*
%TD*%
D14*
%TO.C,C8*%
X147750000Y-92050000D03*
X147750000Y-93600000D03*
%TD*%
D23*
%TO.C,R10*%
X142700000Y-91750000D03*
X142700000Y-90100000D03*
%TD*%
D16*
%TO.C,R20*%
X177800000Y-88500000D03*
X177800000Y-90150000D03*
%TD*%
D23*
%TO.C,R14*%
X162300000Y-86600000D03*
X162300000Y-84950000D03*
%TD*%
%TO.C,R21*%
X168000000Y-107425000D03*
X168000000Y-105775000D03*
%TD*%
D28*
%TO.C,J1*%
X150190000Y-106520000D03*
X155970000Y-106520000D03*
D29*
X149880000Y-105400000D03*
X150680000Y-105400000D03*
D30*
X151830000Y-105400000D03*
X152830000Y-105400000D03*
X153330000Y-105400000D03*
X154330000Y-105400000D03*
D29*
X155480000Y-105400000D03*
X156280000Y-105400000D03*
X156280000Y-105400000D03*
X155480000Y-105400000D03*
D30*
X154830000Y-105400000D03*
X153830000Y-105400000D03*
X152330000Y-105400000D03*
X151330000Y-105400000D03*
D29*
X150680000Y-105400000D03*
X149880000Y-105400000D03*
D31*
X148760000Y-106000000D03*
D32*
X148760000Y-110200000D03*
D31*
X157400000Y-106000000D03*
D32*
X157400000Y-110200000D03*
%TD*%
D33*
%TO.C,R15*%
X158550000Y-86600000D03*
X160200000Y-86600000D03*
%TD*%
D34*
%TO.C,F1*%
X171000000Y-94700000D03*
X171000000Y-87925000D03*
%TD*%
D23*
%TO.C,R18*%
X133400000Y-111760000D03*
X133400000Y-110110000D03*
%TD*%
D12*
%TO.C,C1*%
X149500000Y-101650000D03*
X149500000Y-100100000D03*
%TD*%
D13*
%TO.C,C2*%
X160500000Y-102400000D03*
X158950000Y-102400000D03*
%TD*%
D35*
%TO.C,BTN0*%
X135050000Y-75800000D03*
X140300000Y-75800000D03*
X135050000Y-79000000D03*
X140300000Y-79000000D03*
%TD*%
D23*
%TO.C,R11*%
X142700000Y-95350000D03*
X142700000Y-93700000D03*
%TD*%
D36*
%TO.C,Q1*%
X164200000Y-97840000D03*
D37*
X170500000Y-100120000D03*
D36*
X164200000Y-102400000D03*
%TD*%
D14*
%TO.C,C9*%
X154125000Y-92050000D03*
X154125000Y-93600000D03*
%TD*%
D35*
%TO.C,BTN1*%
X135475000Y-108490000D03*
X140725000Y-108490000D03*
X135475000Y-111690000D03*
X140725000Y-111690000D03*
%TD*%
D23*
%TO.C,R3*%
X150950000Y-93650000D03*
X150950000Y-92000000D03*
%TD*%
D13*
%TO.C,C13*%
X147550000Y-84800000D03*
X146000000Y-84800000D03*
%TD*%
D33*
%TO.C,R1*%
X146200000Y-101400000D03*
X147850000Y-101400000D03*
%TD*%
D21*
%TO.C,RESET*%
X143500000Y-112000000D03*
X143500000Y-107900000D03*
X145100000Y-112000000D03*
X145100000Y-107900000D03*
%TD*%
D13*
%TO.C,C15*%
X147575000Y-90050000D03*
X146025000Y-90050000D03*
%TD*%
D38*
%TO.C,U3*%
X166000000Y-94900000D03*
X166000000Y-93630000D03*
X166000000Y-92360000D03*
X166000000Y-91090000D03*
X158825000Y-91090000D03*
X158825000Y-92360000D03*
X158825000Y-93630000D03*
X158825000Y-94900000D03*
%TD*%
D39*
%TO.C,D1*%
X169700000Y-107425000D03*
X169700000Y-105850000D03*
%TD*%
D14*
%TO.C,C17*%
X155750000Y-92050000D03*
X155750000Y-93600000D03*
%TD*%
D33*
%TO.C,R13*%
X161775000Y-106300000D03*
X163425000Y-106300000D03*
%TD*%
D12*
%TO.C,C16*%
X151350000Y-80100000D03*
X151350000Y-78550000D03*
%TD*%
D35*
%TO.C,BTN3*%
X118875000Y-75770000D03*
X124125000Y-75770000D03*
X118875000Y-78970000D03*
X124125000Y-78970000D03*
%TD*%
D13*
%TO.C,C14*%
X147575000Y-88400000D03*
X146025000Y-88400000D03*
%TD*%
D40*
%TO.C,D2*%
X146243750Y-80212500D03*
X146243750Y-81787500D03*
%TD*%
D35*
%TO.C,BTN2*%
X118750000Y-108400000D03*
X124000000Y-108400000D03*
X118750000Y-111600000D03*
X124000000Y-111600000D03*
%TD*%
D36*
%TO.C,Q4*%
X162825000Y-77195000D03*
D37*
X169125000Y-79475000D03*
D36*
X162825000Y-81755000D03*
%TD*%
D13*
%TO.C,C7*%
X155950000Y-95300000D03*
X154400000Y-95300000D03*
%TD*%
D41*
%TO.C,C4*%
X157900000Y-80000000D03*
X159450000Y-80000000D03*
%TD*%
%TO.C,C11*%
X158600000Y-84800000D03*
X160150000Y-84800000D03*
%TD*%
D23*
%TO.C,R16*%
X126625000Y-78970000D03*
X126625000Y-77320000D03*
%TD*%
D41*
%TO.C,C10*%
X158600000Y-88400000D03*
X160150000Y-88400000D03*
%TD*%
D42*
%TO.C,Y1*%
X159000000Y-76300000D03*
X156600000Y-76300000D03*
X156600000Y-78200000D03*
X159000000Y-78200000D03*
%TD*%
D12*
%TO.C,C3*%
X155545000Y-100650000D03*
X155545000Y-99100000D03*
%TD*%
D22*
%TO.C,R7*%
X146150000Y-103300000D03*
X144500000Y-103300000D03*
%TD*%
D23*
%TO.C,R4*%
X152550000Y-93650000D03*
X152550000Y-92000000D03*
%TD*%
%TO.C,R17*%
X126700000Y-111710000D03*
X126700000Y-110060000D03*
%TD*%
D33*
%TO.C,R5*%
X154750000Y-80000000D03*
X156400000Y-80000000D03*
%TD*%
D16*
%TO.C,R22*%
X147943750Y-80150000D03*
X147943750Y-81800000D03*
%TD*%
D14*
%TO.C,C18*%
X149350000Y-92050000D03*
X149350000Y-93600000D03*
%TD*%
D16*
%TO.C,R9*%
X142800000Y-99700000D03*
X142800000Y-101350000D03*
%TD*%
D43*
%TO.C,U6*%
X139400000Y-89920000D03*
D44*
X139400000Y-92460000D03*
X139400000Y-95000000D03*
X139400000Y-97540000D03*
%TD*%
M02*
