%TF.GenerationSoftware,KiCad,Pcbnew,10.0.0*%
%TF.CreationDate,2026-03-23T02:15:25-04:00*%
%TF.ProjectId,HotPlate,486f7450-6c61-4746-952e-6b696361645f,rev?*%
%TF.SameCoordinates,Original*%
%TF.FileFunction,Legend,Top*%
%TF.FilePolarity,Positive*%
%FSLAX46Y46*%
G04 Gerber Fmt 4.6, Leading zero omitted, Abs format (unit mm)*
G04 Created by KiCad (PCBNEW 10.0.0) date 2026-03-23 02:15:25*
%MOMM*%
%LPD*%
G01*
G04 APERTURE LIST*
%ADD10C,0.150000*%
%ADD11C,0.100000*%
%ADD12C,0.120000*%
G04 APERTURE END LIST*
D10*
X176189160Y-83665057D02*
X176236779Y-83617438D01*
X176236779Y-83617438D02*
X176332017Y-83569819D01*
X176332017Y-83569819D02*
X176570112Y-83569819D01*
X176570112Y-83569819D02*
X176665350Y-83617438D01*
X176665350Y-83617438D02*
X176712969Y-83665057D01*
X176712969Y-83665057D02*
X176760588Y-83760295D01*
X176760588Y-83760295D02*
X176760588Y-83855533D01*
X176760588Y-83855533D02*
X176712969Y-83998390D01*
X176712969Y-83998390D02*
X176141541Y-84569819D01*
X176141541Y-84569819D02*
X176760588Y-84569819D01*
X177379636Y-83569819D02*
X177474874Y-83569819D01*
X177474874Y-83569819D02*
X177570112Y-83617438D01*
X177570112Y-83617438D02*
X177617731Y-83665057D01*
X177617731Y-83665057D02*
X177665350Y-83760295D01*
X177665350Y-83760295D02*
X177712969Y-83950771D01*
X177712969Y-83950771D02*
X177712969Y-84188866D01*
X177712969Y-84188866D02*
X177665350Y-84379342D01*
X177665350Y-84379342D02*
X177617731Y-84474580D01*
X177617731Y-84474580D02*
X177570112Y-84522200D01*
X177570112Y-84522200D02*
X177474874Y-84569819D01*
X177474874Y-84569819D02*
X177379636Y-84569819D01*
X177379636Y-84569819D02*
X177284398Y-84522200D01*
X177284398Y-84522200D02*
X177236779Y-84474580D01*
X177236779Y-84474580D02*
X177189160Y-84379342D01*
X177189160Y-84379342D02*
X177141541Y-84188866D01*
X177141541Y-84188866D02*
X177141541Y-83950771D01*
X177141541Y-83950771D02*
X177189160Y-83760295D01*
X177189160Y-83760295D02*
X177236779Y-83665057D01*
X177236779Y-83665057D02*
X177284398Y-83617438D01*
X177284398Y-83617438D02*
X177379636Y-83569819D01*
X177998684Y-83569819D02*
X178332017Y-84569819D01*
X178332017Y-84569819D02*
X178665350Y-83569819D01*
X178998684Y-84188866D02*
X179760589Y-84188866D01*
X179379636Y-84569819D02*
X179379636Y-83807914D01*
D11*
G36*
X120343374Y-83388476D02*
G01*
X125136395Y-83388476D01*
X125136395Y-82674494D01*
X125544769Y-82674494D01*
X125544769Y-84906446D01*
X125510929Y-85497298D01*
X125415065Y-86008295D01*
X125263598Y-86450698D01*
X125059993Y-86834140D01*
X124804591Y-87166272D01*
X124493633Y-87451483D01*
X124139574Y-87674510D01*
X123736246Y-87837857D01*
X123275089Y-87940102D01*
X122745594Y-87975968D01*
X122214663Y-87940032D01*
X121751994Y-87837563D01*
X121347104Y-87673823D01*
X120991449Y-87450223D01*
X120678872Y-87164257D01*
X120421884Y-86831197D01*
X120217221Y-86447373D01*
X120065115Y-86005250D01*
X119968930Y-85495317D01*
X119935000Y-84906446D01*
X119935000Y-84850026D01*
X120343374Y-84850026D01*
X120371603Y-85292930D01*
X120451501Y-85673507D01*
X120577958Y-86001224D01*
X120748818Y-86283938D01*
X120965002Y-86527516D01*
X121220041Y-86728057D01*
X121518269Y-86888553D01*
X121866366Y-87008512D01*
X122272753Y-87084812D01*
X122747273Y-87111867D01*
X123222413Y-87084803D01*
X123628126Y-87008581D01*
X123974521Y-86888925D01*
X124270246Y-86729057D01*
X124522155Y-86529531D01*
X124735282Y-86287069D01*
X124904058Y-86004854D01*
X125029199Y-85676870D01*
X125108387Y-85295127D01*
X125136395Y-84850026D01*
X125136395Y-84151155D01*
X120343374Y-84151155D01*
X120343374Y-84850026D01*
X119935000Y-84850026D01*
X119935000Y-82674494D01*
X120343374Y-82674494D01*
X120343374Y-83388476D01*
G37*
G36*
X119173664Y-90079296D02*
G01*
X119842645Y-90342254D01*
X123524392Y-88850815D01*
X123524392Y-88396096D01*
X123932766Y-88396096D01*
X123932766Y-90233443D01*
X123524392Y-90233443D01*
X123524392Y-89594687D01*
X120779622Y-90718052D01*
X123524392Y-91841416D01*
X123524392Y-91243968D01*
X123932766Y-91243968D01*
X123932766Y-92743130D01*
X123524392Y-92743130D01*
X123524392Y-92296135D01*
X119007762Y-90466176D01*
X118711192Y-90322731D01*
X118510528Y-90183640D01*
X118383111Y-90049071D01*
X118294800Y-89887710D01*
X118236895Y-89676812D01*
X118215530Y-89402926D01*
X118243404Y-89040225D01*
X118322997Y-88666442D01*
X119075265Y-88666442D01*
X119075265Y-89019740D01*
X118856703Y-89067659D01*
X118728684Y-89149371D01*
X118653023Y-89277111D01*
X118623904Y-89481847D01*
X118652881Y-89672767D01*
X118733722Y-89814323D01*
X118876816Y-89930201D01*
X119173664Y-90079296D01*
G37*
G36*
X119935000Y-93081315D02*
G01*
X120343374Y-93081315D01*
X120343374Y-93704959D01*
X123524392Y-93704959D01*
X123524392Y-93043702D01*
X123932766Y-93043702D01*
X123932766Y-94396105D01*
X123217440Y-94396105D01*
X123475146Y-94542157D01*
X123677650Y-94708003D01*
X123832688Y-94893811D01*
X123946860Y-95106314D01*
X124016301Y-95341865D01*
X124040233Y-95606114D01*
X124012960Y-95935395D01*
X123937571Y-96199183D01*
X123819920Y-96410559D01*
X123660405Y-96579025D01*
X123465769Y-96704822D01*
X123213167Y-96802423D01*
X122888899Y-96867163D01*
X122476591Y-96891015D01*
X120343374Y-96891015D01*
X120343374Y-97507270D01*
X119935000Y-97507270D01*
X119935000Y-95598390D01*
X120343374Y-95598390D01*
X120343374Y-96195839D01*
X122259306Y-96195839D01*
X122755710Y-96169481D01*
X123076243Y-96104032D01*
X123271509Y-96015496D01*
X123417811Y-95873702D01*
X123511058Y-95669619D01*
X123545886Y-95380434D01*
X123522209Y-95146892D01*
X123455032Y-94951757D01*
X123346201Y-94787005D01*
X123192253Y-94647644D01*
X122943478Y-94516380D01*
X122608349Y-94428831D01*
X122162250Y-94396105D01*
X120343374Y-94396105D01*
X120343374Y-94997247D01*
X119935000Y-94997247D01*
X119935000Y-93081315D01*
G37*
G36*
X125177367Y-98467419D02*
G01*
X125339617Y-98498643D01*
X125480289Y-98593357D01*
X125577177Y-98732368D01*
X125609249Y-98895943D01*
X125577369Y-99056056D01*
X125480289Y-99194500D01*
X125339617Y-99289214D01*
X125177367Y-99320437D01*
X125012443Y-99289292D01*
X124874445Y-99196179D01*
X124780763Y-99059197D01*
X124749515Y-98895943D01*
X124780713Y-98732054D01*
X124874445Y-98593357D01*
X125012574Y-98498931D01*
X125177367Y-98467419D01*
G37*
G36*
X120343374Y-99350327D02*
G01*
X120343374Y-100004195D01*
X119935000Y-100004195D01*
X119935000Y-97997923D01*
X120343374Y-97997923D01*
X120343374Y-98659180D01*
X123524392Y-98659180D01*
X123524392Y-97997923D01*
X123932766Y-97997923D01*
X123932766Y-99350327D01*
X120343374Y-99350327D01*
G37*
G36*
X122375505Y-102420184D02*
G01*
X123524392Y-103258090D01*
X123524392Y-102720756D01*
X123932766Y-102720756D01*
X123932766Y-104257196D01*
X123524392Y-104257196D01*
X123524392Y-103727586D01*
X122053776Y-102656947D01*
X120343374Y-103904234D01*
X120343374Y-104426456D01*
X119935000Y-104426456D01*
X119935000Y-102581721D01*
X120343374Y-102581721D01*
X120343374Y-103088830D01*
X121533569Y-102221035D01*
X120343374Y-101349210D01*
X120343374Y-101867738D01*
X119935000Y-101867738D01*
X119935000Y-100349768D01*
X120343374Y-100349768D01*
X120343374Y-100879714D01*
X121855298Y-101980578D01*
X123524392Y-100767210D01*
X123524392Y-100274877D01*
X123932766Y-100274877D01*
X123932766Y-102059499D01*
X123524392Y-102059499D01*
X123524392Y-101582279D01*
X122375505Y-102420184D01*
G37*
D10*
X156638095Y-95454819D02*
X156638095Y-96264342D01*
X156638095Y-96264342D02*
X156685714Y-96359580D01*
X156685714Y-96359580D02*
X156733333Y-96407200D01*
X156733333Y-96407200D02*
X156828571Y-96454819D01*
X156828571Y-96454819D02*
X157019047Y-96454819D01*
X157019047Y-96454819D02*
X157114285Y-96407200D01*
X157114285Y-96407200D02*
X157161904Y-96359580D01*
X157161904Y-96359580D02*
X157209523Y-96264342D01*
X157209523Y-96264342D02*
X157209523Y-95454819D01*
X158114285Y-95788152D02*
X158114285Y-96454819D01*
X157876190Y-95407200D02*
X157638095Y-96121485D01*
X157638095Y-96121485D02*
X158257142Y-96121485D01*
X153259580Y-76942857D02*
X153307200Y-76990476D01*
X153307200Y-76990476D02*
X153354819Y-77133333D01*
X153354819Y-77133333D02*
X153354819Y-77228571D01*
X153354819Y-77228571D02*
X153307200Y-77371428D01*
X153307200Y-77371428D02*
X153211961Y-77466666D01*
X153211961Y-77466666D02*
X153116723Y-77514285D01*
X153116723Y-77514285D02*
X152926247Y-77561904D01*
X152926247Y-77561904D02*
X152783390Y-77561904D01*
X152783390Y-77561904D02*
X152592914Y-77514285D01*
X152592914Y-77514285D02*
X152497676Y-77466666D01*
X152497676Y-77466666D02*
X152402438Y-77371428D01*
X152402438Y-77371428D02*
X152354819Y-77228571D01*
X152354819Y-77228571D02*
X152354819Y-77133333D01*
X152354819Y-77133333D02*
X152402438Y-76990476D01*
X152402438Y-76990476D02*
X152450057Y-76942857D01*
X153354819Y-75990476D02*
X153354819Y-76561904D01*
X153354819Y-76276190D02*
X152354819Y-76276190D01*
X152354819Y-76276190D02*
X152497676Y-76371428D01*
X152497676Y-76371428D02*
X152592914Y-76466666D01*
X152592914Y-76466666D02*
X152640533Y-76561904D01*
X152450057Y-75609523D02*
X152402438Y-75561904D01*
X152402438Y-75561904D02*
X152354819Y-75466666D01*
X152354819Y-75466666D02*
X152354819Y-75228571D01*
X152354819Y-75228571D02*
X152402438Y-75133333D01*
X152402438Y-75133333D02*
X152450057Y-75085714D01*
X152450057Y-75085714D02*
X152545295Y-75038095D01*
X152545295Y-75038095D02*
X152640533Y-75038095D01*
X152640533Y-75038095D02*
X152783390Y-75085714D01*
X152783390Y-75085714D02*
X153354819Y-75657142D01*
X153354819Y-75657142D02*
X153354819Y-75038095D01*
X139833333Y-100559580D02*
X139785714Y-100607200D01*
X139785714Y-100607200D02*
X139642857Y-100654819D01*
X139642857Y-100654819D02*
X139547619Y-100654819D01*
X139547619Y-100654819D02*
X139404762Y-100607200D01*
X139404762Y-100607200D02*
X139309524Y-100511961D01*
X139309524Y-100511961D02*
X139261905Y-100416723D01*
X139261905Y-100416723D02*
X139214286Y-100226247D01*
X139214286Y-100226247D02*
X139214286Y-100083390D01*
X139214286Y-100083390D02*
X139261905Y-99892914D01*
X139261905Y-99892914D02*
X139309524Y-99797676D01*
X139309524Y-99797676D02*
X139404762Y-99702438D01*
X139404762Y-99702438D02*
X139547619Y-99654819D01*
X139547619Y-99654819D02*
X139642857Y-99654819D01*
X139642857Y-99654819D02*
X139785714Y-99702438D01*
X139785714Y-99702438D02*
X139833333Y-99750057D01*
X140690476Y-99654819D02*
X140500000Y-99654819D01*
X140500000Y-99654819D02*
X140404762Y-99702438D01*
X140404762Y-99702438D02*
X140357143Y-99750057D01*
X140357143Y-99750057D02*
X140261905Y-99892914D01*
X140261905Y-99892914D02*
X140214286Y-100083390D01*
X140214286Y-100083390D02*
X140214286Y-100464342D01*
X140214286Y-100464342D02*
X140261905Y-100559580D01*
X140261905Y-100559580D02*
X140309524Y-100607200D01*
X140309524Y-100607200D02*
X140404762Y-100654819D01*
X140404762Y-100654819D02*
X140595238Y-100654819D01*
X140595238Y-100654819D02*
X140690476Y-100607200D01*
X140690476Y-100607200D02*
X140738095Y-100559580D01*
X140738095Y-100559580D02*
X140785714Y-100464342D01*
X140785714Y-100464342D02*
X140785714Y-100226247D01*
X140785714Y-100226247D02*
X140738095Y-100131009D01*
X140738095Y-100131009D02*
X140690476Y-100083390D01*
X140690476Y-100083390D02*
X140595238Y-100035771D01*
X140595238Y-100035771D02*
X140404762Y-100035771D01*
X140404762Y-100035771D02*
X140309524Y-100083390D01*
X140309524Y-100083390D02*
X140261905Y-100131009D01*
X140261905Y-100131009D02*
X140214286Y-100226247D01*
X128209580Y-93642857D02*
X128257200Y-93690476D01*
X128257200Y-93690476D02*
X128304819Y-93833333D01*
X128304819Y-93833333D02*
X128304819Y-93928571D01*
X128304819Y-93928571D02*
X128257200Y-94071428D01*
X128257200Y-94071428D02*
X128161961Y-94166666D01*
X128161961Y-94166666D02*
X128066723Y-94214285D01*
X128066723Y-94214285D02*
X127876247Y-94261904D01*
X127876247Y-94261904D02*
X127733390Y-94261904D01*
X127733390Y-94261904D02*
X127542914Y-94214285D01*
X127542914Y-94214285D02*
X127447676Y-94166666D01*
X127447676Y-94166666D02*
X127352438Y-94071428D01*
X127352438Y-94071428D02*
X127304819Y-93928571D01*
X127304819Y-93928571D02*
X127304819Y-93833333D01*
X127304819Y-93833333D02*
X127352438Y-93690476D01*
X127352438Y-93690476D02*
X127400057Y-93642857D01*
X128304819Y-92690476D02*
X128304819Y-93261904D01*
X128304819Y-92976190D02*
X127304819Y-92976190D01*
X127304819Y-92976190D02*
X127447676Y-93071428D01*
X127447676Y-93071428D02*
X127542914Y-93166666D01*
X127542914Y-93166666D02*
X127590533Y-93261904D01*
X128304819Y-92214285D02*
X128304819Y-92023809D01*
X128304819Y-92023809D02*
X128257200Y-91928571D01*
X128257200Y-91928571D02*
X128209580Y-91880952D01*
X128209580Y-91880952D02*
X128066723Y-91785714D01*
X128066723Y-91785714D02*
X127876247Y-91738095D01*
X127876247Y-91738095D02*
X127495295Y-91738095D01*
X127495295Y-91738095D02*
X127400057Y-91785714D01*
X127400057Y-91785714D02*
X127352438Y-91833333D01*
X127352438Y-91833333D02*
X127304819Y-91928571D01*
X127304819Y-91928571D02*
X127304819Y-92119047D01*
X127304819Y-92119047D02*
X127352438Y-92214285D01*
X127352438Y-92214285D02*
X127400057Y-92261904D01*
X127400057Y-92261904D02*
X127495295Y-92309523D01*
X127495295Y-92309523D02*
X127733390Y-92309523D01*
X127733390Y-92309523D02*
X127828628Y-92261904D01*
X127828628Y-92261904D02*
X127876247Y-92214285D01*
X127876247Y-92214285D02*
X127923866Y-92119047D01*
X127923866Y-92119047D02*
X127923866Y-91928571D01*
X127923866Y-91928571D02*
X127876247Y-91833333D01*
X127876247Y-91833333D02*
X127828628Y-91785714D01*
X127828628Y-91785714D02*
X127733390Y-91738095D01*
X175334819Y-97385713D02*
X175334819Y-96814285D01*
X176334819Y-97099999D02*
X175334819Y-97099999D01*
X176334819Y-96480951D02*
X175334819Y-96480951D01*
X175811009Y-96480951D02*
X175811009Y-95909523D01*
X176334819Y-95909523D02*
X175334819Y-95909523D01*
X176334819Y-94909523D02*
X176334819Y-95480951D01*
X176334819Y-95195237D02*
X175334819Y-95195237D01*
X175334819Y-95195237D02*
X175477676Y-95290475D01*
X175477676Y-95290475D02*
X175572914Y-95385713D01*
X175572914Y-95385713D02*
X175620533Y-95480951D01*
X160254819Y-110342857D02*
X159778628Y-110676190D01*
X160254819Y-110914285D02*
X159254819Y-110914285D01*
X159254819Y-110914285D02*
X159254819Y-110533333D01*
X159254819Y-110533333D02*
X159302438Y-110438095D01*
X159302438Y-110438095D02*
X159350057Y-110390476D01*
X159350057Y-110390476D02*
X159445295Y-110342857D01*
X159445295Y-110342857D02*
X159588152Y-110342857D01*
X159588152Y-110342857D02*
X159683390Y-110390476D01*
X159683390Y-110390476D02*
X159731009Y-110438095D01*
X159731009Y-110438095D02*
X159778628Y-110533333D01*
X159778628Y-110533333D02*
X159778628Y-110914285D01*
X160254819Y-109390476D02*
X160254819Y-109961904D01*
X160254819Y-109676190D02*
X159254819Y-109676190D01*
X159254819Y-109676190D02*
X159397676Y-109771428D01*
X159397676Y-109771428D02*
X159492914Y-109866666D01*
X159492914Y-109866666D02*
X159540533Y-109961904D01*
X159350057Y-109009523D02*
X159302438Y-108961904D01*
X159302438Y-108961904D02*
X159254819Y-108866666D01*
X159254819Y-108866666D02*
X159254819Y-108628571D01*
X159254819Y-108628571D02*
X159302438Y-108533333D01*
X159302438Y-108533333D02*
X159350057Y-108485714D01*
X159350057Y-108485714D02*
X159445295Y-108438095D01*
X159445295Y-108438095D02*
X159540533Y-108438095D01*
X159540533Y-108438095D02*
X159683390Y-108485714D01*
X159683390Y-108485714D02*
X160254819Y-109057142D01*
X160254819Y-109057142D02*
X160254819Y-108438095D01*
X149038095Y-102854819D02*
X149038095Y-103664342D01*
X149038095Y-103664342D02*
X149085714Y-103759580D01*
X149085714Y-103759580D02*
X149133333Y-103807200D01*
X149133333Y-103807200D02*
X149228571Y-103854819D01*
X149228571Y-103854819D02*
X149419047Y-103854819D01*
X149419047Y-103854819D02*
X149514285Y-103807200D01*
X149514285Y-103807200D02*
X149561904Y-103759580D01*
X149561904Y-103759580D02*
X149609523Y-103664342D01*
X149609523Y-103664342D02*
X149609523Y-102854819D01*
X150038095Y-102950057D02*
X150085714Y-102902438D01*
X150085714Y-102902438D02*
X150180952Y-102854819D01*
X150180952Y-102854819D02*
X150419047Y-102854819D01*
X150419047Y-102854819D02*
X150514285Y-102902438D01*
X150514285Y-102902438D02*
X150561904Y-102950057D01*
X150561904Y-102950057D02*
X150609523Y-103045295D01*
X150609523Y-103045295D02*
X150609523Y-103140533D01*
X150609523Y-103140533D02*
X150561904Y-103283390D01*
X150561904Y-103283390D02*
X149990476Y-103854819D01*
X149990476Y-103854819D02*
X150609523Y-103854819D01*
X154433333Y-75659580D02*
X154385714Y-75707200D01*
X154385714Y-75707200D02*
X154242857Y-75754819D01*
X154242857Y-75754819D02*
X154147619Y-75754819D01*
X154147619Y-75754819D02*
X154004762Y-75707200D01*
X154004762Y-75707200D02*
X153909524Y-75611961D01*
X153909524Y-75611961D02*
X153861905Y-75516723D01*
X153861905Y-75516723D02*
X153814286Y-75326247D01*
X153814286Y-75326247D02*
X153814286Y-75183390D01*
X153814286Y-75183390D02*
X153861905Y-74992914D01*
X153861905Y-74992914D02*
X153909524Y-74897676D01*
X153909524Y-74897676D02*
X154004762Y-74802438D01*
X154004762Y-74802438D02*
X154147619Y-74754819D01*
X154147619Y-74754819D02*
X154242857Y-74754819D01*
X154242857Y-74754819D02*
X154385714Y-74802438D01*
X154385714Y-74802438D02*
X154433333Y-74850057D01*
X155338095Y-74754819D02*
X154861905Y-74754819D01*
X154861905Y-74754819D02*
X154814286Y-75231009D01*
X154814286Y-75231009D02*
X154861905Y-75183390D01*
X154861905Y-75183390D02*
X154957143Y-75135771D01*
X154957143Y-75135771D02*
X155195238Y-75135771D01*
X155195238Y-75135771D02*
X155290476Y-75183390D01*
X155290476Y-75183390D02*
X155338095Y-75231009D01*
X155338095Y-75231009D02*
X155385714Y-75326247D01*
X155385714Y-75326247D02*
X155385714Y-75564342D01*
X155385714Y-75564342D02*
X155338095Y-75659580D01*
X155338095Y-75659580D02*
X155290476Y-75707200D01*
X155290476Y-75707200D02*
X155195238Y-75754819D01*
X155195238Y-75754819D02*
X154957143Y-75754819D01*
X154957143Y-75754819D02*
X154861905Y-75707200D01*
X154861905Y-75707200D02*
X154814286Y-75659580D01*
X152363095Y-90084819D02*
X152363095Y-90894342D01*
X152363095Y-90894342D02*
X152410714Y-90989580D01*
X152410714Y-90989580D02*
X152458333Y-91037200D01*
X152458333Y-91037200D02*
X152553571Y-91084819D01*
X152553571Y-91084819D02*
X152744047Y-91084819D01*
X152744047Y-91084819D02*
X152839285Y-91037200D01*
X152839285Y-91037200D02*
X152886904Y-90989580D01*
X152886904Y-90989580D02*
X152934523Y-90894342D01*
X152934523Y-90894342D02*
X152934523Y-90084819D01*
X153934523Y-91084819D02*
X153363095Y-91084819D01*
X153648809Y-91084819D02*
X153648809Y-90084819D01*
X153648809Y-90084819D02*
X153553571Y-90227676D01*
X153553571Y-90227676D02*
X153458333Y-90322914D01*
X153458333Y-90322914D02*
X153363095Y-90370533D01*
X165181009Y-111357142D02*
X165228628Y-111214285D01*
X165228628Y-111214285D02*
X165276247Y-111166666D01*
X165276247Y-111166666D02*
X165371485Y-111119047D01*
X165371485Y-111119047D02*
X165514342Y-111119047D01*
X165514342Y-111119047D02*
X165609580Y-111166666D01*
X165609580Y-111166666D02*
X165657200Y-111214285D01*
X165657200Y-111214285D02*
X165704819Y-111309523D01*
X165704819Y-111309523D02*
X165704819Y-111690475D01*
X165704819Y-111690475D02*
X164704819Y-111690475D01*
X164704819Y-111690475D02*
X164704819Y-111357142D01*
X164704819Y-111357142D02*
X164752438Y-111261904D01*
X164752438Y-111261904D02*
X164800057Y-111214285D01*
X164800057Y-111214285D02*
X164895295Y-111166666D01*
X164895295Y-111166666D02*
X164990533Y-111166666D01*
X164990533Y-111166666D02*
X165085771Y-111214285D01*
X165085771Y-111214285D02*
X165133390Y-111261904D01*
X165133390Y-111261904D02*
X165181009Y-111357142D01*
X165181009Y-111357142D02*
X165181009Y-111690475D01*
X164704819Y-110499999D02*
X164704819Y-110309523D01*
X164704819Y-110309523D02*
X164752438Y-110214285D01*
X164752438Y-110214285D02*
X164847676Y-110119047D01*
X164847676Y-110119047D02*
X165038152Y-110071428D01*
X165038152Y-110071428D02*
X165371485Y-110071428D01*
X165371485Y-110071428D02*
X165561961Y-110119047D01*
X165561961Y-110119047D02*
X165657200Y-110214285D01*
X165657200Y-110214285D02*
X165704819Y-110309523D01*
X165704819Y-110309523D02*
X165704819Y-110499999D01*
X165704819Y-110499999D02*
X165657200Y-110595237D01*
X165657200Y-110595237D02*
X165561961Y-110690475D01*
X165561961Y-110690475D02*
X165371485Y-110738094D01*
X165371485Y-110738094D02*
X165038152Y-110738094D01*
X165038152Y-110738094D02*
X164847676Y-110690475D01*
X164847676Y-110690475D02*
X164752438Y-110595237D01*
X164752438Y-110595237D02*
X164704819Y-110499999D01*
X164704819Y-109452380D02*
X164704819Y-109261904D01*
X164704819Y-109261904D02*
X164752438Y-109166666D01*
X164752438Y-109166666D02*
X164847676Y-109071428D01*
X164847676Y-109071428D02*
X165038152Y-109023809D01*
X165038152Y-109023809D02*
X165371485Y-109023809D01*
X165371485Y-109023809D02*
X165561961Y-109071428D01*
X165561961Y-109071428D02*
X165657200Y-109166666D01*
X165657200Y-109166666D02*
X165704819Y-109261904D01*
X165704819Y-109261904D02*
X165704819Y-109452380D01*
X165704819Y-109452380D02*
X165657200Y-109547618D01*
X165657200Y-109547618D02*
X165561961Y-109642856D01*
X165561961Y-109642856D02*
X165371485Y-109690475D01*
X165371485Y-109690475D02*
X165038152Y-109690475D01*
X165038152Y-109690475D02*
X164847676Y-109642856D01*
X164847676Y-109642856D02*
X164752438Y-109547618D01*
X164752438Y-109547618D02*
X164704819Y-109452380D01*
X164704819Y-108738094D02*
X164704819Y-108166666D01*
X165704819Y-108452380D02*
X164704819Y-108452380D01*
X146954819Y-106416666D02*
X146478628Y-106749999D01*
X146954819Y-106988094D02*
X145954819Y-106988094D01*
X145954819Y-106988094D02*
X145954819Y-106607142D01*
X145954819Y-106607142D02*
X146002438Y-106511904D01*
X146002438Y-106511904D02*
X146050057Y-106464285D01*
X146050057Y-106464285D02*
X146145295Y-106416666D01*
X146145295Y-106416666D02*
X146288152Y-106416666D01*
X146288152Y-106416666D02*
X146383390Y-106464285D01*
X146383390Y-106464285D02*
X146431009Y-106511904D01*
X146431009Y-106511904D02*
X146478628Y-106607142D01*
X146478628Y-106607142D02*
X146478628Y-106988094D01*
X145954819Y-105559523D02*
X145954819Y-105749999D01*
X145954819Y-105749999D02*
X146002438Y-105845237D01*
X146002438Y-105845237D02*
X146050057Y-105892856D01*
X146050057Y-105892856D02*
X146192914Y-105988094D01*
X146192914Y-105988094D02*
X146383390Y-106035713D01*
X146383390Y-106035713D02*
X146764342Y-106035713D01*
X146764342Y-106035713D02*
X146859580Y-105988094D01*
X146859580Y-105988094D02*
X146907200Y-105940475D01*
X146907200Y-105940475D02*
X146954819Y-105845237D01*
X146954819Y-105845237D02*
X146954819Y-105654761D01*
X146954819Y-105654761D02*
X146907200Y-105559523D01*
X146907200Y-105559523D02*
X146859580Y-105511904D01*
X146859580Y-105511904D02*
X146764342Y-105464285D01*
X146764342Y-105464285D02*
X146526247Y-105464285D01*
X146526247Y-105464285D02*
X146431009Y-105511904D01*
X146431009Y-105511904D02*
X146383390Y-105559523D01*
X146383390Y-105559523D02*
X146335771Y-105654761D01*
X146335771Y-105654761D02*
X146335771Y-105845237D01*
X146335771Y-105845237D02*
X146383390Y-105940475D01*
X146383390Y-105940475D02*
X146431009Y-105988094D01*
X146431009Y-105988094D02*
X146526247Y-106035713D01*
X142657142Y-76374819D02*
X142323809Y-75898628D01*
X142085714Y-76374819D02*
X142085714Y-75374819D01*
X142085714Y-75374819D02*
X142466666Y-75374819D01*
X142466666Y-75374819D02*
X142561904Y-75422438D01*
X142561904Y-75422438D02*
X142609523Y-75470057D01*
X142609523Y-75470057D02*
X142657142Y-75565295D01*
X142657142Y-75565295D02*
X142657142Y-75708152D01*
X142657142Y-75708152D02*
X142609523Y-75803390D01*
X142609523Y-75803390D02*
X142561904Y-75851009D01*
X142561904Y-75851009D02*
X142466666Y-75898628D01*
X142466666Y-75898628D02*
X142085714Y-75898628D01*
X143609523Y-76374819D02*
X143038095Y-76374819D01*
X143323809Y-76374819D02*
X143323809Y-75374819D01*
X143323809Y-75374819D02*
X143228571Y-75517676D01*
X143228571Y-75517676D02*
X143133333Y-75612914D01*
X143133333Y-75612914D02*
X143038095Y-75660533D01*
X144085714Y-76374819D02*
X144276190Y-76374819D01*
X144276190Y-76374819D02*
X144371428Y-76327200D01*
X144371428Y-76327200D02*
X144419047Y-76279580D01*
X144419047Y-76279580D02*
X144514285Y-76136723D01*
X144514285Y-76136723D02*
X144561904Y-75946247D01*
X144561904Y-75946247D02*
X144561904Y-75565295D01*
X144561904Y-75565295D02*
X144514285Y-75470057D01*
X144514285Y-75470057D02*
X144466666Y-75422438D01*
X144466666Y-75422438D02*
X144371428Y-75374819D01*
X144371428Y-75374819D02*
X144180952Y-75374819D01*
X144180952Y-75374819D02*
X144085714Y-75422438D01*
X144085714Y-75422438D02*
X144038095Y-75470057D01*
X144038095Y-75470057D02*
X143990476Y-75565295D01*
X143990476Y-75565295D02*
X143990476Y-75803390D01*
X143990476Y-75803390D02*
X144038095Y-75898628D01*
X144038095Y-75898628D02*
X144085714Y-75946247D01*
X144085714Y-75946247D02*
X144180952Y-75993866D01*
X144180952Y-75993866D02*
X144371428Y-75993866D01*
X144371428Y-75993866D02*
X144466666Y-75946247D01*
X144466666Y-75946247D02*
X144514285Y-75898628D01*
X144514285Y-75898628D02*
X144561904Y-75803390D01*
X138154819Y-100691666D02*
X137678628Y-101024999D01*
X138154819Y-101263094D02*
X137154819Y-101263094D01*
X137154819Y-101263094D02*
X137154819Y-100882142D01*
X137154819Y-100882142D02*
X137202438Y-100786904D01*
X137202438Y-100786904D02*
X137250057Y-100739285D01*
X137250057Y-100739285D02*
X137345295Y-100691666D01*
X137345295Y-100691666D02*
X137488152Y-100691666D01*
X137488152Y-100691666D02*
X137583390Y-100739285D01*
X137583390Y-100739285D02*
X137631009Y-100786904D01*
X137631009Y-100786904D02*
X137678628Y-100882142D01*
X137678628Y-100882142D02*
X137678628Y-101263094D01*
X137250057Y-100310713D02*
X137202438Y-100263094D01*
X137202438Y-100263094D02*
X137154819Y-100167856D01*
X137154819Y-100167856D02*
X137154819Y-99929761D01*
X137154819Y-99929761D02*
X137202438Y-99834523D01*
X137202438Y-99834523D02*
X137250057Y-99786904D01*
X137250057Y-99786904D02*
X137345295Y-99739285D01*
X137345295Y-99739285D02*
X137440533Y-99739285D01*
X137440533Y-99739285D02*
X137583390Y-99786904D01*
X137583390Y-99786904D02*
X138154819Y-100358332D01*
X138154819Y-100358332D02*
X138154819Y-99739285D01*
X142354819Y-98061904D02*
X143164342Y-98061904D01*
X143164342Y-98061904D02*
X143259580Y-98014285D01*
X143259580Y-98014285D02*
X143307200Y-97966666D01*
X143307200Y-97966666D02*
X143354819Y-97871428D01*
X143354819Y-97871428D02*
X143354819Y-97680952D01*
X143354819Y-97680952D02*
X143307200Y-97585714D01*
X143307200Y-97585714D02*
X143259580Y-97538095D01*
X143259580Y-97538095D02*
X143164342Y-97490476D01*
X143164342Y-97490476D02*
X142354819Y-97490476D01*
X142354819Y-96538095D02*
X142354819Y-97014285D01*
X142354819Y-97014285D02*
X142831009Y-97061904D01*
X142831009Y-97061904D02*
X142783390Y-97014285D01*
X142783390Y-97014285D02*
X142735771Y-96919047D01*
X142735771Y-96919047D02*
X142735771Y-96680952D01*
X142735771Y-96680952D02*
X142783390Y-96585714D01*
X142783390Y-96585714D02*
X142831009Y-96538095D01*
X142831009Y-96538095D02*
X142926247Y-96490476D01*
X142926247Y-96490476D02*
X143164342Y-96490476D01*
X143164342Y-96490476D02*
X143259580Y-96538095D01*
X143259580Y-96538095D02*
X143307200Y-96585714D01*
X143307200Y-96585714D02*
X143354819Y-96680952D01*
X143354819Y-96680952D02*
X143354819Y-96919047D01*
X143354819Y-96919047D02*
X143307200Y-97014285D01*
X143307200Y-97014285D02*
X143259580Y-97061904D01*
X173766666Y-83454819D02*
X173766666Y-84169104D01*
X173766666Y-84169104D02*
X173719047Y-84311961D01*
X173719047Y-84311961D02*
X173623809Y-84407200D01*
X173623809Y-84407200D02*
X173480952Y-84454819D01*
X173480952Y-84454819D02*
X173385714Y-84454819D01*
X174195238Y-83550057D02*
X174242857Y-83502438D01*
X174242857Y-83502438D02*
X174338095Y-83454819D01*
X174338095Y-83454819D02*
X174576190Y-83454819D01*
X174576190Y-83454819D02*
X174671428Y-83502438D01*
X174671428Y-83502438D02*
X174719047Y-83550057D01*
X174719047Y-83550057D02*
X174766666Y-83645295D01*
X174766666Y-83645295D02*
X174766666Y-83740533D01*
X174766666Y-83740533D02*
X174719047Y-83883390D01*
X174719047Y-83883390D02*
X174147619Y-84454819D01*
X174147619Y-84454819D02*
X174766666Y-84454819D01*
X129809580Y-93166666D02*
X129857200Y-93214285D01*
X129857200Y-93214285D02*
X129904819Y-93357142D01*
X129904819Y-93357142D02*
X129904819Y-93452380D01*
X129904819Y-93452380D02*
X129857200Y-93595237D01*
X129857200Y-93595237D02*
X129761961Y-93690475D01*
X129761961Y-93690475D02*
X129666723Y-93738094D01*
X129666723Y-93738094D02*
X129476247Y-93785713D01*
X129476247Y-93785713D02*
X129333390Y-93785713D01*
X129333390Y-93785713D02*
X129142914Y-93738094D01*
X129142914Y-93738094D02*
X129047676Y-93690475D01*
X129047676Y-93690475D02*
X128952438Y-93595237D01*
X128952438Y-93595237D02*
X128904819Y-93452380D01*
X128904819Y-93452380D02*
X128904819Y-93357142D01*
X128904819Y-93357142D02*
X128952438Y-93214285D01*
X128952438Y-93214285D02*
X129000057Y-93166666D01*
X129333390Y-92595237D02*
X129285771Y-92690475D01*
X129285771Y-92690475D02*
X129238152Y-92738094D01*
X129238152Y-92738094D02*
X129142914Y-92785713D01*
X129142914Y-92785713D02*
X129095295Y-92785713D01*
X129095295Y-92785713D02*
X129000057Y-92738094D01*
X129000057Y-92738094D02*
X128952438Y-92690475D01*
X128952438Y-92690475D02*
X128904819Y-92595237D01*
X128904819Y-92595237D02*
X128904819Y-92404761D01*
X128904819Y-92404761D02*
X128952438Y-92309523D01*
X128952438Y-92309523D02*
X129000057Y-92261904D01*
X129000057Y-92261904D02*
X129095295Y-92214285D01*
X129095295Y-92214285D02*
X129142914Y-92214285D01*
X129142914Y-92214285D02*
X129238152Y-92261904D01*
X129238152Y-92261904D02*
X129285771Y-92309523D01*
X129285771Y-92309523D02*
X129333390Y-92404761D01*
X129333390Y-92404761D02*
X129333390Y-92595237D01*
X129333390Y-92595237D02*
X129381009Y-92690475D01*
X129381009Y-92690475D02*
X129428628Y-92738094D01*
X129428628Y-92738094D02*
X129523866Y-92785713D01*
X129523866Y-92785713D02*
X129714342Y-92785713D01*
X129714342Y-92785713D02*
X129809580Y-92738094D01*
X129809580Y-92738094D02*
X129857200Y-92690475D01*
X129857200Y-92690475D02*
X129904819Y-92595237D01*
X129904819Y-92595237D02*
X129904819Y-92404761D01*
X129904819Y-92404761D02*
X129857200Y-92309523D01*
X129857200Y-92309523D02*
X129809580Y-92261904D01*
X129809580Y-92261904D02*
X129714342Y-92214285D01*
X129714342Y-92214285D02*
X129523866Y-92214285D01*
X129523866Y-92214285D02*
X129428628Y-92261904D01*
X129428628Y-92261904D02*
X129381009Y-92309523D01*
X129381009Y-92309523D02*
X129333390Y-92404761D01*
X143254819Y-85242857D02*
X142778628Y-85576190D01*
X143254819Y-85814285D02*
X142254819Y-85814285D01*
X142254819Y-85814285D02*
X142254819Y-85433333D01*
X142254819Y-85433333D02*
X142302438Y-85338095D01*
X142302438Y-85338095D02*
X142350057Y-85290476D01*
X142350057Y-85290476D02*
X142445295Y-85242857D01*
X142445295Y-85242857D02*
X142588152Y-85242857D01*
X142588152Y-85242857D02*
X142683390Y-85290476D01*
X142683390Y-85290476D02*
X142731009Y-85338095D01*
X142731009Y-85338095D02*
X142778628Y-85433333D01*
X142778628Y-85433333D02*
X142778628Y-85814285D01*
X143254819Y-84290476D02*
X143254819Y-84861904D01*
X143254819Y-84576190D02*
X142254819Y-84576190D01*
X142254819Y-84576190D02*
X142397676Y-84671428D01*
X142397676Y-84671428D02*
X142492914Y-84766666D01*
X142492914Y-84766666D02*
X142540533Y-84861904D01*
X142254819Y-83671428D02*
X142254819Y-83576190D01*
X142254819Y-83576190D02*
X142302438Y-83480952D01*
X142302438Y-83480952D02*
X142350057Y-83433333D01*
X142350057Y-83433333D02*
X142445295Y-83385714D01*
X142445295Y-83385714D02*
X142635771Y-83338095D01*
X142635771Y-83338095D02*
X142873866Y-83338095D01*
X142873866Y-83338095D02*
X143064342Y-83385714D01*
X143064342Y-83385714D02*
X143159580Y-83433333D01*
X143159580Y-83433333D02*
X143207200Y-83480952D01*
X143207200Y-83480952D02*
X143254819Y-83576190D01*
X143254819Y-83576190D02*
X143254819Y-83671428D01*
X143254819Y-83671428D02*
X143207200Y-83766666D01*
X143207200Y-83766666D02*
X143159580Y-83814285D01*
X143159580Y-83814285D02*
X143064342Y-83861904D01*
X143064342Y-83861904D02*
X142873866Y-83909523D01*
X142873866Y-83909523D02*
X142635771Y-83909523D01*
X142635771Y-83909523D02*
X142445295Y-83861904D01*
X142445295Y-83861904D02*
X142350057Y-83814285D01*
X142350057Y-83814285D02*
X142302438Y-83766666D01*
X142302438Y-83766666D02*
X142254819Y-83671428D01*
X176654819Y-90042857D02*
X176178628Y-90376190D01*
X176654819Y-90614285D02*
X175654819Y-90614285D01*
X175654819Y-90614285D02*
X175654819Y-90233333D01*
X175654819Y-90233333D02*
X175702438Y-90138095D01*
X175702438Y-90138095D02*
X175750057Y-90090476D01*
X175750057Y-90090476D02*
X175845295Y-90042857D01*
X175845295Y-90042857D02*
X175988152Y-90042857D01*
X175988152Y-90042857D02*
X176083390Y-90090476D01*
X176083390Y-90090476D02*
X176131009Y-90138095D01*
X176131009Y-90138095D02*
X176178628Y-90233333D01*
X176178628Y-90233333D02*
X176178628Y-90614285D01*
X175750057Y-89661904D02*
X175702438Y-89614285D01*
X175702438Y-89614285D02*
X175654819Y-89519047D01*
X175654819Y-89519047D02*
X175654819Y-89280952D01*
X175654819Y-89280952D02*
X175702438Y-89185714D01*
X175702438Y-89185714D02*
X175750057Y-89138095D01*
X175750057Y-89138095D02*
X175845295Y-89090476D01*
X175845295Y-89090476D02*
X175940533Y-89090476D01*
X175940533Y-89090476D02*
X176083390Y-89138095D01*
X176083390Y-89138095D02*
X176654819Y-89709523D01*
X176654819Y-89709523D02*
X176654819Y-89090476D01*
X175654819Y-88471428D02*
X175654819Y-88376190D01*
X175654819Y-88376190D02*
X175702438Y-88280952D01*
X175702438Y-88280952D02*
X175750057Y-88233333D01*
X175750057Y-88233333D02*
X175845295Y-88185714D01*
X175845295Y-88185714D02*
X176035771Y-88138095D01*
X176035771Y-88138095D02*
X176273866Y-88138095D01*
X176273866Y-88138095D02*
X176464342Y-88185714D01*
X176464342Y-88185714D02*
X176559580Y-88233333D01*
X176559580Y-88233333D02*
X176607200Y-88280952D01*
X176607200Y-88280952D02*
X176654819Y-88376190D01*
X176654819Y-88376190D02*
X176654819Y-88471428D01*
X176654819Y-88471428D02*
X176607200Y-88566666D01*
X176607200Y-88566666D02*
X176559580Y-88614285D01*
X176559580Y-88614285D02*
X176464342Y-88661904D01*
X176464342Y-88661904D02*
X176273866Y-88709523D01*
X176273866Y-88709523D02*
X176035771Y-88709523D01*
X176035771Y-88709523D02*
X175845295Y-88661904D01*
X175845295Y-88661904D02*
X175750057Y-88614285D01*
X175750057Y-88614285D02*
X175702438Y-88566666D01*
X175702438Y-88566666D02*
X175654819Y-88471428D01*
X164354819Y-86417857D02*
X163878628Y-86751190D01*
X164354819Y-86989285D02*
X163354819Y-86989285D01*
X163354819Y-86989285D02*
X163354819Y-86608333D01*
X163354819Y-86608333D02*
X163402438Y-86513095D01*
X163402438Y-86513095D02*
X163450057Y-86465476D01*
X163450057Y-86465476D02*
X163545295Y-86417857D01*
X163545295Y-86417857D02*
X163688152Y-86417857D01*
X163688152Y-86417857D02*
X163783390Y-86465476D01*
X163783390Y-86465476D02*
X163831009Y-86513095D01*
X163831009Y-86513095D02*
X163878628Y-86608333D01*
X163878628Y-86608333D02*
X163878628Y-86989285D01*
X164354819Y-85465476D02*
X164354819Y-86036904D01*
X164354819Y-85751190D02*
X163354819Y-85751190D01*
X163354819Y-85751190D02*
X163497676Y-85846428D01*
X163497676Y-85846428D02*
X163592914Y-85941666D01*
X163592914Y-85941666D02*
X163640533Y-86036904D01*
X163688152Y-84608333D02*
X164354819Y-84608333D01*
X163307200Y-84846428D02*
X164021485Y-85084523D01*
X164021485Y-85084523D02*
X164021485Y-84465476D01*
X167024819Y-107242857D02*
X166548628Y-107576190D01*
X167024819Y-107814285D02*
X166024819Y-107814285D01*
X166024819Y-107814285D02*
X166024819Y-107433333D01*
X166024819Y-107433333D02*
X166072438Y-107338095D01*
X166072438Y-107338095D02*
X166120057Y-107290476D01*
X166120057Y-107290476D02*
X166215295Y-107242857D01*
X166215295Y-107242857D02*
X166358152Y-107242857D01*
X166358152Y-107242857D02*
X166453390Y-107290476D01*
X166453390Y-107290476D02*
X166501009Y-107338095D01*
X166501009Y-107338095D02*
X166548628Y-107433333D01*
X166548628Y-107433333D02*
X166548628Y-107814285D01*
X166120057Y-106861904D02*
X166072438Y-106814285D01*
X166072438Y-106814285D02*
X166024819Y-106719047D01*
X166024819Y-106719047D02*
X166024819Y-106480952D01*
X166024819Y-106480952D02*
X166072438Y-106385714D01*
X166072438Y-106385714D02*
X166120057Y-106338095D01*
X166120057Y-106338095D02*
X166215295Y-106290476D01*
X166215295Y-106290476D02*
X166310533Y-106290476D01*
X166310533Y-106290476D02*
X166453390Y-106338095D01*
X166453390Y-106338095D02*
X167024819Y-106909523D01*
X167024819Y-106909523D02*
X167024819Y-106290476D01*
X167024819Y-105338095D02*
X167024819Y-105909523D01*
X167024819Y-105623809D02*
X166024819Y-105623809D01*
X166024819Y-105623809D02*
X166167676Y-105719047D01*
X166167676Y-105719047D02*
X166262914Y-105814285D01*
X166262914Y-105814285D02*
X166310533Y-105909523D01*
X152746666Y-103079819D02*
X152746666Y-103794104D01*
X152746666Y-103794104D02*
X152699047Y-103936961D01*
X152699047Y-103936961D02*
X152603809Y-104032200D01*
X152603809Y-104032200D02*
X152460952Y-104079819D01*
X152460952Y-104079819D02*
X152365714Y-104079819D01*
X153746666Y-104079819D02*
X153175238Y-104079819D01*
X153460952Y-104079819D02*
X153460952Y-103079819D01*
X153460952Y-103079819D02*
X153365714Y-103222676D01*
X153365714Y-103222676D02*
X153270476Y-103317914D01*
X153270476Y-103317914D02*
X153175238Y-103365533D01*
X158757142Y-83754819D02*
X158423809Y-83278628D01*
X158185714Y-83754819D02*
X158185714Y-82754819D01*
X158185714Y-82754819D02*
X158566666Y-82754819D01*
X158566666Y-82754819D02*
X158661904Y-82802438D01*
X158661904Y-82802438D02*
X158709523Y-82850057D01*
X158709523Y-82850057D02*
X158757142Y-82945295D01*
X158757142Y-82945295D02*
X158757142Y-83088152D01*
X158757142Y-83088152D02*
X158709523Y-83183390D01*
X158709523Y-83183390D02*
X158661904Y-83231009D01*
X158661904Y-83231009D02*
X158566666Y-83278628D01*
X158566666Y-83278628D02*
X158185714Y-83278628D01*
X159709523Y-83754819D02*
X159138095Y-83754819D01*
X159423809Y-83754819D02*
X159423809Y-82754819D01*
X159423809Y-82754819D02*
X159328571Y-82897676D01*
X159328571Y-82897676D02*
X159233333Y-82992914D01*
X159233333Y-82992914D02*
X159138095Y-83040533D01*
X160614285Y-82754819D02*
X160138095Y-82754819D01*
X160138095Y-82754819D02*
X160090476Y-83231009D01*
X160090476Y-83231009D02*
X160138095Y-83183390D01*
X160138095Y-83183390D02*
X160233333Y-83135771D01*
X160233333Y-83135771D02*
X160471428Y-83135771D01*
X160471428Y-83135771D02*
X160566666Y-83183390D01*
X160566666Y-83183390D02*
X160614285Y-83231009D01*
X160614285Y-83231009D02*
X160661904Y-83326247D01*
X160661904Y-83326247D02*
X160661904Y-83564342D01*
X160661904Y-83564342D02*
X160614285Y-83659580D01*
X160614285Y-83659580D02*
X160566666Y-83707200D01*
X160566666Y-83707200D02*
X160471428Y-83754819D01*
X160471428Y-83754819D02*
X160233333Y-83754819D01*
X160233333Y-83754819D02*
X160138095Y-83707200D01*
X160138095Y-83707200D02*
X160090476Y-83659580D01*
X174631009Y-91933333D02*
X174631009Y-92266666D01*
X175154819Y-92266666D02*
X174154819Y-92266666D01*
X174154819Y-92266666D02*
X174154819Y-91790476D01*
X175154819Y-90885714D02*
X175154819Y-91457142D01*
X175154819Y-91171428D02*
X174154819Y-91171428D01*
X174154819Y-91171428D02*
X174297676Y-91266666D01*
X174297676Y-91266666D02*
X174392914Y-91361904D01*
X174392914Y-91361904D02*
X174440533Y-91457142D01*
X132354819Y-111632857D02*
X131878628Y-111966190D01*
X132354819Y-112204285D02*
X131354819Y-112204285D01*
X131354819Y-112204285D02*
X131354819Y-111823333D01*
X131354819Y-111823333D02*
X131402438Y-111728095D01*
X131402438Y-111728095D02*
X131450057Y-111680476D01*
X131450057Y-111680476D02*
X131545295Y-111632857D01*
X131545295Y-111632857D02*
X131688152Y-111632857D01*
X131688152Y-111632857D02*
X131783390Y-111680476D01*
X131783390Y-111680476D02*
X131831009Y-111728095D01*
X131831009Y-111728095D02*
X131878628Y-111823333D01*
X131878628Y-111823333D02*
X131878628Y-112204285D01*
X132354819Y-110680476D02*
X132354819Y-111251904D01*
X132354819Y-110966190D02*
X131354819Y-110966190D01*
X131354819Y-110966190D02*
X131497676Y-111061428D01*
X131497676Y-111061428D02*
X131592914Y-111156666D01*
X131592914Y-111156666D02*
X131640533Y-111251904D01*
X131783390Y-110109047D02*
X131735771Y-110204285D01*
X131735771Y-110204285D02*
X131688152Y-110251904D01*
X131688152Y-110251904D02*
X131592914Y-110299523D01*
X131592914Y-110299523D02*
X131545295Y-110299523D01*
X131545295Y-110299523D02*
X131450057Y-110251904D01*
X131450057Y-110251904D02*
X131402438Y-110204285D01*
X131402438Y-110204285D02*
X131354819Y-110109047D01*
X131354819Y-110109047D02*
X131354819Y-109918571D01*
X131354819Y-109918571D02*
X131402438Y-109823333D01*
X131402438Y-109823333D02*
X131450057Y-109775714D01*
X131450057Y-109775714D02*
X131545295Y-109728095D01*
X131545295Y-109728095D02*
X131592914Y-109728095D01*
X131592914Y-109728095D02*
X131688152Y-109775714D01*
X131688152Y-109775714D02*
X131735771Y-109823333D01*
X131735771Y-109823333D02*
X131783390Y-109918571D01*
X131783390Y-109918571D02*
X131783390Y-110109047D01*
X131783390Y-110109047D02*
X131831009Y-110204285D01*
X131831009Y-110204285D02*
X131878628Y-110251904D01*
X131878628Y-110251904D02*
X131973866Y-110299523D01*
X131973866Y-110299523D02*
X132164342Y-110299523D01*
X132164342Y-110299523D02*
X132259580Y-110251904D01*
X132259580Y-110251904D02*
X132307200Y-110204285D01*
X132307200Y-110204285D02*
X132354819Y-110109047D01*
X132354819Y-110109047D02*
X132354819Y-109918571D01*
X132354819Y-109918571D02*
X132307200Y-109823333D01*
X132307200Y-109823333D02*
X132259580Y-109775714D01*
X132259580Y-109775714D02*
X132164342Y-109728095D01*
X132164342Y-109728095D02*
X131973866Y-109728095D01*
X131973866Y-109728095D02*
X131878628Y-109775714D01*
X131878628Y-109775714D02*
X131831009Y-109823333D01*
X131831009Y-109823333D02*
X131783390Y-109918571D01*
X149859580Y-98466666D02*
X149907200Y-98514285D01*
X149907200Y-98514285D02*
X149954819Y-98657142D01*
X149954819Y-98657142D02*
X149954819Y-98752380D01*
X149954819Y-98752380D02*
X149907200Y-98895237D01*
X149907200Y-98895237D02*
X149811961Y-98990475D01*
X149811961Y-98990475D02*
X149716723Y-99038094D01*
X149716723Y-99038094D02*
X149526247Y-99085713D01*
X149526247Y-99085713D02*
X149383390Y-99085713D01*
X149383390Y-99085713D02*
X149192914Y-99038094D01*
X149192914Y-99038094D02*
X149097676Y-98990475D01*
X149097676Y-98990475D02*
X149002438Y-98895237D01*
X149002438Y-98895237D02*
X148954819Y-98752380D01*
X148954819Y-98752380D02*
X148954819Y-98657142D01*
X148954819Y-98657142D02*
X149002438Y-98514285D01*
X149002438Y-98514285D02*
X149050057Y-98466666D01*
X149954819Y-97514285D02*
X149954819Y-98085713D01*
X149954819Y-97799999D02*
X148954819Y-97799999D01*
X148954819Y-97799999D02*
X149097676Y-97895237D01*
X149097676Y-97895237D02*
X149192914Y-97990475D01*
X149192914Y-97990475D02*
X149240533Y-98085713D01*
X159633333Y-104359580D02*
X159585714Y-104407200D01*
X159585714Y-104407200D02*
X159442857Y-104454819D01*
X159442857Y-104454819D02*
X159347619Y-104454819D01*
X159347619Y-104454819D02*
X159204762Y-104407200D01*
X159204762Y-104407200D02*
X159109524Y-104311961D01*
X159109524Y-104311961D02*
X159061905Y-104216723D01*
X159061905Y-104216723D02*
X159014286Y-104026247D01*
X159014286Y-104026247D02*
X159014286Y-103883390D01*
X159014286Y-103883390D02*
X159061905Y-103692914D01*
X159061905Y-103692914D02*
X159109524Y-103597676D01*
X159109524Y-103597676D02*
X159204762Y-103502438D01*
X159204762Y-103502438D02*
X159347619Y-103454819D01*
X159347619Y-103454819D02*
X159442857Y-103454819D01*
X159442857Y-103454819D02*
X159585714Y-103502438D01*
X159585714Y-103502438D02*
X159633333Y-103550057D01*
X160014286Y-103550057D02*
X160061905Y-103502438D01*
X160061905Y-103502438D02*
X160157143Y-103454819D01*
X160157143Y-103454819D02*
X160395238Y-103454819D01*
X160395238Y-103454819D02*
X160490476Y-103502438D01*
X160490476Y-103502438D02*
X160538095Y-103550057D01*
X160538095Y-103550057D02*
X160585714Y-103645295D01*
X160585714Y-103645295D02*
X160585714Y-103740533D01*
X160585714Y-103740533D02*
X160538095Y-103883390D01*
X160538095Y-103883390D02*
X159966667Y-104454819D01*
X159966667Y-104454819D02*
X160585714Y-104454819D01*
X136390476Y-80931009D02*
X136533333Y-80978628D01*
X136533333Y-80978628D02*
X136580952Y-81026247D01*
X136580952Y-81026247D02*
X136628571Y-81121485D01*
X136628571Y-81121485D02*
X136628571Y-81264342D01*
X136628571Y-81264342D02*
X136580952Y-81359580D01*
X136580952Y-81359580D02*
X136533333Y-81407200D01*
X136533333Y-81407200D02*
X136438095Y-81454819D01*
X136438095Y-81454819D02*
X136057143Y-81454819D01*
X136057143Y-81454819D02*
X136057143Y-80454819D01*
X136057143Y-80454819D02*
X136390476Y-80454819D01*
X136390476Y-80454819D02*
X136485714Y-80502438D01*
X136485714Y-80502438D02*
X136533333Y-80550057D01*
X136533333Y-80550057D02*
X136580952Y-80645295D01*
X136580952Y-80645295D02*
X136580952Y-80740533D01*
X136580952Y-80740533D02*
X136533333Y-80835771D01*
X136533333Y-80835771D02*
X136485714Y-80883390D01*
X136485714Y-80883390D02*
X136390476Y-80931009D01*
X136390476Y-80931009D02*
X136057143Y-80931009D01*
X136914286Y-80454819D02*
X137485714Y-80454819D01*
X137200000Y-81454819D02*
X137200000Y-80454819D01*
X137819048Y-81454819D02*
X137819048Y-80454819D01*
X137819048Y-80454819D02*
X138390476Y-81454819D01*
X138390476Y-81454819D02*
X138390476Y-80454819D01*
X139057143Y-80454819D02*
X139152381Y-80454819D01*
X139152381Y-80454819D02*
X139247619Y-80502438D01*
X139247619Y-80502438D02*
X139295238Y-80550057D01*
X139295238Y-80550057D02*
X139342857Y-80645295D01*
X139342857Y-80645295D02*
X139390476Y-80835771D01*
X139390476Y-80835771D02*
X139390476Y-81073866D01*
X139390476Y-81073866D02*
X139342857Y-81264342D01*
X139342857Y-81264342D02*
X139295238Y-81359580D01*
X139295238Y-81359580D02*
X139247619Y-81407200D01*
X139247619Y-81407200D02*
X139152381Y-81454819D01*
X139152381Y-81454819D02*
X139057143Y-81454819D01*
X139057143Y-81454819D02*
X138961905Y-81407200D01*
X138961905Y-81407200D02*
X138914286Y-81359580D01*
X138914286Y-81359580D02*
X138866667Y-81264342D01*
X138866667Y-81264342D02*
X138819048Y-81073866D01*
X138819048Y-81073866D02*
X138819048Y-80835771D01*
X138819048Y-80835771D02*
X138866667Y-80645295D01*
X138866667Y-80645295D02*
X138914286Y-80550057D01*
X138914286Y-80550057D02*
X138961905Y-80502438D01*
X138961905Y-80502438D02*
X139057143Y-80454819D01*
X143154819Y-88542857D02*
X142678628Y-88876190D01*
X143154819Y-89114285D02*
X142154819Y-89114285D01*
X142154819Y-89114285D02*
X142154819Y-88733333D01*
X142154819Y-88733333D02*
X142202438Y-88638095D01*
X142202438Y-88638095D02*
X142250057Y-88590476D01*
X142250057Y-88590476D02*
X142345295Y-88542857D01*
X142345295Y-88542857D02*
X142488152Y-88542857D01*
X142488152Y-88542857D02*
X142583390Y-88590476D01*
X142583390Y-88590476D02*
X142631009Y-88638095D01*
X142631009Y-88638095D02*
X142678628Y-88733333D01*
X142678628Y-88733333D02*
X142678628Y-89114285D01*
X143154819Y-87590476D02*
X143154819Y-88161904D01*
X143154819Y-87876190D02*
X142154819Y-87876190D01*
X142154819Y-87876190D02*
X142297676Y-87971428D01*
X142297676Y-87971428D02*
X142392914Y-88066666D01*
X142392914Y-88066666D02*
X142440533Y-88161904D01*
X143154819Y-86638095D02*
X143154819Y-87209523D01*
X143154819Y-86923809D02*
X142154819Y-86923809D01*
X142154819Y-86923809D02*
X142297676Y-87019047D01*
X142297676Y-87019047D02*
X142392914Y-87114285D01*
X142392914Y-87114285D02*
X142440533Y-87209523D01*
X175350057Y-100595238D02*
X175302438Y-100690476D01*
X175302438Y-100690476D02*
X175207200Y-100785714D01*
X175207200Y-100785714D02*
X175064342Y-100928571D01*
X175064342Y-100928571D02*
X175016723Y-101023809D01*
X175016723Y-101023809D02*
X175016723Y-101119047D01*
X175254819Y-101071428D02*
X175207200Y-101166666D01*
X175207200Y-101166666D02*
X175111961Y-101261904D01*
X175111961Y-101261904D02*
X174921485Y-101309523D01*
X174921485Y-101309523D02*
X174588152Y-101309523D01*
X174588152Y-101309523D02*
X174397676Y-101261904D01*
X174397676Y-101261904D02*
X174302438Y-101166666D01*
X174302438Y-101166666D02*
X174254819Y-101071428D01*
X174254819Y-101071428D02*
X174254819Y-100880952D01*
X174254819Y-100880952D02*
X174302438Y-100785714D01*
X174302438Y-100785714D02*
X174397676Y-100690476D01*
X174397676Y-100690476D02*
X174588152Y-100642857D01*
X174588152Y-100642857D02*
X174921485Y-100642857D01*
X174921485Y-100642857D02*
X175111961Y-100690476D01*
X175111961Y-100690476D02*
X175207200Y-100785714D01*
X175207200Y-100785714D02*
X175254819Y-100880952D01*
X175254819Y-100880952D02*
X175254819Y-101071428D01*
X175254819Y-99690476D02*
X175254819Y-100261904D01*
X175254819Y-99976190D02*
X174254819Y-99976190D01*
X174254819Y-99976190D02*
X174397676Y-100071428D01*
X174397676Y-100071428D02*
X174492914Y-100166666D01*
X174492914Y-100166666D02*
X174540533Y-100261904D01*
X135709580Y-92966666D02*
X135757200Y-93014285D01*
X135757200Y-93014285D02*
X135804819Y-93157142D01*
X135804819Y-93157142D02*
X135804819Y-93252380D01*
X135804819Y-93252380D02*
X135757200Y-93395237D01*
X135757200Y-93395237D02*
X135661961Y-93490475D01*
X135661961Y-93490475D02*
X135566723Y-93538094D01*
X135566723Y-93538094D02*
X135376247Y-93585713D01*
X135376247Y-93585713D02*
X135233390Y-93585713D01*
X135233390Y-93585713D02*
X135042914Y-93538094D01*
X135042914Y-93538094D02*
X134947676Y-93490475D01*
X134947676Y-93490475D02*
X134852438Y-93395237D01*
X134852438Y-93395237D02*
X134804819Y-93252380D01*
X134804819Y-93252380D02*
X134804819Y-93157142D01*
X134804819Y-93157142D02*
X134852438Y-93014285D01*
X134852438Y-93014285D02*
X134900057Y-92966666D01*
X135804819Y-92490475D02*
X135804819Y-92299999D01*
X135804819Y-92299999D02*
X135757200Y-92204761D01*
X135757200Y-92204761D02*
X135709580Y-92157142D01*
X135709580Y-92157142D02*
X135566723Y-92061904D01*
X135566723Y-92061904D02*
X135376247Y-92014285D01*
X135376247Y-92014285D02*
X134995295Y-92014285D01*
X134995295Y-92014285D02*
X134900057Y-92061904D01*
X134900057Y-92061904D02*
X134852438Y-92109523D01*
X134852438Y-92109523D02*
X134804819Y-92204761D01*
X134804819Y-92204761D02*
X134804819Y-92395237D01*
X134804819Y-92395237D02*
X134852438Y-92490475D01*
X134852438Y-92490475D02*
X134900057Y-92538094D01*
X134900057Y-92538094D02*
X134995295Y-92585713D01*
X134995295Y-92585713D02*
X135233390Y-92585713D01*
X135233390Y-92585713D02*
X135328628Y-92538094D01*
X135328628Y-92538094D02*
X135376247Y-92490475D01*
X135376247Y-92490475D02*
X135423866Y-92395237D01*
X135423866Y-92395237D02*
X135423866Y-92204761D01*
X135423866Y-92204761D02*
X135376247Y-92109523D01*
X135376247Y-92109523D02*
X135328628Y-92061904D01*
X135328628Y-92061904D02*
X135233390Y-92014285D01*
X136790476Y-106641009D02*
X136933333Y-106688628D01*
X136933333Y-106688628D02*
X136980952Y-106736247D01*
X136980952Y-106736247D02*
X137028571Y-106831485D01*
X137028571Y-106831485D02*
X137028571Y-106974342D01*
X137028571Y-106974342D02*
X136980952Y-107069580D01*
X136980952Y-107069580D02*
X136933333Y-107117200D01*
X136933333Y-107117200D02*
X136838095Y-107164819D01*
X136838095Y-107164819D02*
X136457143Y-107164819D01*
X136457143Y-107164819D02*
X136457143Y-106164819D01*
X136457143Y-106164819D02*
X136790476Y-106164819D01*
X136790476Y-106164819D02*
X136885714Y-106212438D01*
X136885714Y-106212438D02*
X136933333Y-106260057D01*
X136933333Y-106260057D02*
X136980952Y-106355295D01*
X136980952Y-106355295D02*
X136980952Y-106450533D01*
X136980952Y-106450533D02*
X136933333Y-106545771D01*
X136933333Y-106545771D02*
X136885714Y-106593390D01*
X136885714Y-106593390D02*
X136790476Y-106641009D01*
X136790476Y-106641009D02*
X136457143Y-106641009D01*
X137314286Y-106164819D02*
X137885714Y-106164819D01*
X137600000Y-107164819D02*
X137600000Y-106164819D01*
X138219048Y-107164819D02*
X138219048Y-106164819D01*
X138219048Y-106164819D02*
X138790476Y-107164819D01*
X138790476Y-107164819D02*
X138790476Y-106164819D01*
X139790476Y-107164819D02*
X139219048Y-107164819D01*
X139504762Y-107164819D02*
X139504762Y-106164819D01*
X139504762Y-106164819D02*
X139409524Y-106307676D01*
X139409524Y-106307676D02*
X139314286Y-106402914D01*
X139314286Y-106402914D02*
X139219048Y-106450533D01*
X132954819Y-93166666D02*
X132478628Y-93499999D01*
X132954819Y-93738094D02*
X131954819Y-93738094D01*
X131954819Y-93738094D02*
X131954819Y-93357142D01*
X131954819Y-93357142D02*
X132002438Y-93261904D01*
X132002438Y-93261904D02*
X132050057Y-93214285D01*
X132050057Y-93214285D02*
X132145295Y-93166666D01*
X132145295Y-93166666D02*
X132288152Y-93166666D01*
X132288152Y-93166666D02*
X132383390Y-93214285D01*
X132383390Y-93214285D02*
X132431009Y-93261904D01*
X132431009Y-93261904D02*
X132478628Y-93357142D01*
X132478628Y-93357142D02*
X132478628Y-93738094D01*
X131954819Y-92833332D02*
X131954819Y-92214285D01*
X131954819Y-92214285D02*
X132335771Y-92547618D01*
X132335771Y-92547618D02*
X132335771Y-92404761D01*
X132335771Y-92404761D02*
X132383390Y-92309523D01*
X132383390Y-92309523D02*
X132431009Y-92261904D01*
X132431009Y-92261904D02*
X132526247Y-92214285D01*
X132526247Y-92214285D02*
X132764342Y-92214285D01*
X132764342Y-92214285D02*
X132859580Y-92261904D01*
X132859580Y-92261904D02*
X132907200Y-92309523D01*
X132907200Y-92309523D02*
X132954819Y-92404761D01*
X132954819Y-92404761D02*
X132954819Y-92690475D01*
X132954819Y-92690475D02*
X132907200Y-92785713D01*
X132907200Y-92785713D02*
X132859580Y-92833332D01*
X146132142Y-86589580D02*
X146084523Y-86637200D01*
X146084523Y-86637200D02*
X145941666Y-86684819D01*
X145941666Y-86684819D02*
X145846428Y-86684819D01*
X145846428Y-86684819D02*
X145703571Y-86637200D01*
X145703571Y-86637200D02*
X145608333Y-86541961D01*
X145608333Y-86541961D02*
X145560714Y-86446723D01*
X145560714Y-86446723D02*
X145513095Y-86256247D01*
X145513095Y-86256247D02*
X145513095Y-86113390D01*
X145513095Y-86113390D02*
X145560714Y-85922914D01*
X145560714Y-85922914D02*
X145608333Y-85827676D01*
X145608333Y-85827676D02*
X145703571Y-85732438D01*
X145703571Y-85732438D02*
X145846428Y-85684819D01*
X145846428Y-85684819D02*
X145941666Y-85684819D01*
X145941666Y-85684819D02*
X146084523Y-85732438D01*
X146084523Y-85732438D02*
X146132142Y-85780057D01*
X147084523Y-86684819D02*
X146513095Y-86684819D01*
X146798809Y-86684819D02*
X146798809Y-85684819D01*
X146798809Y-85684819D02*
X146703571Y-85827676D01*
X146703571Y-85827676D02*
X146608333Y-85922914D01*
X146608333Y-85922914D02*
X146513095Y-85970533D01*
X147417857Y-85684819D02*
X148036904Y-85684819D01*
X148036904Y-85684819D02*
X147703571Y-86065771D01*
X147703571Y-86065771D02*
X147846428Y-86065771D01*
X147846428Y-86065771D02*
X147941666Y-86113390D01*
X147941666Y-86113390D02*
X147989285Y-86161009D01*
X147989285Y-86161009D02*
X148036904Y-86256247D01*
X148036904Y-86256247D02*
X148036904Y-86494342D01*
X148036904Y-86494342D02*
X147989285Y-86589580D01*
X147989285Y-86589580D02*
X147941666Y-86637200D01*
X147941666Y-86637200D02*
X147846428Y-86684819D01*
X147846428Y-86684819D02*
X147560714Y-86684819D01*
X147560714Y-86684819D02*
X147465476Y-86637200D01*
X147465476Y-86637200D02*
X147417857Y-86589580D01*
X139933333Y-101954819D02*
X139600000Y-101478628D01*
X139361905Y-101954819D02*
X139361905Y-100954819D01*
X139361905Y-100954819D02*
X139742857Y-100954819D01*
X139742857Y-100954819D02*
X139838095Y-101002438D01*
X139838095Y-101002438D02*
X139885714Y-101050057D01*
X139885714Y-101050057D02*
X139933333Y-101145295D01*
X139933333Y-101145295D02*
X139933333Y-101288152D01*
X139933333Y-101288152D02*
X139885714Y-101383390D01*
X139885714Y-101383390D02*
X139838095Y-101431009D01*
X139838095Y-101431009D02*
X139742857Y-101478628D01*
X139742857Y-101478628D02*
X139361905Y-101478628D01*
X140885714Y-101954819D02*
X140314286Y-101954819D01*
X140600000Y-101954819D02*
X140600000Y-100954819D01*
X140600000Y-100954819D02*
X140504762Y-101097676D01*
X140504762Y-101097676D02*
X140409524Y-101192914D01*
X140409524Y-101192914D02*
X140314286Y-101240533D01*
X147454819Y-111852381D02*
X146978628Y-112185714D01*
X147454819Y-112423809D02*
X146454819Y-112423809D01*
X146454819Y-112423809D02*
X146454819Y-112042857D01*
X146454819Y-112042857D02*
X146502438Y-111947619D01*
X146502438Y-111947619D02*
X146550057Y-111900000D01*
X146550057Y-111900000D02*
X146645295Y-111852381D01*
X146645295Y-111852381D02*
X146788152Y-111852381D01*
X146788152Y-111852381D02*
X146883390Y-111900000D01*
X146883390Y-111900000D02*
X146931009Y-111947619D01*
X146931009Y-111947619D02*
X146978628Y-112042857D01*
X146978628Y-112042857D02*
X146978628Y-112423809D01*
X146931009Y-111423809D02*
X146931009Y-111090476D01*
X147454819Y-110947619D02*
X147454819Y-111423809D01*
X147454819Y-111423809D02*
X146454819Y-111423809D01*
X146454819Y-111423809D02*
X146454819Y-110947619D01*
X147407200Y-110566666D02*
X147454819Y-110423809D01*
X147454819Y-110423809D02*
X147454819Y-110185714D01*
X147454819Y-110185714D02*
X147407200Y-110090476D01*
X147407200Y-110090476D02*
X147359580Y-110042857D01*
X147359580Y-110042857D02*
X147264342Y-109995238D01*
X147264342Y-109995238D02*
X147169104Y-109995238D01*
X147169104Y-109995238D02*
X147073866Y-110042857D01*
X147073866Y-110042857D02*
X147026247Y-110090476D01*
X147026247Y-110090476D02*
X146978628Y-110185714D01*
X146978628Y-110185714D02*
X146931009Y-110376190D01*
X146931009Y-110376190D02*
X146883390Y-110471428D01*
X146883390Y-110471428D02*
X146835771Y-110519047D01*
X146835771Y-110519047D02*
X146740533Y-110566666D01*
X146740533Y-110566666D02*
X146645295Y-110566666D01*
X146645295Y-110566666D02*
X146550057Y-110519047D01*
X146550057Y-110519047D02*
X146502438Y-110471428D01*
X146502438Y-110471428D02*
X146454819Y-110376190D01*
X146454819Y-110376190D02*
X146454819Y-110138095D01*
X146454819Y-110138095D02*
X146502438Y-109995238D01*
X146931009Y-109566666D02*
X146931009Y-109233333D01*
X147454819Y-109090476D02*
X147454819Y-109566666D01*
X147454819Y-109566666D02*
X146454819Y-109566666D01*
X146454819Y-109566666D02*
X146454819Y-109090476D01*
X146454819Y-108804761D02*
X146454819Y-108233333D01*
X147454819Y-108519047D02*
X146454819Y-108519047D01*
X144859580Y-90642857D02*
X144907200Y-90690476D01*
X144907200Y-90690476D02*
X144954819Y-90833333D01*
X144954819Y-90833333D02*
X144954819Y-90928571D01*
X144954819Y-90928571D02*
X144907200Y-91071428D01*
X144907200Y-91071428D02*
X144811961Y-91166666D01*
X144811961Y-91166666D02*
X144716723Y-91214285D01*
X144716723Y-91214285D02*
X144526247Y-91261904D01*
X144526247Y-91261904D02*
X144383390Y-91261904D01*
X144383390Y-91261904D02*
X144192914Y-91214285D01*
X144192914Y-91214285D02*
X144097676Y-91166666D01*
X144097676Y-91166666D02*
X144002438Y-91071428D01*
X144002438Y-91071428D02*
X143954819Y-90928571D01*
X143954819Y-90928571D02*
X143954819Y-90833333D01*
X143954819Y-90833333D02*
X144002438Y-90690476D01*
X144002438Y-90690476D02*
X144050057Y-90642857D01*
X144954819Y-89690476D02*
X144954819Y-90261904D01*
X144954819Y-89976190D02*
X143954819Y-89976190D01*
X143954819Y-89976190D02*
X144097676Y-90071428D01*
X144097676Y-90071428D02*
X144192914Y-90166666D01*
X144192914Y-90166666D02*
X144240533Y-90261904D01*
X143954819Y-88785714D02*
X143954819Y-89261904D01*
X143954819Y-89261904D02*
X144431009Y-89309523D01*
X144431009Y-89309523D02*
X144383390Y-89261904D01*
X144383390Y-89261904D02*
X144335771Y-89166666D01*
X144335771Y-89166666D02*
X144335771Y-88928571D01*
X144335771Y-88928571D02*
X144383390Y-88833333D01*
X144383390Y-88833333D02*
X144431009Y-88785714D01*
X144431009Y-88785714D02*
X144526247Y-88738095D01*
X144526247Y-88738095D02*
X144764342Y-88738095D01*
X144764342Y-88738095D02*
X144859580Y-88785714D01*
X144859580Y-88785714D02*
X144907200Y-88833333D01*
X144907200Y-88833333D02*
X144954819Y-88928571D01*
X144954819Y-88928571D02*
X144954819Y-89166666D01*
X144954819Y-89166666D02*
X144907200Y-89261904D01*
X144907200Y-89261904D02*
X144859580Y-89309523D01*
X161538095Y-96049819D02*
X161538095Y-96859342D01*
X161538095Y-96859342D02*
X161585714Y-96954580D01*
X161585714Y-96954580D02*
X161633333Y-97002200D01*
X161633333Y-97002200D02*
X161728571Y-97049819D01*
X161728571Y-97049819D02*
X161919047Y-97049819D01*
X161919047Y-97049819D02*
X162014285Y-97002200D01*
X162014285Y-97002200D02*
X162061904Y-96954580D01*
X162061904Y-96954580D02*
X162109523Y-96859342D01*
X162109523Y-96859342D02*
X162109523Y-96049819D01*
X162490476Y-96049819D02*
X163109523Y-96049819D01*
X163109523Y-96049819D02*
X162776190Y-96430771D01*
X162776190Y-96430771D02*
X162919047Y-96430771D01*
X162919047Y-96430771D02*
X163014285Y-96478390D01*
X163014285Y-96478390D02*
X163061904Y-96526009D01*
X163061904Y-96526009D02*
X163109523Y-96621247D01*
X163109523Y-96621247D02*
X163109523Y-96859342D01*
X163109523Y-96859342D02*
X163061904Y-96954580D01*
X163061904Y-96954580D02*
X163014285Y-97002200D01*
X163014285Y-97002200D02*
X162919047Y-97049819D01*
X162919047Y-97049819D02*
X162633333Y-97049819D01*
X162633333Y-97049819D02*
X162538095Y-97002200D01*
X162538095Y-97002200D02*
X162490476Y-96954580D01*
X171754819Y-107375594D02*
X170754819Y-107375594D01*
X170754819Y-107375594D02*
X170754819Y-107137499D01*
X170754819Y-107137499D02*
X170802438Y-106994642D01*
X170802438Y-106994642D02*
X170897676Y-106899404D01*
X170897676Y-106899404D02*
X170992914Y-106851785D01*
X170992914Y-106851785D02*
X171183390Y-106804166D01*
X171183390Y-106804166D02*
X171326247Y-106804166D01*
X171326247Y-106804166D02*
X171516723Y-106851785D01*
X171516723Y-106851785D02*
X171611961Y-106899404D01*
X171611961Y-106899404D02*
X171707200Y-106994642D01*
X171707200Y-106994642D02*
X171754819Y-107137499D01*
X171754819Y-107137499D02*
X171754819Y-107375594D01*
X171754819Y-105851785D02*
X171754819Y-106423213D01*
X171754819Y-106137499D02*
X170754819Y-106137499D01*
X170754819Y-106137499D02*
X170897676Y-106232737D01*
X170897676Y-106232737D02*
X170992914Y-106327975D01*
X170992914Y-106327975D02*
X171040533Y-106423213D01*
X137209580Y-93442857D02*
X137257200Y-93490476D01*
X137257200Y-93490476D02*
X137304819Y-93633333D01*
X137304819Y-93633333D02*
X137304819Y-93728571D01*
X137304819Y-93728571D02*
X137257200Y-93871428D01*
X137257200Y-93871428D02*
X137161961Y-93966666D01*
X137161961Y-93966666D02*
X137066723Y-94014285D01*
X137066723Y-94014285D02*
X136876247Y-94061904D01*
X136876247Y-94061904D02*
X136733390Y-94061904D01*
X136733390Y-94061904D02*
X136542914Y-94014285D01*
X136542914Y-94014285D02*
X136447676Y-93966666D01*
X136447676Y-93966666D02*
X136352438Y-93871428D01*
X136352438Y-93871428D02*
X136304819Y-93728571D01*
X136304819Y-93728571D02*
X136304819Y-93633333D01*
X136304819Y-93633333D02*
X136352438Y-93490476D01*
X136352438Y-93490476D02*
X136400057Y-93442857D01*
X137304819Y-92490476D02*
X137304819Y-93061904D01*
X137304819Y-92776190D02*
X136304819Y-92776190D01*
X136304819Y-92776190D02*
X136447676Y-92871428D01*
X136447676Y-92871428D02*
X136542914Y-92966666D01*
X136542914Y-92966666D02*
X136590533Y-93061904D01*
X136304819Y-92157142D02*
X136304819Y-91490476D01*
X136304819Y-91490476D02*
X137304819Y-91919047D01*
X161957142Y-105324819D02*
X161623809Y-104848628D01*
X161385714Y-105324819D02*
X161385714Y-104324819D01*
X161385714Y-104324819D02*
X161766666Y-104324819D01*
X161766666Y-104324819D02*
X161861904Y-104372438D01*
X161861904Y-104372438D02*
X161909523Y-104420057D01*
X161909523Y-104420057D02*
X161957142Y-104515295D01*
X161957142Y-104515295D02*
X161957142Y-104658152D01*
X161957142Y-104658152D02*
X161909523Y-104753390D01*
X161909523Y-104753390D02*
X161861904Y-104801009D01*
X161861904Y-104801009D02*
X161766666Y-104848628D01*
X161766666Y-104848628D02*
X161385714Y-104848628D01*
X162909523Y-105324819D02*
X162338095Y-105324819D01*
X162623809Y-105324819D02*
X162623809Y-104324819D01*
X162623809Y-104324819D02*
X162528571Y-104467676D01*
X162528571Y-104467676D02*
X162433333Y-104562914D01*
X162433333Y-104562914D02*
X162338095Y-104610533D01*
X163242857Y-104324819D02*
X163861904Y-104324819D01*
X163861904Y-104324819D02*
X163528571Y-104705771D01*
X163528571Y-104705771D02*
X163671428Y-104705771D01*
X163671428Y-104705771D02*
X163766666Y-104753390D01*
X163766666Y-104753390D02*
X163814285Y-104801009D01*
X163814285Y-104801009D02*
X163861904Y-104896247D01*
X163861904Y-104896247D02*
X163861904Y-105134342D01*
X163861904Y-105134342D02*
X163814285Y-105229580D01*
X163814285Y-105229580D02*
X163766666Y-105277200D01*
X163766666Y-105277200D02*
X163671428Y-105324819D01*
X163671428Y-105324819D02*
X163385714Y-105324819D01*
X163385714Y-105324819D02*
X163290476Y-105277200D01*
X163290476Y-105277200D02*
X163242857Y-105229580D01*
X151759580Y-76842857D02*
X151807200Y-76890476D01*
X151807200Y-76890476D02*
X151854819Y-77033333D01*
X151854819Y-77033333D02*
X151854819Y-77128571D01*
X151854819Y-77128571D02*
X151807200Y-77271428D01*
X151807200Y-77271428D02*
X151711961Y-77366666D01*
X151711961Y-77366666D02*
X151616723Y-77414285D01*
X151616723Y-77414285D02*
X151426247Y-77461904D01*
X151426247Y-77461904D02*
X151283390Y-77461904D01*
X151283390Y-77461904D02*
X151092914Y-77414285D01*
X151092914Y-77414285D02*
X150997676Y-77366666D01*
X150997676Y-77366666D02*
X150902438Y-77271428D01*
X150902438Y-77271428D02*
X150854819Y-77128571D01*
X150854819Y-77128571D02*
X150854819Y-77033333D01*
X150854819Y-77033333D02*
X150902438Y-76890476D01*
X150902438Y-76890476D02*
X150950057Y-76842857D01*
X151854819Y-75890476D02*
X151854819Y-76461904D01*
X151854819Y-76176190D02*
X150854819Y-76176190D01*
X150854819Y-76176190D02*
X150997676Y-76271428D01*
X150997676Y-76271428D02*
X151092914Y-76366666D01*
X151092914Y-76366666D02*
X151140533Y-76461904D01*
X150854819Y-75033333D02*
X150854819Y-75223809D01*
X150854819Y-75223809D02*
X150902438Y-75319047D01*
X150902438Y-75319047D02*
X150950057Y-75366666D01*
X150950057Y-75366666D02*
X151092914Y-75461904D01*
X151092914Y-75461904D02*
X151283390Y-75509523D01*
X151283390Y-75509523D02*
X151664342Y-75509523D01*
X151664342Y-75509523D02*
X151759580Y-75461904D01*
X151759580Y-75461904D02*
X151807200Y-75414285D01*
X151807200Y-75414285D02*
X151854819Y-75319047D01*
X151854819Y-75319047D02*
X151854819Y-75128571D01*
X151854819Y-75128571D02*
X151807200Y-75033333D01*
X151807200Y-75033333D02*
X151759580Y-74985714D01*
X151759580Y-74985714D02*
X151664342Y-74938095D01*
X151664342Y-74938095D02*
X151426247Y-74938095D01*
X151426247Y-74938095D02*
X151331009Y-74985714D01*
X151331009Y-74985714D02*
X151283390Y-75033333D01*
X151283390Y-75033333D02*
X151235771Y-75128571D01*
X151235771Y-75128571D02*
X151235771Y-75319047D01*
X151235771Y-75319047D02*
X151283390Y-75414285D01*
X151283390Y-75414285D02*
X151331009Y-75461904D01*
X151331009Y-75461904D02*
X151426247Y-75509523D01*
X120190476Y-80931009D02*
X120333333Y-80978628D01*
X120333333Y-80978628D02*
X120380952Y-81026247D01*
X120380952Y-81026247D02*
X120428571Y-81121485D01*
X120428571Y-81121485D02*
X120428571Y-81264342D01*
X120428571Y-81264342D02*
X120380952Y-81359580D01*
X120380952Y-81359580D02*
X120333333Y-81407200D01*
X120333333Y-81407200D02*
X120238095Y-81454819D01*
X120238095Y-81454819D02*
X119857143Y-81454819D01*
X119857143Y-81454819D02*
X119857143Y-80454819D01*
X119857143Y-80454819D02*
X120190476Y-80454819D01*
X120190476Y-80454819D02*
X120285714Y-80502438D01*
X120285714Y-80502438D02*
X120333333Y-80550057D01*
X120333333Y-80550057D02*
X120380952Y-80645295D01*
X120380952Y-80645295D02*
X120380952Y-80740533D01*
X120380952Y-80740533D02*
X120333333Y-80835771D01*
X120333333Y-80835771D02*
X120285714Y-80883390D01*
X120285714Y-80883390D02*
X120190476Y-80931009D01*
X120190476Y-80931009D02*
X119857143Y-80931009D01*
X120714286Y-80454819D02*
X121285714Y-80454819D01*
X121000000Y-81454819D02*
X121000000Y-80454819D01*
X121619048Y-81454819D02*
X121619048Y-80454819D01*
X121619048Y-80454819D02*
X122190476Y-81454819D01*
X122190476Y-81454819D02*
X122190476Y-80454819D01*
X122571429Y-80454819D02*
X123190476Y-80454819D01*
X123190476Y-80454819D02*
X122857143Y-80835771D01*
X122857143Y-80835771D02*
X123000000Y-80835771D01*
X123000000Y-80835771D02*
X123095238Y-80883390D01*
X123095238Y-80883390D02*
X123142857Y-80931009D01*
X123142857Y-80931009D02*
X123190476Y-81026247D01*
X123190476Y-81026247D02*
X123190476Y-81264342D01*
X123190476Y-81264342D02*
X123142857Y-81359580D01*
X123142857Y-81359580D02*
X123095238Y-81407200D01*
X123095238Y-81407200D02*
X123000000Y-81454819D01*
X123000000Y-81454819D02*
X122714286Y-81454819D01*
X122714286Y-81454819D02*
X122619048Y-81407200D01*
X122619048Y-81407200D02*
X122571429Y-81359580D01*
X144759580Y-87742857D02*
X144807200Y-87790476D01*
X144807200Y-87790476D02*
X144854819Y-87933333D01*
X144854819Y-87933333D02*
X144854819Y-88028571D01*
X144854819Y-88028571D02*
X144807200Y-88171428D01*
X144807200Y-88171428D02*
X144711961Y-88266666D01*
X144711961Y-88266666D02*
X144616723Y-88314285D01*
X144616723Y-88314285D02*
X144426247Y-88361904D01*
X144426247Y-88361904D02*
X144283390Y-88361904D01*
X144283390Y-88361904D02*
X144092914Y-88314285D01*
X144092914Y-88314285D02*
X143997676Y-88266666D01*
X143997676Y-88266666D02*
X143902438Y-88171428D01*
X143902438Y-88171428D02*
X143854819Y-88028571D01*
X143854819Y-88028571D02*
X143854819Y-87933333D01*
X143854819Y-87933333D02*
X143902438Y-87790476D01*
X143902438Y-87790476D02*
X143950057Y-87742857D01*
X144854819Y-86790476D02*
X144854819Y-87361904D01*
X144854819Y-87076190D02*
X143854819Y-87076190D01*
X143854819Y-87076190D02*
X143997676Y-87171428D01*
X143997676Y-87171428D02*
X144092914Y-87266666D01*
X144092914Y-87266666D02*
X144140533Y-87361904D01*
X144188152Y-85933333D02*
X144854819Y-85933333D01*
X143807200Y-86171428D02*
X144521485Y-86409523D01*
X144521485Y-86409523D02*
X144521485Y-85790476D01*
X146754819Y-78938094D02*
X145754819Y-78938094D01*
X145754819Y-78938094D02*
X145754819Y-78699999D01*
X145754819Y-78699999D02*
X145802438Y-78557142D01*
X145802438Y-78557142D02*
X145897676Y-78461904D01*
X145897676Y-78461904D02*
X145992914Y-78414285D01*
X145992914Y-78414285D02*
X146183390Y-78366666D01*
X146183390Y-78366666D02*
X146326247Y-78366666D01*
X146326247Y-78366666D02*
X146516723Y-78414285D01*
X146516723Y-78414285D02*
X146611961Y-78461904D01*
X146611961Y-78461904D02*
X146707200Y-78557142D01*
X146707200Y-78557142D02*
X146754819Y-78699999D01*
X146754819Y-78699999D02*
X146754819Y-78938094D01*
X145850057Y-77985713D02*
X145802438Y-77938094D01*
X145802438Y-77938094D02*
X145754819Y-77842856D01*
X145754819Y-77842856D02*
X145754819Y-77604761D01*
X145754819Y-77604761D02*
X145802438Y-77509523D01*
X145802438Y-77509523D02*
X145850057Y-77461904D01*
X145850057Y-77461904D02*
X145945295Y-77414285D01*
X145945295Y-77414285D02*
X146040533Y-77414285D01*
X146040533Y-77414285D02*
X146183390Y-77461904D01*
X146183390Y-77461904D02*
X146754819Y-78033332D01*
X146754819Y-78033332D02*
X146754819Y-77414285D01*
X119990476Y-106271009D02*
X120133333Y-106318628D01*
X120133333Y-106318628D02*
X120180952Y-106366247D01*
X120180952Y-106366247D02*
X120228571Y-106461485D01*
X120228571Y-106461485D02*
X120228571Y-106604342D01*
X120228571Y-106604342D02*
X120180952Y-106699580D01*
X120180952Y-106699580D02*
X120133333Y-106747200D01*
X120133333Y-106747200D02*
X120038095Y-106794819D01*
X120038095Y-106794819D02*
X119657143Y-106794819D01*
X119657143Y-106794819D02*
X119657143Y-105794819D01*
X119657143Y-105794819D02*
X119990476Y-105794819D01*
X119990476Y-105794819D02*
X120085714Y-105842438D01*
X120085714Y-105842438D02*
X120133333Y-105890057D01*
X120133333Y-105890057D02*
X120180952Y-105985295D01*
X120180952Y-105985295D02*
X120180952Y-106080533D01*
X120180952Y-106080533D02*
X120133333Y-106175771D01*
X120133333Y-106175771D02*
X120085714Y-106223390D01*
X120085714Y-106223390D02*
X119990476Y-106271009D01*
X119990476Y-106271009D02*
X119657143Y-106271009D01*
X120514286Y-105794819D02*
X121085714Y-105794819D01*
X120800000Y-106794819D02*
X120800000Y-105794819D01*
X121419048Y-106794819D02*
X121419048Y-105794819D01*
X121419048Y-105794819D02*
X121990476Y-106794819D01*
X121990476Y-106794819D02*
X121990476Y-105794819D01*
X122419048Y-105890057D02*
X122466667Y-105842438D01*
X122466667Y-105842438D02*
X122561905Y-105794819D01*
X122561905Y-105794819D02*
X122800000Y-105794819D01*
X122800000Y-105794819D02*
X122895238Y-105842438D01*
X122895238Y-105842438D02*
X122942857Y-105890057D01*
X122942857Y-105890057D02*
X122990476Y-105985295D01*
X122990476Y-105985295D02*
X122990476Y-106080533D01*
X122990476Y-106080533D02*
X122942857Y-106223390D01*
X122942857Y-106223390D02*
X122371429Y-106794819D01*
X122371429Y-106794819D02*
X122990476Y-106794819D01*
X168104761Y-75850057D02*
X168009523Y-75802438D01*
X168009523Y-75802438D02*
X167914285Y-75707200D01*
X167914285Y-75707200D02*
X167771428Y-75564342D01*
X167771428Y-75564342D02*
X167676190Y-75516723D01*
X167676190Y-75516723D02*
X167580952Y-75516723D01*
X167628571Y-75754819D02*
X167533333Y-75707200D01*
X167533333Y-75707200D02*
X167438095Y-75611961D01*
X167438095Y-75611961D02*
X167390476Y-75421485D01*
X167390476Y-75421485D02*
X167390476Y-75088152D01*
X167390476Y-75088152D02*
X167438095Y-74897676D01*
X167438095Y-74897676D02*
X167533333Y-74802438D01*
X167533333Y-74802438D02*
X167628571Y-74754819D01*
X167628571Y-74754819D02*
X167819047Y-74754819D01*
X167819047Y-74754819D02*
X167914285Y-74802438D01*
X167914285Y-74802438D02*
X168009523Y-74897676D01*
X168009523Y-74897676D02*
X168057142Y-75088152D01*
X168057142Y-75088152D02*
X168057142Y-75421485D01*
X168057142Y-75421485D02*
X168009523Y-75611961D01*
X168009523Y-75611961D02*
X167914285Y-75707200D01*
X167914285Y-75707200D02*
X167819047Y-75754819D01*
X167819047Y-75754819D02*
X167628571Y-75754819D01*
X168914285Y-75088152D02*
X168914285Y-75754819D01*
X168676190Y-74707200D02*
X168438095Y-75421485D01*
X168438095Y-75421485D02*
X169057142Y-75421485D01*
X155008333Y-97089580D02*
X154960714Y-97137200D01*
X154960714Y-97137200D02*
X154817857Y-97184819D01*
X154817857Y-97184819D02*
X154722619Y-97184819D01*
X154722619Y-97184819D02*
X154579762Y-97137200D01*
X154579762Y-97137200D02*
X154484524Y-97041961D01*
X154484524Y-97041961D02*
X154436905Y-96946723D01*
X154436905Y-96946723D02*
X154389286Y-96756247D01*
X154389286Y-96756247D02*
X154389286Y-96613390D01*
X154389286Y-96613390D02*
X154436905Y-96422914D01*
X154436905Y-96422914D02*
X154484524Y-96327676D01*
X154484524Y-96327676D02*
X154579762Y-96232438D01*
X154579762Y-96232438D02*
X154722619Y-96184819D01*
X154722619Y-96184819D02*
X154817857Y-96184819D01*
X154817857Y-96184819D02*
X154960714Y-96232438D01*
X154960714Y-96232438D02*
X155008333Y-96280057D01*
X155341667Y-96184819D02*
X156008333Y-96184819D01*
X156008333Y-96184819D02*
X155579762Y-97184819D01*
X161033333Y-80359580D02*
X160985714Y-80407200D01*
X160985714Y-80407200D02*
X160842857Y-80454819D01*
X160842857Y-80454819D02*
X160747619Y-80454819D01*
X160747619Y-80454819D02*
X160604762Y-80407200D01*
X160604762Y-80407200D02*
X160509524Y-80311961D01*
X160509524Y-80311961D02*
X160461905Y-80216723D01*
X160461905Y-80216723D02*
X160414286Y-80026247D01*
X160414286Y-80026247D02*
X160414286Y-79883390D01*
X160414286Y-79883390D02*
X160461905Y-79692914D01*
X160461905Y-79692914D02*
X160509524Y-79597676D01*
X160509524Y-79597676D02*
X160604762Y-79502438D01*
X160604762Y-79502438D02*
X160747619Y-79454819D01*
X160747619Y-79454819D02*
X160842857Y-79454819D01*
X160842857Y-79454819D02*
X160985714Y-79502438D01*
X160985714Y-79502438D02*
X161033333Y-79550057D01*
X161890476Y-79788152D02*
X161890476Y-80454819D01*
X161652381Y-79407200D02*
X161414286Y-80121485D01*
X161414286Y-80121485D02*
X162033333Y-80121485D01*
X158857142Y-82359580D02*
X158809523Y-82407200D01*
X158809523Y-82407200D02*
X158666666Y-82454819D01*
X158666666Y-82454819D02*
X158571428Y-82454819D01*
X158571428Y-82454819D02*
X158428571Y-82407200D01*
X158428571Y-82407200D02*
X158333333Y-82311961D01*
X158333333Y-82311961D02*
X158285714Y-82216723D01*
X158285714Y-82216723D02*
X158238095Y-82026247D01*
X158238095Y-82026247D02*
X158238095Y-81883390D01*
X158238095Y-81883390D02*
X158285714Y-81692914D01*
X158285714Y-81692914D02*
X158333333Y-81597676D01*
X158333333Y-81597676D02*
X158428571Y-81502438D01*
X158428571Y-81502438D02*
X158571428Y-81454819D01*
X158571428Y-81454819D02*
X158666666Y-81454819D01*
X158666666Y-81454819D02*
X158809523Y-81502438D01*
X158809523Y-81502438D02*
X158857142Y-81550057D01*
X159809523Y-82454819D02*
X159238095Y-82454819D01*
X159523809Y-82454819D02*
X159523809Y-81454819D01*
X159523809Y-81454819D02*
X159428571Y-81597676D01*
X159428571Y-81597676D02*
X159333333Y-81692914D01*
X159333333Y-81692914D02*
X159238095Y-81740533D01*
X160761904Y-82454819D02*
X160190476Y-82454819D01*
X160476190Y-82454819D02*
X160476190Y-81454819D01*
X160476190Y-81454819D02*
X160380952Y-81597676D01*
X160380952Y-81597676D02*
X160285714Y-81692914D01*
X160285714Y-81692914D02*
X160190476Y-81740533D01*
X128929819Y-78642857D02*
X128453628Y-78976190D01*
X128929819Y-79214285D02*
X127929819Y-79214285D01*
X127929819Y-79214285D02*
X127929819Y-78833333D01*
X127929819Y-78833333D02*
X127977438Y-78738095D01*
X127977438Y-78738095D02*
X128025057Y-78690476D01*
X128025057Y-78690476D02*
X128120295Y-78642857D01*
X128120295Y-78642857D02*
X128263152Y-78642857D01*
X128263152Y-78642857D02*
X128358390Y-78690476D01*
X128358390Y-78690476D02*
X128406009Y-78738095D01*
X128406009Y-78738095D02*
X128453628Y-78833333D01*
X128453628Y-78833333D02*
X128453628Y-79214285D01*
X128929819Y-77690476D02*
X128929819Y-78261904D01*
X128929819Y-77976190D02*
X127929819Y-77976190D01*
X127929819Y-77976190D02*
X128072676Y-78071428D01*
X128072676Y-78071428D02*
X128167914Y-78166666D01*
X128167914Y-78166666D02*
X128215533Y-78261904D01*
X127929819Y-76833333D02*
X127929819Y-77023809D01*
X127929819Y-77023809D02*
X127977438Y-77119047D01*
X127977438Y-77119047D02*
X128025057Y-77166666D01*
X128025057Y-77166666D02*
X128167914Y-77261904D01*
X128167914Y-77261904D02*
X128358390Y-77309523D01*
X128358390Y-77309523D02*
X128739342Y-77309523D01*
X128739342Y-77309523D02*
X128834580Y-77261904D01*
X128834580Y-77261904D02*
X128882200Y-77214285D01*
X128882200Y-77214285D02*
X128929819Y-77119047D01*
X128929819Y-77119047D02*
X128929819Y-76928571D01*
X128929819Y-76928571D02*
X128882200Y-76833333D01*
X128882200Y-76833333D02*
X128834580Y-76785714D01*
X128834580Y-76785714D02*
X128739342Y-76738095D01*
X128739342Y-76738095D02*
X128501247Y-76738095D01*
X128501247Y-76738095D02*
X128406009Y-76785714D01*
X128406009Y-76785714D02*
X128358390Y-76833333D01*
X128358390Y-76833333D02*
X128310771Y-76928571D01*
X128310771Y-76928571D02*
X128310771Y-77119047D01*
X128310771Y-77119047D02*
X128358390Y-77214285D01*
X128358390Y-77214285D02*
X128406009Y-77261904D01*
X128406009Y-77261904D02*
X128501247Y-77309523D01*
X161757142Y-88859580D02*
X161709523Y-88907200D01*
X161709523Y-88907200D02*
X161566666Y-88954819D01*
X161566666Y-88954819D02*
X161471428Y-88954819D01*
X161471428Y-88954819D02*
X161328571Y-88907200D01*
X161328571Y-88907200D02*
X161233333Y-88811961D01*
X161233333Y-88811961D02*
X161185714Y-88716723D01*
X161185714Y-88716723D02*
X161138095Y-88526247D01*
X161138095Y-88526247D02*
X161138095Y-88383390D01*
X161138095Y-88383390D02*
X161185714Y-88192914D01*
X161185714Y-88192914D02*
X161233333Y-88097676D01*
X161233333Y-88097676D02*
X161328571Y-88002438D01*
X161328571Y-88002438D02*
X161471428Y-87954819D01*
X161471428Y-87954819D02*
X161566666Y-87954819D01*
X161566666Y-87954819D02*
X161709523Y-88002438D01*
X161709523Y-88002438D02*
X161757142Y-88050057D01*
X162709523Y-88954819D02*
X162138095Y-88954819D01*
X162423809Y-88954819D02*
X162423809Y-87954819D01*
X162423809Y-87954819D02*
X162328571Y-88097676D01*
X162328571Y-88097676D02*
X162233333Y-88192914D01*
X162233333Y-88192914D02*
X162138095Y-88240533D01*
X163328571Y-87954819D02*
X163423809Y-87954819D01*
X163423809Y-87954819D02*
X163519047Y-88002438D01*
X163519047Y-88002438D02*
X163566666Y-88050057D01*
X163566666Y-88050057D02*
X163614285Y-88145295D01*
X163614285Y-88145295D02*
X163661904Y-88335771D01*
X163661904Y-88335771D02*
X163661904Y-88573866D01*
X163661904Y-88573866D02*
X163614285Y-88764342D01*
X163614285Y-88764342D02*
X163566666Y-88859580D01*
X163566666Y-88859580D02*
X163519047Y-88907200D01*
X163519047Y-88907200D02*
X163423809Y-88954819D01*
X163423809Y-88954819D02*
X163328571Y-88954819D01*
X163328571Y-88954819D02*
X163233333Y-88907200D01*
X163233333Y-88907200D02*
X163185714Y-88859580D01*
X163185714Y-88859580D02*
X163138095Y-88764342D01*
X163138095Y-88764342D02*
X163090476Y-88573866D01*
X163090476Y-88573866D02*
X163090476Y-88335771D01*
X163090476Y-88335771D02*
X163138095Y-88145295D01*
X163138095Y-88145295D02*
X163185714Y-88050057D01*
X163185714Y-88050057D02*
X163233333Y-88002438D01*
X163233333Y-88002438D02*
X163328571Y-87954819D01*
X160778628Y-76876190D02*
X161254819Y-76876190D01*
X160254819Y-77209523D02*
X160778628Y-76876190D01*
X160778628Y-76876190D02*
X160254819Y-76542857D01*
X161254819Y-75685714D02*
X161254819Y-76257142D01*
X161254819Y-75971428D02*
X160254819Y-75971428D01*
X160254819Y-75971428D02*
X160397676Y-76066666D01*
X160397676Y-76066666D02*
X160492914Y-76161904D01*
X160492914Y-76161904D02*
X160540533Y-76257142D01*
X156059580Y-102666666D02*
X156107200Y-102714285D01*
X156107200Y-102714285D02*
X156154819Y-102857142D01*
X156154819Y-102857142D02*
X156154819Y-102952380D01*
X156154819Y-102952380D02*
X156107200Y-103095237D01*
X156107200Y-103095237D02*
X156011961Y-103190475D01*
X156011961Y-103190475D02*
X155916723Y-103238094D01*
X155916723Y-103238094D02*
X155726247Y-103285713D01*
X155726247Y-103285713D02*
X155583390Y-103285713D01*
X155583390Y-103285713D02*
X155392914Y-103238094D01*
X155392914Y-103238094D02*
X155297676Y-103190475D01*
X155297676Y-103190475D02*
X155202438Y-103095237D01*
X155202438Y-103095237D02*
X155154819Y-102952380D01*
X155154819Y-102952380D02*
X155154819Y-102857142D01*
X155154819Y-102857142D02*
X155202438Y-102714285D01*
X155202438Y-102714285D02*
X155250057Y-102666666D01*
X155154819Y-102333332D02*
X155154819Y-101714285D01*
X155154819Y-101714285D02*
X155535771Y-102047618D01*
X155535771Y-102047618D02*
X155535771Y-101904761D01*
X155535771Y-101904761D02*
X155583390Y-101809523D01*
X155583390Y-101809523D02*
X155631009Y-101761904D01*
X155631009Y-101761904D02*
X155726247Y-101714285D01*
X155726247Y-101714285D02*
X155964342Y-101714285D01*
X155964342Y-101714285D02*
X156059580Y-101761904D01*
X156059580Y-101761904D02*
X156107200Y-101809523D01*
X156107200Y-101809523D02*
X156154819Y-101904761D01*
X156154819Y-101904761D02*
X156154819Y-102190475D01*
X156154819Y-102190475D02*
X156107200Y-102285713D01*
X156107200Y-102285713D02*
X156059580Y-102333332D01*
X142733333Y-103854819D02*
X142400000Y-103378628D01*
X142161905Y-103854819D02*
X142161905Y-102854819D01*
X142161905Y-102854819D02*
X142542857Y-102854819D01*
X142542857Y-102854819D02*
X142638095Y-102902438D01*
X142638095Y-102902438D02*
X142685714Y-102950057D01*
X142685714Y-102950057D02*
X142733333Y-103045295D01*
X142733333Y-103045295D02*
X142733333Y-103188152D01*
X142733333Y-103188152D02*
X142685714Y-103283390D01*
X142685714Y-103283390D02*
X142638095Y-103331009D01*
X142638095Y-103331009D02*
X142542857Y-103378628D01*
X142542857Y-103378628D02*
X142161905Y-103378628D01*
X143066667Y-102854819D02*
X143733333Y-102854819D01*
X143733333Y-102854819D02*
X143304762Y-103854819D01*
X134454819Y-93166666D02*
X133978628Y-93499999D01*
X134454819Y-93738094D02*
X133454819Y-93738094D01*
X133454819Y-93738094D02*
X133454819Y-93357142D01*
X133454819Y-93357142D02*
X133502438Y-93261904D01*
X133502438Y-93261904D02*
X133550057Y-93214285D01*
X133550057Y-93214285D02*
X133645295Y-93166666D01*
X133645295Y-93166666D02*
X133788152Y-93166666D01*
X133788152Y-93166666D02*
X133883390Y-93214285D01*
X133883390Y-93214285D02*
X133931009Y-93261904D01*
X133931009Y-93261904D02*
X133978628Y-93357142D01*
X133978628Y-93357142D02*
X133978628Y-93738094D01*
X133788152Y-92309523D02*
X134454819Y-92309523D01*
X133407200Y-92547618D02*
X134121485Y-92785713D01*
X134121485Y-92785713D02*
X134121485Y-92166666D01*
X128954819Y-111432857D02*
X128478628Y-111766190D01*
X128954819Y-112004285D02*
X127954819Y-112004285D01*
X127954819Y-112004285D02*
X127954819Y-111623333D01*
X127954819Y-111623333D02*
X128002438Y-111528095D01*
X128002438Y-111528095D02*
X128050057Y-111480476D01*
X128050057Y-111480476D02*
X128145295Y-111432857D01*
X128145295Y-111432857D02*
X128288152Y-111432857D01*
X128288152Y-111432857D02*
X128383390Y-111480476D01*
X128383390Y-111480476D02*
X128431009Y-111528095D01*
X128431009Y-111528095D02*
X128478628Y-111623333D01*
X128478628Y-111623333D02*
X128478628Y-112004285D01*
X128954819Y-110480476D02*
X128954819Y-111051904D01*
X128954819Y-110766190D02*
X127954819Y-110766190D01*
X127954819Y-110766190D02*
X128097676Y-110861428D01*
X128097676Y-110861428D02*
X128192914Y-110956666D01*
X128192914Y-110956666D02*
X128240533Y-111051904D01*
X127954819Y-110147142D02*
X127954819Y-109480476D01*
X127954819Y-109480476D02*
X128954819Y-109909047D01*
X156833333Y-81854819D02*
X156500000Y-81378628D01*
X156261905Y-81854819D02*
X156261905Y-80854819D01*
X156261905Y-80854819D02*
X156642857Y-80854819D01*
X156642857Y-80854819D02*
X156738095Y-80902438D01*
X156738095Y-80902438D02*
X156785714Y-80950057D01*
X156785714Y-80950057D02*
X156833333Y-81045295D01*
X156833333Y-81045295D02*
X156833333Y-81188152D01*
X156833333Y-81188152D02*
X156785714Y-81283390D01*
X156785714Y-81283390D02*
X156738095Y-81331009D01*
X156738095Y-81331009D02*
X156642857Y-81378628D01*
X156642857Y-81378628D02*
X156261905Y-81378628D01*
X157738095Y-80854819D02*
X157261905Y-80854819D01*
X157261905Y-80854819D02*
X157214286Y-81331009D01*
X157214286Y-81331009D02*
X157261905Y-81283390D01*
X157261905Y-81283390D02*
X157357143Y-81235771D01*
X157357143Y-81235771D02*
X157595238Y-81235771D01*
X157595238Y-81235771D02*
X157690476Y-81283390D01*
X157690476Y-81283390D02*
X157738095Y-81331009D01*
X157738095Y-81331009D02*
X157785714Y-81426247D01*
X157785714Y-81426247D02*
X157785714Y-81664342D01*
X157785714Y-81664342D02*
X157738095Y-81759580D01*
X157738095Y-81759580D02*
X157690476Y-81807200D01*
X157690476Y-81807200D02*
X157595238Y-81854819D01*
X157595238Y-81854819D02*
X157357143Y-81854819D01*
X157357143Y-81854819D02*
X157261905Y-81807200D01*
X157261905Y-81807200D02*
X157214286Y-81759580D01*
X148454819Y-78342857D02*
X147978628Y-78676190D01*
X148454819Y-78914285D02*
X147454819Y-78914285D01*
X147454819Y-78914285D02*
X147454819Y-78533333D01*
X147454819Y-78533333D02*
X147502438Y-78438095D01*
X147502438Y-78438095D02*
X147550057Y-78390476D01*
X147550057Y-78390476D02*
X147645295Y-78342857D01*
X147645295Y-78342857D02*
X147788152Y-78342857D01*
X147788152Y-78342857D02*
X147883390Y-78390476D01*
X147883390Y-78390476D02*
X147931009Y-78438095D01*
X147931009Y-78438095D02*
X147978628Y-78533333D01*
X147978628Y-78533333D02*
X147978628Y-78914285D01*
X147550057Y-77961904D02*
X147502438Y-77914285D01*
X147502438Y-77914285D02*
X147454819Y-77819047D01*
X147454819Y-77819047D02*
X147454819Y-77580952D01*
X147454819Y-77580952D02*
X147502438Y-77485714D01*
X147502438Y-77485714D02*
X147550057Y-77438095D01*
X147550057Y-77438095D02*
X147645295Y-77390476D01*
X147645295Y-77390476D02*
X147740533Y-77390476D01*
X147740533Y-77390476D02*
X147883390Y-77438095D01*
X147883390Y-77438095D02*
X148454819Y-78009523D01*
X148454819Y-78009523D02*
X148454819Y-77390476D01*
X147550057Y-77009523D02*
X147502438Y-76961904D01*
X147502438Y-76961904D02*
X147454819Y-76866666D01*
X147454819Y-76866666D02*
X147454819Y-76628571D01*
X147454819Y-76628571D02*
X147502438Y-76533333D01*
X147502438Y-76533333D02*
X147550057Y-76485714D01*
X147550057Y-76485714D02*
X147645295Y-76438095D01*
X147645295Y-76438095D02*
X147740533Y-76438095D01*
X147740533Y-76438095D02*
X147883390Y-76485714D01*
X147883390Y-76485714D02*
X148454819Y-77057142D01*
X148454819Y-77057142D02*
X148454819Y-76438095D01*
X131359580Y-93642857D02*
X131407200Y-93690476D01*
X131407200Y-93690476D02*
X131454819Y-93833333D01*
X131454819Y-93833333D02*
X131454819Y-93928571D01*
X131454819Y-93928571D02*
X131407200Y-94071428D01*
X131407200Y-94071428D02*
X131311961Y-94166666D01*
X131311961Y-94166666D02*
X131216723Y-94214285D01*
X131216723Y-94214285D02*
X131026247Y-94261904D01*
X131026247Y-94261904D02*
X130883390Y-94261904D01*
X130883390Y-94261904D02*
X130692914Y-94214285D01*
X130692914Y-94214285D02*
X130597676Y-94166666D01*
X130597676Y-94166666D02*
X130502438Y-94071428D01*
X130502438Y-94071428D02*
X130454819Y-93928571D01*
X130454819Y-93928571D02*
X130454819Y-93833333D01*
X130454819Y-93833333D02*
X130502438Y-93690476D01*
X130502438Y-93690476D02*
X130550057Y-93642857D01*
X131454819Y-92690476D02*
X131454819Y-93261904D01*
X131454819Y-92976190D02*
X130454819Y-92976190D01*
X130454819Y-92976190D02*
X130597676Y-93071428D01*
X130597676Y-93071428D02*
X130692914Y-93166666D01*
X130692914Y-93166666D02*
X130740533Y-93261904D01*
X130883390Y-92119047D02*
X130835771Y-92214285D01*
X130835771Y-92214285D02*
X130788152Y-92261904D01*
X130788152Y-92261904D02*
X130692914Y-92309523D01*
X130692914Y-92309523D02*
X130645295Y-92309523D01*
X130645295Y-92309523D02*
X130550057Y-92261904D01*
X130550057Y-92261904D02*
X130502438Y-92214285D01*
X130502438Y-92214285D02*
X130454819Y-92119047D01*
X130454819Y-92119047D02*
X130454819Y-91928571D01*
X130454819Y-91928571D02*
X130502438Y-91833333D01*
X130502438Y-91833333D02*
X130550057Y-91785714D01*
X130550057Y-91785714D02*
X130645295Y-91738095D01*
X130645295Y-91738095D02*
X130692914Y-91738095D01*
X130692914Y-91738095D02*
X130788152Y-91785714D01*
X130788152Y-91785714D02*
X130835771Y-91833333D01*
X130835771Y-91833333D02*
X130883390Y-91928571D01*
X130883390Y-91928571D02*
X130883390Y-92119047D01*
X130883390Y-92119047D02*
X130931009Y-92214285D01*
X130931009Y-92214285D02*
X130978628Y-92261904D01*
X130978628Y-92261904D02*
X131073866Y-92309523D01*
X131073866Y-92309523D02*
X131264342Y-92309523D01*
X131264342Y-92309523D02*
X131359580Y-92261904D01*
X131359580Y-92261904D02*
X131407200Y-92214285D01*
X131407200Y-92214285D02*
X131454819Y-92119047D01*
X131454819Y-92119047D02*
X131454819Y-91928571D01*
X131454819Y-91928571D02*
X131407200Y-91833333D01*
X131407200Y-91833333D02*
X131359580Y-91785714D01*
X131359580Y-91785714D02*
X131264342Y-91738095D01*
X131264342Y-91738095D02*
X131073866Y-91738095D01*
X131073866Y-91738095D02*
X130978628Y-91785714D01*
X130978628Y-91785714D02*
X130931009Y-91833333D01*
X130931009Y-91833333D02*
X130883390Y-91928571D01*
X136554819Y-100766666D02*
X136078628Y-101099999D01*
X136554819Y-101338094D02*
X135554819Y-101338094D01*
X135554819Y-101338094D02*
X135554819Y-100957142D01*
X135554819Y-100957142D02*
X135602438Y-100861904D01*
X135602438Y-100861904D02*
X135650057Y-100814285D01*
X135650057Y-100814285D02*
X135745295Y-100766666D01*
X135745295Y-100766666D02*
X135888152Y-100766666D01*
X135888152Y-100766666D02*
X135983390Y-100814285D01*
X135983390Y-100814285D02*
X136031009Y-100861904D01*
X136031009Y-100861904D02*
X136078628Y-100957142D01*
X136078628Y-100957142D02*
X136078628Y-101338094D01*
X136554819Y-100290475D02*
X136554819Y-100099999D01*
X136554819Y-100099999D02*
X136507200Y-100004761D01*
X136507200Y-100004761D02*
X136459580Y-99957142D01*
X136459580Y-99957142D02*
X136316723Y-99861904D01*
X136316723Y-99861904D02*
X136126247Y-99814285D01*
X136126247Y-99814285D02*
X135745295Y-99814285D01*
X135745295Y-99814285D02*
X135650057Y-99861904D01*
X135650057Y-99861904D02*
X135602438Y-99909523D01*
X135602438Y-99909523D02*
X135554819Y-100004761D01*
X135554819Y-100004761D02*
X135554819Y-100195237D01*
X135554819Y-100195237D02*
X135602438Y-100290475D01*
X135602438Y-100290475D02*
X135650057Y-100338094D01*
X135650057Y-100338094D02*
X135745295Y-100385713D01*
X135745295Y-100385713D02*
X135983390Y-100385713D01*
X135983390Y-100385713D02*
X136078628Y-100338094D01*
X136078628Y-100338094D02*
X136126247Y-100290475D01*
X136126247Y-100290475D02*
X136173866Y-100195237D01*
X136173866Y-100195237D02*
X136173866Y-100004761D01*
X136173866Y-100004761D02*
X136126247Y-99909523D01*
X136126247Y-99909523D02*
X136078628Y-99861904D01*
X136078628Y-99861904D02*
X135983390Y-99814285D01*
%TO.C,U4*%
D12*
X156640000Y-99920000D02*
X156640000Y-97340000D01*
X157620000Y-97340000D02*
X156640000Y-97340000D01*
X160380000Y-97340000D02*
X161360000Y-97340000D01*
X161360000Y-97340000D02*
X161360000Y-100060000D01*
X156790000Y-100470000D02*
X156460000Y-100710000D01*
X156460000Y-100230000D01*
X156790000Y-100470000D01*
G36*
X156790000Y-100470000D02*
G01*
X156460000Y-100710000D01*
X156460000Y-100230000D01*
X156790000Y-100470000D01*
G37*
%TO.C,C12*%
X152415000Y-79465580D02*
X152415000Y-79184420D01*
X153435000Y-79465580D02*
X153435000Y-79184420D01*
%TO.C,C6*%
X147165580Y-99190000D02*
X146884420Y-99190000D01*
X147165580Y-100210000D02*
X146884420Y-100210000D01*
%TO.C,C19*%
X144990000Y-92834420D02*
X144990000Y-93115580D01*
X146010000Y-92834420D02*
X146010000Y-93115580D01*
%TO.C,TH1*%
X176880000Y-98020000D02*
X176880000Y-94180000D01*
X178720000Y-98020000D02*
X178720000Y-94180000D01*
%TO.C,R12*%
X158977500Y-106137742D02*
X158977500Y-106612258D01*
X160022500Y-106137742D02*
X160022500Y-106612258D01*
%TO.C,U2*%
X150990000Y-99977500D02*
X151040000Y-99977500D01*
X150990000Y-101797500D02*
X150990000Y-99977500D01*
X151040000Y-101797500D02*
X150990000Y-101797500D01*
X154060000Y-99977500D02*
X154110000Y-99977500D01*
X154110000Y-99977500D02*
X154110000Y-101797500D01*
X154110000Y-101797500D02*
X154060000Y-101797500D01*
X151040000Y-102337500D02*
X150710000Y-102577500D01*
X150710000Y-102097500D01*
X151040000Y-102337500D01*
G36*
X151040000Y-102337500D02*
G01*
X150710000Y-102577500D01*
X150710000Y-102097500D01*
X151040000Y-102337500D01*
G37*
%TO.C,C5*%
X154190000Y-77640580D02*
X154190000Y-77359420D01*
X155210000Y-77640580D02*
X155210000Y-77359420D01*
%TO.C,U1*%
X149515000Y-82190000D02*
X150165000Y-82190000D01*
X149515000Y-82840000D02*
X149515000Y-82190000D01*
X149515000Y-89410000D02*
X149515000Y-88760000D01*
X150165000Y-89410000D02*
X149515000Y-89410000D01*
X156085000Y-82190000D02*
X156735000Y-82190000D01*
X156735000Y-82190000D02*
X156735000Y-82840000D01*
X156735000Y-88760000D02*
X156735000Y-89410000D01*
X156735000Y-89410000D02*
X156085000Y-89410000D01*
X157595000Y-88640000D02*
X157265000Y-88400000D01*
X157595000Y-88160000D01*
X157595000Y-88640000D01*
G36*
X157595000Y-88640000D02*
G01*
X157265000Y-88400000D01*
X157595000Y-88160000D01*
X157595000Y-88640000D01*
G37*
%TO.C,BOOT*%
X161075000Y-107750000D02*
X161075000Y-112150000D01*
X162675000Y-107750000D02*
X162575000Y-107750000D01*
X162675000Y-112150000D02*
X162575000Y-112150000D01*
X164175000Y-112150000D02*
X164175000Y-107750000D01*
%TO.C,R6*%
X144512258Y-105427500D02*
X144037742Y-105427500D01*
X144512258Y-106472500D02*
X144037742Y-106472500D01*
%TO.C,R19*%
X142777500Y-78422258D02*
X142777500Y-77947742D01*
X143822500Y-78422258D02*
X143822500Y-77947742D01*
%TO.C,R2*%
X143877500Y-100287742D02*
X143877500Y-100762258D01*
X144922500Y-100287742D02*
X144922500Y-100762258D01*
%TO.C,U5*%
X144140000Y-95390000D02*
X147360000Y-95390000D01*
X144140000Y-95615000D02*
X144140000Y-95390000D01*
X144140000Y-98610000D02*
X144140000Y-98385000D01*
X147360000Y-95390000D02*
X147360000Y-95615000D01*
X147360000Y-98385000D02*
X147360000Y-98610000D01*
X147360000Y-98610000D02*
X144140000Y-98610000D01*
X148200000Y-98240000D02*
X147870000Y-98000000D01*
X148200000Y-97760000D01*
X148200000Y-98240000D01*
G36*
X148200000Y-98240000D02*
G01*
X147870000Y-98000000D01*
X148200000Y-97760000D01*
X148200000Y-98240000D01*
G37*
%TO.C,J2*%
X173480000Y-75630000D02*
X181320000Y-75630000D01*
X173480000Y-82870000D02*
X173480000Y-75630000D01*
X179700000Y-82870000D02*
X179700000Y-75630000D01*
X180800000Y-82870000D02*
X180800000Y-75630000D01*
X181320000Y-75630000D02*
X181320000Y-80700000D01*
X181320000Y-81300000D02*
X181320000Y-82870000D01*
X181320000Y-82870000D02*
X173480000Y-82870000D01*
X181930000Y-81440000D02*
X181320000Y-81000000D01*
X181930000Y-80560000D01*
X181930000Y-81440000D01*
G36*
X181930000Y-81440000D02*
G01*
X181320000Y-81000000D01*
X181930000Y-80560000D01*
X181930000Y-81440000D01*
G37*
%TO.C,C8*%
X147240000Y-92684420D02*
X147240000Y-92965580D01*
X148260000Y-92684420D02*
X148260000Y-92965580D01*
%TO.C,R10*%
X142177500Y-91162258D02*
X142177500Y-90687742D01*
X143222500Y-91162258D02*
X143222500Y-90687742D01*
%TO.C,R20*%
X177277500Y-89087742D02*
X177277500Y-89562258D01*
X178322500Y-89087742D02*
X178322500Y-89562258D01*
%TO.C,R14*%
X161777500Y-86012258D02*
X161777500Y-85537742D01*
X162822500Y-86012258D02*
X162822500Y-85537742D01*
%TO.C,R21*%
X167477500Y-106837258D02*
X167477500Y-106362742D01*
X168522500Y-106837258D02*
X168522500Y-106362742D01*
%TO.C,J1*%
X148500000Y-107275000D02*
X148500000Y-109195000D01*
X148500000Y-112910000D02*
X148500000Y-111205000D01*
X157660000Y-109195000D02*
X157660000Y-107275000D01*
X157660000Y-111205000D02*
X157660000Y-112910000D01*
X157660000Y-112910000D02*
X148500000Y-112910000D01*
%TO.C,R15*%
X159137742Y-86077500D02*
X159612258Y-86077500D01*
X159137742Y-87122500D02*
X159612258Y-87122500D01*
%TO.C,F1*%
X168330000Y-93516252D02*
X168330000Y-89108748D01*
X173670000Y-93516252D02*
X173670000Y-89108748D01*
%TO.C,R18*%
X132877500Y-111172258D02*
X132877500Y-110697742D01*
X133922500Y-111172258D02*
X133922500Y-110697742D01*
%TO.C,C1*%
X148990000Y-101015580D02*
X148990000Y-100734420D01*
X150010000Y-101015580D02*
X150010000Y-100734420D01*
%TO.C,C2*%
X159865580Y-101890000D02*
X159584420Y-101890000D01*
X159865580Y-102910000D02*
X159584420Y-102910000D01*
%TO.C,BTN0*%
X135225000Y-74950000D02*
X135225000Y-75000000D01*
X135225000Y-74950000D02*
X140125000Y-74950000D01*
X135225000Y-76650000D02*
X135225000Y-78150000D01*
X135225000Y-79850000D02*
X135225000Y-79800000D01*
X135225000Y-79850000D02*
X140125000Y-79850000D01*
X140125000Y-74950000D02*
X140125000Y-75000000D01*
X140125000Y-76650000D02*
X140125000Y-78150000D01*
X140125000Y-79850000D02*
X140125000Y-79800000D01*
%TO.C,R11*%
X142177500Y-94762258D02*
X142177500Y-94287742D01*
X143222500Y-94762258D02*
X143222500Y-94287742D01*
%TO.C,Q1*%
X165930000Y-96670000D02*
X165930000Y-96940000D01*
X165930000Y-103570000D02*
X165930000Y-103300000D01*
X172350000Y-96670000D02*
X165930000Y-96670000D01*
X172350000Y-103570000D02*
X165930000Y-103570000D01*
X164200000Y-96980000D02*
X163860000Y-96510000D01*
X164540000Y-96510000D01*
X164200000Y-96980000D01*
G36*
X164200000Y-96980000D02*
G01*
X163860000Y-96510000D01*
X164540000Y-96510000D01*
X164200000Y-96980000D01*
G37*
%TO.C,C9*%
X153615000Y-92684420D02*
X153615000Y-92965580D01*
X154635000Y-92684420D02*
X154635000Y-92965580D01*
%TO.C,BTN1*%
X135650000Y-107640000D02*
X135650000Y-107690000D01*
X135650000Y-107640000D02*
X140550000Y-107640000D01*
X135650000Y-109340000D02*
X135650000Y-110840000D01*
X135650000Y-112540000D02*
X135650000Y-112490000D01*
X135650000Y-112540000D02*
X140550000Y-112540000D01*
X140550000Y-107640000D02*
X140550000Y-107690000D01*
X140550000Y-109340000D02*
X140550000Y-110840000D01*
X140550000Y-112540000D02*
X140550000Y-112490000D01*
%TO.C,R3*%
X150427500Y-93062258D02*
X150427500Y-92587742D01*
X151472500Y-93062258D02*
X151472500Y-92587742D01*
%TO.C,C13*%
X146915580Y-84290000D02*
X146634420Y-84290000D01*
X146915580Y-85310000D02*
X146634420Y-85310000D01*
%TO.C,R1*%
X146787742Y-100877500D02*
X147262258Y-100877500D01*
X146787742Y-101922500D02*
X147262258Y-101922500D01*
%TO.C,RESET*%
X142750000Y-107750000D02*
X142750000Y-112150000D01*
X144350000Y-107750000D02*
X144250000Y-107750000D01*
X144350000Y-112150000D02*
X144250000Y-112150000D01*
X145850000Y-112150000D02*
X145850000Y-107750000D01*
%TO.C,C15*%
X146940580Y-89540000D02*
X146659420Y-89540000D01*
X146940580Y-90560000D02*
X146659420Y-90560000D01*
%TO.C,U3*%
X159652500Y-90235000D02*
X165172500Y-90235000D01*
X159652500Y-90505000D02*
X159652500Y-90235000D01*
X159652500Y-95755000D02*
X159652500Y-95485000D01*
X165172500Y-90235000D02*
X165172500Y-90505000D01*
X165172500Y-95485000D02*
X165172500Y-95755000D01*
X165172500Y-95755000D02*
X159652500Y-95755000D01*
X166342500Y-95965000D02*
X165662500Y-95965000D01*
X166002500Y-95495000D01*
X166342500Y-95965000D01*
G36*
X166342500Y-95965000D02*
G01*
X165662500Y-95965000D01*
X166002500Y-95495000D01*
X166342500Y-95965000D01*
G37*
%TO.C,D1*%
X168965000Y-105837500D02*
X168965000Y-108122500D01*
X168965000Y-108122500D02*
X170435000Y-108122500D01*
X170435000Y-108122500D02*
X170435000Y-105837500D01*
%TO.C,C17*%
X155240000Y-92684420D02*
X155240000Y-92965580D01*
X156260000Y-92684420D02*
X156260000Y-92965580D01*
%TO.C,R13*%
X162362742Y-105777500D02*
X162837258Y-105777500D01*
X162362742Y-106822500D02*
X162837258Y-106822500D01*
%TO.C,C16*%
X150840000Y-79465580D02*
X150840000Y-79184420D01*
X151860000Y-79465580D02*
X151860000Y-79184420D01*
%TO.C,BTN3*%
X119050000Y-74920000D02*
X119050000Y-74970000D01*
X119050000Y-74920000D02*
X123950000Y-74920000D01*
X119050000Y-76620000D02*
X119050000Y-78120000D01*
X119050000Y-79820000D02*
X119050000Y-79770000D01*
X119050000Y-79820000D02*
X123950000Y-79820000D01*
X123950000Y-74920000D02*
X123950000Y-74970000D01*
X123950000Y-76620000D02*
X123950000Y-78120000D01*
X123950000Y-79820000D02*
X123950000Y-79770000D01*
%TO.C,C14*%
X146940580Y-87890000D02*
X146659420Y-87890000D01*
X146940580Y-88910000D02*
X146659420Y-88910000D01*
%TO.C,D2*%
X145508750Y-79515000D02*
X145508750Y-81800000D01*
X146978750Y-79515000D02*
X145508750Y-79515000D01*
X146978750Y-81800000D02*
X146978750Y-79515000D01*
%TO.C,BTN2*%
X118925000Y-107550000D02*
X118925000Y-107600000D01*
X118925000Y-107550000D02*
X123825000Y-107550000D01*
X118925000Y-109250000D02*
X118925000Y-110750000D01*
X118925000Y-112450000D02*
X118925000Y-112400000D01*
X118925000Y-112450000D02*
X123825000Y-112450000D01*
X123825000Y-107550000D02*
X123825000Y-107600000D01*
X123825000Y-109250000D02*
X123825000Y-110750000D01*
X123825000Y-112450000D02*
X123825000Y-112400000D01*
%TO.C,Q4*%
X164555000Y-76025000D02*
X164555000Y-76295000D01*
X164555000Y-82925000D02*
X164555000Y-82655000D01*
X170975000Y-76025000D02*
X164555000Y-76025000D01*
X170975000Y-82925000D02*
X164555000Y-82925000D01*
X162825000Y-76335000D02*
X162485000Y-75865000D01*
X163165000Y-75865000D01*
X162825000Y-76335000D01*
G36*
X162825000Y-76335000D02*
G01*
X162485000Y-75865000D01*
X163165000Y-75865000D01*
X162825000Y-76335000D01*
G37*
%TO.C,C7*%
X155315580Y-94790000D02*
X155034420Y-94790000D01*
X155315580Y-95810000D02*
X155034420Y-95810000D01*
%TO.C,C4*%
X158534420Y-79490000D02*
X158815580Y-79490000D01*
X158534420Y-80510000D02*
X158815580Y-80510000D01*
%TO.C,C11*%
X159234420Y-84290000D02*
X159515580Y-84290000D01*
X159234420Y-85310000D02*
X159515580Y-85310000D01*
%TO.C,R16*%
X126102500Y-78382258D02*
X126102500Y-77907742D01*
X127147500Y-78382258D02*
X127147500Y-77907742D01*
%TO.C,C10*%
X159234420Y-87890000D02*
X159515580Y-87890000D01*
X159234420Y-88910000D02*
X159515580Y-88910000D01*
%TO.C,Y1*%
X159960000Y-75440000D02*
X155640000Y-75440000D01*
X159960000Y-79060000D02*
X159960000Y-75440000D01*
%TO.C,C3*%
X155035000Y-100015580D02*
X155035000Y-99734420D01*
X156055000Y-100015580D02*
X156055000Y-99734420D01*
%TO.C,R7*%
X145562258Y-102777500D02*
X145087742Y-102777500D01*
X145562258Y-103822500D02*
X145087742Y-103822500D01*
%TO.C,R4*%
X152027500Y-93062258D02*
X152027500Y-92587742D01*
X153072500Y-93062258D02*
X153072500Y-92587742D01*
%TO.C,R17*%
X126177500Y-111122258D02*
X126177500Y-110647742D01*
X127222500Y-111122258D02*
X127222500Y-110647742D01*
%TO.C,R5*%
X155337742Y-79477500D02*
X155812258Y-79477500D01*
X155337742Y-80522500D02*
X155812258Y-80522500D01*
%TO.C,R22*%
X147421250Y-80737742D02*
X147421250Y-81212258D01*
X148466250Y-80737742D02*
X148466250Y-81212258D01*
%TO.C,C18*%
X148840000Y-92684420D02*
X148840000Y-92965580D01*
X149860000Y-92684420D02*
X149860000Y-92965580D01*
%TO.C,R9*%
X142277500Y-100287742D02*
X142277500Y-100762258D01*
X143322500Y-100287742D02*
X143322500Y-100762258D01*
%TD*%
M02*
