%TF.GenerationSoftware,KiCad,Pcbnew,10.0.0*%
%TF.CreationDate,2026-03-23T02:15:25-04:00*%
%TF.ProjectId,HotPlate,486f7450-6c61-4746-952e-6b696361645f,rev?*%
%TF.SameCoordinates,Original*%
%TF.FileFunction,Copper,L2,Bot*%
%TF.FilePolarity,Positive*%
%FSLAX46Y46*%
G04 Gerber Fmt 4.6, Leading zero omitted, Abs format (unit mm)*
G04 Created by KiCad (PCBNEW 10.0.0) date 2026-03-23 02:15:25*
%MOMM*%
%LPD*%
G01*
G04 APERTURE LIST*
G04 Aperture macros list*
%AMRoundRect*
0 Rectangle with rounded corners*
0 $1 Rounding radius*
0 $2 $3 $4 $5 $6 $7 $8 $9 X,Y pos of 4 corners*
0 Add a 4 corners polygon primitive as box body*
4,1,4,$2,$3,$4,$5,$6,$7,$8,$9,$2,$3,0*
0 Add four circle primitives for the rounded corners*
1,1,$1+$1,$2,$3*
1,1,$1+$1,$4,$5*
1,1,$1+$1,$6,$7*
1,1,$1+$1,$8,$9*
0 Add four rect primitives between the rounded corners*
20,1,$1+$1,$2,$3,$4,$5,0*
20,1,$1+$1,$4,$5,$6,$7,0*
20,1,$1+$1,$6,$7,$8,$9,0*
20,1,$1+$1,$8,$9,$2,$3,0*%
G04 Aperture macros list end*
%TA.AperFunction,ComponentPad*%
%ADD10C,1.400000*%
%TD*%
%TA.AperFunction,ComponentPad*%
%ADD11RoundRect,0.250001X0.949999X-0.949999X0.949999X0.949999X-0.949999X0.949999X-0.949999X-0.949999X0*%
%TD*%
%TA.AperFunction,ComponentPad*%
%ADD12C,2.400000*%
%TD*%
%TA.AperFunction,HeatsinkPad*%
%ADD13O,1.000000X2.100000*%
%TD*%
%TA.AperFunction,HeatsinkPad*%
%ADD14O,1.000000X1.800000*%
%TD*%
%TA.AperFunction,ComponentPad*%
%ADD15R,1.700000X1.700000*%
%TD*%
%TA.AperFunction,ComponentPad*%
%ADD16C,1.700000*%
%TD*%
%TA.AperFunction,ViaPad*%
%ADD17C,0.500000*%
%TD*%
%TA.AperFunction,ViaPad*%
%ADD18C,0.600000*%
%TD*%
%TA.AperFunction,Conductor*%
%ADD19C,0.200000*%
%TD*%
%TA.AperFunction,Conductor*%
%ADD20C,0.300000*%
%TD*%
%TA.AperFunction,Conductor*%
%ADD21C,0.400000*%
%TD*%
%TA.AperFunction,Conductor*%
%ADD22C,0.250000*%
%TD*%
G04 APERTURE END LIST*
D10*
%TO.P,TH1,1*%
%TO.N,/THERM*%
X177800000Y-98640000D03*
%TO.P,TH1,2*%
%TO.N,GND*%
X177800000Y-93560000D03*
%TD*%
D11*
%TO.P,J2,1,Pin_1*%
%TO.N,Net-(J2-Pin_1)*%
X176700000Y-81000000D03*
D12*
%TO.P,J2,2,Pin_2*%
%TO.N,GND*%
X176700000Y-77500000D03*
%TD*%
D13*
%TO.P,J1,S1,SHIELD*%
%TO.N,GND*%
X148760000Y-106000000D03*
D14*
X148760000Y-110200000D03*
D13*
X157400000Y-106000000D03*
D14*
X157400000Y-110200000D03*
%TD*%
D15*
%TO.P,U6,1,GND*%
%TO.N,GND*%
X139400000Y-89920000D03*
D16*
%TO.P,U6,2,VCC*%
%TO.N,+3V3*%
X139400000Y-92460000D03*
%TO.P,U6,3,SCL*%
%TO.N,/SCL*%
X139400000Y-95000000D03*
%TO.P,U6,4,SDA*%
%TO.N,/SDA*%
X139400000Y-97540000D03*
%TD*%
D17*
%TO.N,+3V3*%
X148500000Y-84150000D03*
X141125000Y-94250000D03*
X160300000Y-109100000D03*
D18*
X157500000Y-101900000D03*
X157900000Y-108400000D03*
D17*
X143500000Y-106900000D03*
D18*
X149000000Y-79700000D03*
X158600000Y-105200000D03*
D17*
X165100000Y-107700000D03*
D18*
%TO.N,GND*%
X155400000Y-86400000D03*
X153100000Y-84800000D03*
X154100000Y-83600000D03*
X149360000Y-94740000D03*
X146020000Y-91120000D03*
D17*
X146063909Y-87350000D03*
D18*
X154250000Y-85750000D03*
X152000000Y-86750000D03*
X153100000Y-86800000D03*
X149500000Y-99000000D03*
X154250000Y-86750000D03*
X153125000Y-85800000D03*
X152000000Y-84750000D03*
X155400000Y-83600000D03*
X154250000Y-84750000D03*
X155400000Y-85000000D03*
X154500000Y-101000000D03*
X152000000Y-85750000D03*
%TO.N,/VBUS*%
X152500000Y-98500000D03*
X150500000Y-101000000D03*
%TO.N,/THERM*%
X146500000Y-94400000D03*
D17*
X174500000Y-96200000D03*
D18*
%TO.N,/SS*%
X167400000Y-94900000D03*
X158000000Y-89400000D03*
%TO.N,/RESET*%
X145113050Y-105000000D03*
X150996071Y-83299740D03*
%TO.N,/SDA*%
X143800000Y-90900000D03*
X143932746Y-93486920D03*
D17*
X141675000Y-95325000D03*
X141650000Y-90800000D03*
%TO.N,/BTN2*%
X128250000Y-111735000D03*
X147250000Y-87350000D03*
D18*
%TO.N,/BTN1*%
X142000000Y-111300000D03*
D17*
X148500000Y-87750000D03*
D18*
%TO.N,/SD0*%
X154057992Y-88300145D03*
X157600000Y-91100000D03*
%TO.N,/SD2*%
X164500000Y-92400000D03*
X154826532Y-88078003D03*
%TO.N,/SD1*%
X155593381Y-88305916D03*
X160900000Y-91800000D03*
%TO.N,Net-(Q1-G)*%
X162400000Y-97900000D03*
X147300000Y-105100000D03*
%TO.N,/CC1*%
X151700000Y-103600000D03*
D17*
X148002628Y-96475000D03*
D18*
%TO.N,/CC2*%
X154300000Y-104000000D03*
D17*
X148366120Y-95870195D03*
%TD*%
%TO.N,+3V3*%
D19*
X148900000Y-79800000D02*
X149000000Y-79700000D01*
D20*
X140610000Y-92460000D02*
X139400000Y-92460000D01*
D19*
X148900000Y-83750000D02*
X148900000Y-79800000D01*
D21*
X148000000Y-108400000D02*
X146500000Y-106900000D01*
D22*
X160300000Y-109100000D02*
X163700000Y-109100000D01*
D20*
X158600000Y-105200000D02*
X157500000Y-104100000D01*
D21*
X157900000Y-108400000D02*
X148000000Y-108400000D01*
D20*
X143500000Y-106900000D02*
X146500000Y-106900000D01*
X141125000Y-94250000D02*
X141125000Y-92975000D01*
D19*
X148900000Y-83750000D02*
X148500000Y-84150000D01*
D20*
X141125000Y-92975000D02*
X140610000Y-92460000D01*
D22*
X163700000Y-109100000D02*
X165100000Y-107700000D01*
D20*
X157500000Y-104100000D02*
X157500000Y-101900000D01*
%TO.N,/VBUS*%
D21*
X152500000Y-100500000D02*
X152500000Y-98500000D01*
X152000000Y-101000000D02*
X152500000Y-100500000D01*
X150500000Y-101000000D02*
X152000000Y-101000000D01*
%TO.N,/THERM*%
D19*
X161350000Y-100300000D02*
X161350000Y-106750000D01*
X144600000Y-109000000D02*
X142700000Y-107100000D01*
X144700000Y-103575000D02*
X144700000Y-96200000D01*
X161350000Y-106750000D02*
X159100000Y-109000000D01*
X142700000Y-105575000D02*
X144700000Y-103575000D01*
X174500000Y-96200000D02*
X165450000Y-96200000D01*
X165450000Y-96200000D02*
X161350000Y-100300000D01*
X159100000Y-109000000D02*
X144600000Y-109000000D01*
X142700000Y-107100000D02*
X142700000Y-105575000D01*
X144700000Y-96200000D02*
X146500000Y-94400000D01*
%TO.N,/SS*%
X167600000Y-94700000D02*
X167400000Y-94900000D01*
X167600000Y-90400000D02*
X167600000Y-94700000D01*
X166600000Y-89400000D02*
X167600000Y-90400000D01*
X158000000Y-89400000D02*
X166600000Y-89400000D01*
%TO.N,/RESET*%
X145325000Y-96575000D02*
X145325000Y-104788050D01*
X151200000Y-90700000D02*
X145325000Y-96575000D01*
X150996071Y-83299740D02*
X151200000Y-83503669D01*
X145325000Y-104788050D02*
X145113050Y-105000000D01*
X151200000Y-83503669D02*
X151200000Y-90700000D01*
%TO.N,/SDA*%
X141675000Y-95325000D02*
X141675000Y-90825000D01*
X143932746Y-91032746D02*
X143800000Y-90900000D01*
X143932746Y-93486920D02*
X143932746Y-91032746D01*
X141675000Y-90825000D02*
X141650000Y-90800000D01*
%TO.N,/BTN2*%
X143525000Y-103125000D02*
X143525000Y-95225000D01*
X128250000Y-111735000D02*
X140665000Y-111735000D01*
X146750000Y-87850000D02*
X147250000Y-87350000D01*
X140665000Y-111735000D02*
X141400000Y-111000000D01*
X141400000Y-105250000D02*
X143525000Y-103125000D01*
X141400000Y-111000000D02*
X141400000Y-105250000D01*
X146750000Y-92000000D02*
X146750000Y-87850000D01*
X143525000Y-95225000D02*
X146750000Y-92000000D01*
%TO.N,/BTN1*%
X144125000Y-95475000D02*
X144125000Y-103425000D01*
X148500000Y-87750000D02*
X148500000Y-91100000D01*
X142000000Y-108925000D02*
X142000000Y-111300000D01*
X142000000Y-105550000D02*
X142000000Y-108925000D01*
X144125000Y-103425000D02*
X142000000Y-105550000D01*
X148500000Y-91100000D02*
X144125000Y-95475000D01*
%TO.N,/SD0*%
X154057992Y-88300145D02*
X154057992Y-89857992D01*
X154057992Y-89857992D02*
X155300000Y-91100000D01*
X155300000Y-91100000D02*
X157600000Y-91100000D01*
%TO.N,/SD2*%
X155600000Y-90500000D02*
X154826532Y-89726532D01*
X159900000Y-92400000D02*
X158000000Y-90500000D01*
X158000000Y-90500000D02*
X155600000Y-90500000D01*
X164500000Y-92400000D02*
X159900000Y-92400000D01*
X154826532Y-89726532D02*
X154826532Y-88078003D01*
%TO.N,/SD1*%
X160200000Y-91600000D02*
X158600000Y-90000000D01*
X158600000Y-90000000D02*
X156000000Y-90000000D01*
X155593381Y-89593381D02*
X155593381Y-88305916D01*
X160700000Y-91600000D02*
X160200000Y-91600000D01*
X156000000Y-90000000D02*
X155593381Y-89593381D01*
X160900000Y-91800000D02*
X160700000Y-91600000D01*
%TO.N,Net-(Q1-G)*%
D21*
X160400000Y-106600000D02*
X159300000Y-107700000D01*
X162400000Y-97900000D02*
X160800000Y-97900000D01*
X148300000Y-107700000D02*
X147300000Y-106700000D01*
X160400000Y-98300000D02*
X160400000Y-106600000D01*
X159300000Y-107700000D02*
X148300000Y-107700000D01*
X147300000Y-106700000D02*
X147300000Y-105100000D01*
X160800000Y-97900000D02*
X160400000Y-98300000D01*
%TO.N,/CC1*%
D19*
X146900000Y-96500000D02*
X147977628Y-96500000D01*
X147977628Y-96500000D02*
X148002628Y-96475000D01*
X151700000Y-103600000D02*
X151300000Y-103200000D01*
X149500000Y-103200000D02*
X146500000Y-100200000D01*
X146500000Y-100200000D02*
X146500000Y-96900000D01*
X146500000Y-96900000D02*
X146900000Y-96500000D01*
X151300000Y-103200000D02*
X149500000Y-103200000D01*
%TO.N,/CC2*%
X151300000Y-104400000D02*
X150800000Y-103900000D01*
X154800000Y-105900000D02*
X153700000Y-107000000D01*
X149500000Y-103900000D02*
X146000000Y-100400000D01*
X152500000Y-107000000D02*
X151300000Y-105800000D01*
X146000000Y-100400000D02*
X146000000Y-96800000D01*
X146929805Y-95870195D02*
X148366120Y-95870195D01*
X150800000Y-103900000D02*
X149500000Y-103900000D01*
X146000000Y-96800000D02*
X146929805Y-95870195D01*
X153700000Y-107000000D02*
X152500000Y-107000000D01*
X154800000Y-104500000D02*
X154800000Y-105900000D01*
X154300000Y-104000000D02*
X154800000Y-104500000D01*
X151300000Y-105800000D02*
X151300000Y-104400000D01*
%TD*%
%TA.AperFunction,Conductor*%
%TO.N,GND*%
G36*
X145880703Y-100776831D02*
G01*
X145887181Y-100782863D01*
X149284787Y-104180469D01*
X149352444Y-104219531D01*
X149364712Y-104226614D01*
X149453856Y-104250500D01*
X150603456Y-104250500D01*
X150670495Y-104270185D01*
X150691137Y-104286819D01*
X150913181Y-104508863D01*
X150946666Y-104570186D01*
X150949500Y-104596544D01*
X150949500Y-105846145D01*
X150964362Y-105901613D01*
X150973384Y-105935283D01*
X150973387Y-105935290D01*
X151019527Y-106015208D01*
X151019529Y-106015211D01*
X151019530Y-106015212D01*
X151617499Y-106613181D01*
X152042138Y-107037819D01*
X152075623Y-107099142D01*
X152070639Y-107168834D01*
X152028767Y-107224767D01*
X151963303Y-107249184D01*
X151954457Y-107249500D01*
X150540244Y-107249500D01*
X150473205Y-107229815D01*
X150427450Y-107177011D01*
X150417506Y-107107853D01*
X150446531Y-107044297D01*
X150478244Y-107018113D01*
X150504738Y-107002816D01*
X150543365Y-106980515D01*
X150650515Y-106873365D01*
X150726281Y-106742135D01*
X150765500Y-106595766D01*
X150765500Y-106444234D01*
X150726281Y-106297865D01*
X150650515Y-106166635D01*
X150543365Y-106059485D01*
X150466675Y-106015208D01*
X150412136Y-105983719D01*
X150338950Y-105964109D01*
X150265766Y-105944500D01*
X150114234Y-105944500D01*
X149967863Y-105983719D01*
X149836635Y-106059485D01*
X149836632Y-106059487D01*
X149723738Y-106172382D01*
X149721886Y-106170530D01*
X149675933Y-106204076D01*
X149606186Y-106208221D01*
X149545270Y-106174001D01*
X149529753Y-106144753D01*
X149510000Y-106125000D01*
X149060000Y-106125000D01*
X149060000Y-105875000D01*
X149510000Y-105875000D01*
X149510000Y-105376128D01*
X149509999Y-105376126D01*
X149481179Y-105231240D01*
X149481177Y-105231232D01*
X149424642Y-105094745D01*
X149424637Y-105094735D01*
X149342563Y-104971903D01*
X149342560Y-104971899D01*
X149238100Y-104867439D01*
X149238096Y-104867436D01*
X149115264Y-104785362D01*
X149115254Y-104785357D01*
X148978765Y-104728821D01*
X148978761Y-104728820D01*
X148885000Y-104710169D01*
X148885000Y-105175757D01*
X148875796Y-105170444D01*
X148799496Y-105150000D01*
X148720504Y-105150000D01*
X148644204Y-105170444D01*
X148635000Y-105175757D01*
X148635000Y-104710170D01*
X148634999Y-104710169D01*
X148541238Y-104728820D01*
X148541234Y-104728821D01*
X148404745Y-104785357D01*
X148404735Y-104785362D01*
X148281903Y-104867436D01*
X148281899Y-104867439D01*
X148177439Y-104971899D01*
X148177436Y-104971903D01*
X148095362Y-105094735D01*
X148095357Y-105094745D01*
X148089061Y-105109946D01*
X148045220Y-105164349D01*
X147978925Y-105186414D01*
X147911226Y-105169134D01*
X147863616Y-105117997D01*
X147850500Y-105062493D01*
X147850500Y-105027527D01*
X147850500Y-105027525D01*
X147812984Y-104887515D01*
X147801391Y-104867436D01*
X147740511Y-104761988D01*
X147740506Y-104761982D01*
X147638017Y-104659493D01*
X147638011Y-104659488D01*
X147512488Y-104587017D01*
X147512489Y-104587017D01*
X147501006Y-104583940D01*
X147372475Y-104549500D01*
X147227525Y-104549500D01*
X147098993Y-104583940D01*
X147087511Y-104587017D01*
X146961988Y-104659488D01*
X146961982Y-104659493D01*
X146859493Y-104761982D01*
X146859488Y-104761988D01*
X146787017Y-104887511D01*
X146787016Y-104887515D01*
X146749500Y-105027525D01*
X146749500Y-105172475D01*
X146787016Y-105312485D01*
X146832887Y-105391936D01*
X146849500Y-105453935D01*
X146849500Y-106367362D01*
X146829815Y-106434401D01*
X146777011Y-106480156D01*
X146707853Y-106490100D01*
X146678055Y-106481926D01*
X146673891Y-106480201D01*
X146559310Y-106449501D01*
X146559309Y-106449501D01*
X146440691Y-106449501D01*
X146440689Y-106449501D01*
X146326114Y-106480199D01*
X146326112Y-106480200D01*
X146321462Y-106482886D01*
X146259461Y-106499500D01*
X143840540Y-106499500D01*
X143778540Y-106482887D01*
X143693188Y-106433609D01*
X143693187Y-106433608D01*
X143693186Y-106433608D01*
X143565892Y-106399500D01*
X143434108Y-106399500D01*
X143306814Y-106433608D01*
X143306813Y-106433608D01*
X143306811Y-106433609D01*
X143306810Y-106433609D01*
X143236500Y-106474203D01*
X143168600Y-106490676D01*
X143102573Y-106467823D01*
X143059382Y-106412902D01*
X143050500Y-106366816D01*
X143050500Y-105771544D01*
X143070185Y-105704505D01*
X143086819Y-105683863D01*
X144762819Y-104007863D01*
X144824142Y-103974378D01*
X144893834Y-103979362D01*
X144949767Y-104021234D01*
X144974184Y-104086698D01*
X144974500Y-104095544D01*
X144974500Y-104373536D01*
X144954815Y-104440575D01*
X144907038Y-104481973D01*
X144907603Y-104482952D01*
X144902527Y-104485882D01*
X144902011Y-104486330D01*
X144900957Y-104486788D01*
X144775038Y-104559488D01*
X144775032Y-104559493D01*
X144672543Y-104661982D01*
X144672538Y-104661988D01*
X144600067Y-104787511D01*
X144600066Y-104787515D01*
X144562550Y-104927525D01*
X144562550Y-105072475D01*
X144597754Y-105203856D01*
X144600067Y-105212488D01*
X144672538Y-105338011D01*
X144672540Y-105338013D01*
X144672541Y-105338015D01*
X144775035Y-105440509D01*
X144775036Y-105440510D01*
X144775038Y-105440511D01*
X144900561Y-105512982D01*
X144900562Y-105512982D01*
X144900565Y-105512984D01*
X145040575Y-105550500D01*
X145040578Y-105550500D01*
X145185522Y-105550500D01*
X145185525Y-105550500D01*
X145325535Y-105512984D01*
X145451065Y-105440509D01*
X145553559Y-105338015D01*
X145626034Y-105212485D01*
X145663550Y-105072475D01*
X145663550Y-104927525D01*
X145663550Y-104927523D01*
X145662489Y-104919464D01*
X145665579Y-104919057D01*
X145665620Y-104871060D01*
X145668053Y-104861985D01*
X145675500Y-104834194D01*
X145675500Y-100870544D01*
X145695185Y-100803505D01*
X145747989Y-100757750D01*
X145817147Y-100747806D01*
X145880703Y-100776831D01*
G37*
%TD.AperFunction*%
%TA.AperFunction,Conductor*%
G36*
X147962653Y-105336547D02*
G01*
X148003181Y-105393462D01*
X148010000Y-105434017D01*
X148010000Y-105875000D01*
X148460000Y-105875000D01*
X148460000Y-106125000D01*
X148010000Y-106125000D01*
X148010000Y-106473535D01*
X147990315Y-106540574D01*
X147937511Y-106586329D01*
X147868353Y-106596273D01*
X147804797Y-106567248D01*
X147798319Y-106561216D01*
X147786819Y-106549716D01*
X147753334Y-106488393D01*
X147750500Y-106462035D01*
X147750500Y-105453935D01*
X147767114Y-105391934D01*
X147778614Y-105372016D01*
X147829181Y-105323801D01*
X147897789Y-105310579D01*
X147962653Y-105336547D01*
G37*
%TD.AperFunction*%
%TA.AperFunction,Conductor*%
G36*
X178754418Y-74500816D02*
G01*
X178954561Y-74515130D01*
X178972063Y-74517647D01*
X179163795Y-74559355D01*
X179180760Y-74564336D01*
X179364611Y-74632909D01*
X179380694Y-74640253D01*
X179497495Y-74704032D01*
X179552908Y-74734290D01*
X179567791Y-74743855D01*
X179724864Y-74861438D01*
X179738235Y-74873024D01*
X179876975Y-75011764D01*
X179888561Y-75025135D01*
X180006144Y-75182208D01*
X180015709Y-75197091D01*
X180109743Y-75369300D01*
X180117093Y-75385394D01*
X180185661Y-75569234D01*
X180190645Y-75586209D01*
X180232351Y-75777931D01*
X180234869Y-75795442D01*
X180249184Y-75995580D01*
X180249500Y-76004427D01*
X180249500Y-110995572D01*
X180249184Y-111004419D01*
X180234869Y-111204557D01*
X180232351Y-111222068D01*
X180190645Y-111413790D01*
X180185661Y-111430765D01*
X180117093Y-111614605D01*
X180109743Y-111630699D01*
X180015709Y-111802908D01*
X180006144Y-111817791D01*
X179888561Y-111974864D01*
X179876975Y-111988235D01*
X179738235Y-112126975D01*
X179724864Y-112138561D01*
X179567791Y-112256144D01*
X179552908Y-112265709D01*
X179380699Y-112359743D01*
X179364605Y-112367093D01*
X179180765Y-112435661D01*
X179163790Y-112440645D01*
X178972068Y-112482351D01*
X178954557Y-112484869D01*
X178773779Y-112497799D01*
X178754417Y-112499184D01*
X178745572Y-112499500D01*
X118754428Y-112499500D01*
X118745582Y-112499184D01*
X118723622Y-112497613D01*
X118545442Y-112484869D01*
X118527931Y-112482351D01*
X118336209Y-112440645D01*
X118319234Y-112435661D01*
X118135394Y-112367093D01*
X118119300Y-112359743D01*
X117947091Y-112265709D01*
X117932208Y-112256144D01*
X117775135Y-112138561D01*
X117761764Y-112126975D01*
X117623024Y-111988235D01*
X117611438Y-111974864D01*
X117493855Y-111817791D01*
X117484290Y-111802908D01*
X117452815Y-111745266D01*
X117411229Y-111669108D01*
X127749500Y-111669108D01*
X127749500Y-111800892D01*
X127752740Y-111812984D01*
X127783608Y-111928187D01*
X127810558Y-111974864D01*
X127849500Y-112042314D01*
X127942686Y-112135500D01*
X128056814Y-112201392D01*
X128184108Y-112235500D01*
X128184110Y-112235500D01*
X128315890Y-112235500D01*
X128315892Y-112235500D01*
X128443186Y-112201392D01*
X128557314Y-112135500D01*
X128570995Y-112121819D01*
X128632318Y-112088334D01*
X128658676Y-112085500D01*
X140711142Y-112085500D01*
X140711144Y-112085500D01*
X140800288Y-112061614D01*
X140810912Y-112055480D01*
X140880212Y-112015470D01*
X141334748Y-111560932D01*
X141396069Y-111527449D01*
X141465760Y-111532433D01*
X141521694Y-111574304D01*
X141529813Y-111586613D01*
X141545975Y-111614605D01*
X141559491Y-111638015D01*
X141661985Y-111740509D01*
X141661986Y-111740510D01*
X141661988Y-111740511D01*
X141787511Y-111812982D01*
X141787512Y-111812982D01*
X141787515Y-111812984D01*
X141927525Y-111850500D01*
X141927528Y-111850500D01*
X142072472Y-111850500D01*
X142072475Y-111850500D01*
X142212485Y-111812984D01*
X142338015Y-111740509D01*
X142440509Y-111638015D01*
X142512984Y-111512485D01*
X142550500Y-111372475D01*
X142550500Y-111227525D01*
X142512984Y-111087515D01*
X142507548Y-111078100D01*
X142440511Y-110961988D01*
X142440506Y-110961982D01*
X142386819Y-110908295D01*
X142353334Y-110846972D01*
X142350500Y-110820614D01*
X142350500Y-107545544D01*
X142370185Y-107478505D01*
X142422989Y-107432750D01*
X142492147Y-107422806D01*
X142555703Y-107451831D01*
X142562181Y-107457863D01*
X144384788Y-109280470D01*
X144384789Y-109280471D01*
X144384791Y-109280472D01*
X144424750Y-109303542D01*
X144464712Y-109326614D01*
X144553856Y-109350500D01*
X144553858Y-109350500D01*
X147948816Y-109350500D01*
X148015855Y-109370185D01*
X148061610Y-109422989D01*
X148071554Y-109492147D01*
X148063377Y-109521953D01*
X148038822Y-109581232D01*
X148038820Y-109581240D01*
X148010000Y-109726126D01*
X148010000Y-110075000D01*
X148460000Y-110075000D01*
X148460000Y-110325000D01*
X148010000Y-110325000D01*
X148010000Y-110673873D01*
X148038820Y-110818759D01*
X148038822Y-110818767D01*
X148095357Y-110955254D01*
X148095362Y-110955264D01*
X148177436Y-111078096D01*
X148177439Y-111078100D01*
X148281899Y-111182560D01*
X148281903Y-111182563D01*
X148404735Y-111264637D01*
X148404745Y-111264642D01*
X148541232Y-111321177D01*
X148541240Y-111321179D01*
X148634999Y-111339829D01*
X148635000Y-111339829D01*
X148635000Y-110874242D01*
X148644204Y-110879556D01*
X148720504Y-110900000D01*
X148799496Y-110900000D01*
X148875796Y-110879556D01*
X148885000Y-110874242D01*
X148885000Y-111339829D01*
X148978759Y-111321179D01*
X148978767Y-111321177D01*
X149115254Y-111264642D01*
X149115264Y-111264637D01*
X149238096Y-111182563D01*
X149238100Y-111182560D01*
X149342560Y-111078100D01*
X149342563Y-111078096D01*
X149424637Y-110955264D01*
X149424642Y-110955254D01*
X149481177Y-110818767D01*
X149481179Y-110818759D01*
X149509999Y-110673873D01*
X149510000Y-110673871D01*
X149510000Y-110325000D01*
X149060000Y-110325000D01*
X149060000Y-110075000D01*
X149510000Y-110075000D01*
X149510000Y-109726128D01*
X149509999Y-109726126D01*
X149481179Y-109581240D01*
X149481177Y-109581232D01*
X149456623Y-109521953D01*
X149449154Y-109452484D01*
X149480429Y-109390004D01*
X149540518Y-109354352D01*
X149571184Y-109350500D01*
X156588816Y-109350500D01*
X156655855Y-109370185D01*
X156701610Y-109422989D01*
X156711554Y-109492147D01*
X156703377Y-109521953D01*
X156678822Y-109581232D01*
X156678820Y-109581240D01*
X156650000Y-109726126D01*
X156650000Y-110075000D01*
X157100000Y-110075000D01*
X157100000Y-110325000D01*
X156650000Y-110325000D01*
X156650000Y-110673873D01*
X156678820Y-110818759D01*
X156678822Y-110818767D01*
X156735357Y-110955254D01*
X156735362Y-110955264D01*
X156817436Y-111078096D01*
X156817439Y-111078100D01*
X156921899Y-111182560D01*
X156921903Y-111182563D01*
X157044735Y-111264637D01*
X157044745Y-111264642D01*
X157181232Y-111321177D01*
X157181240Y-111321179D01*
X157274999Y-111339829D01*
X157275000Y-111339829D01*
X157275000Y-110874242D01*
X157284204Y-110879556D01*
X157360504Y-110900000D01*
X157439496Y-110900000D01*
X157515796Y-110879556D01*
X157525000Y-110874242D01*
X157525000Y-111339829D01*
X157618759Y-111321179D01*
X157618767Y-111321177D01*
X157755254Y-111264642D01*
X157755264Y-111264637D01*
X157878096Y-111182563D01*
X157878100Y-111182560D01*
X157982560Y-111078100D01*
X157982563Y-111078096D01*
X158064637Y-110955264D01*
X158064642Y-110955254D01*
X158121177Y-110818767D01*
X158121179Y-110818759D01*
X158149999Y-110673873D01*
X158150000Y-110673871D01*
X158150000Y-110325000D01*
X157700000Y-110325000D01*
X157700000Y-110075000D01*
X158150000Y-110075000D01*
X158150000Y-109726128D01*
X158149999Y-109726126D01*
X158121179Y-109581240D01*
X158121177Y-109581232D01*
X158096623Y-109521953D01*
X158089154Y-109452484D01*
X158120429Y-109390004D01*
X158180518Y-109354352D01*
X158211184Y-109350500D01*
X159146142Y-109350500D01*
X159146144Y-109350500D01*
X159235288Y-109326614D01*
X159315212Y-109280470D01*
X159587819Y-109007863D01*
X159649142Y-108974378D01*
X159718834Y-108979362D01*
X159774767Y-109021234D01*
X159799184Y-109086698D01*
X159799500Y-109095544D01*
X159799500Y-109165891D01*
X159833608Y-109293187D01*
X159855187Y-109330562D01*
X159899500Y-109407314D01*
X159992686Y-109500500D01*
X160106814Y-109566392D01*
X160234108Y-109600500D01*
X160234110Y-109600500D01*
X160365890Y-109600500D01*
X160365892Y-109600500D01*
X160493186Y-109566392D01*
X160607314Y-109500500D01*
X160607315Y-109500498D01*
X160614352Y-109496436D01*
X160615131Y-109497786D01*
X160671671Y-109475930D01*
X160681987Y-109475500D01*
X163749435Y-109475500D01*
X163749436Y-109475500D01*
X163797186Y-109462705D01*
X163844938Y-109449910D01*
X163930562Y-109400475D01*
X164000475Y-109330562D01*
X165095414Y-108235622D01*
X165156735Y-108202139D01*
X165165426Y-108200624D01*
X165165889Y-108200500D01*
X165165892Y-108200500D01*
X165293186Y-108166392D01*
X165407314Y-108100500D01*
X165500500Y-108007314D01*
X165566392Y-107893186D01*
X165600500Y-107765892D01*
X165600500Y-107634108D01*
X165566392Y-107506814D01*
X165500500Y-107392686D01*
X165407314Y-107299500D01*
X165320712Y-107249500D01*
X165293187Y-107233608D01*
X165229539Y-107216554D01*
X165165892Y-107199500D01*
X165034108Y-107199500D01*
X164906812Y-107233608D01*
X164792686Y-107299500D01*
X164792683Y-107299502D01*
X164699502Y-107392683D01*
X164699500Y-107392686D01*
X164633608Y-107506812D01*
X164597397Y-107641958D01*
X164595893Y-107641555D01*
X164571355Y-107697002D01*
X164564375Y-107704587D01*
X163580782Y-108688181D01*
X163519459Y-108721666D01*
X163493101Y-108724500D01*
X160681987Y-108724500D01*
X160614948Y-108704815D01*
X160607733Y-108699742D01*
X160493187Y-108633608D01*
X160429539Y-108616554D01*
X160365892Y-108599500D01*
X160295544Y-108599500D01*
X160228505Y-108579815D01*
X160182750Y-108527011D01*
X160172806Y-108457853D01*
X160201831Y-108394297D01*
X160207863Y-108387819D01*
X160898680Y-107697002D01*
X161630470Y-106965212D01*
X161676614Y-106885288D01*
X161688564Y-106840691D01*
X161700500Y-106796144D01*
X161700500Y-100496544D01*
X161720185Y-100429505D01*
X161736819Y-100408863D01*
X163599303Y-98546379D01*
X176849500Y-98546379D01*
X176849500Y-98733620D01*
X176886025Y-98917243D01*
X176886027Y-98917251D01*
X176957676Y-99090228D01*
X176957681Y-99090237D01*
X177061697Y-99245907D01*
X177061700Y-99245911D01*
X177194088Y-99378299D01*
X177194092Y-99378302D01*
X177349762Y-99482318D01*
X177349768Y-99482321D01*
X177349769Y-99482322D01*
X177522749Y-99553973D01*
X177706379Y-99590499D01*
X177706383Y-99590500D01*
X177706384Y-99590500D01*
X177893617Y-99590500D01*
X177893618Y-99590499D01*
X178077251Y-99553973D01*
X178250231Y-99482322D01*
X178405908Y-99378302D01*
X178538302Y-99245908D01*
X178642322Y-99090231D01*
X178713973Y-98917251D01*
X178750500Y-98733616D01*
X178750500Y-98546384D01*
X178713973Y-98362749D01*
X178642322Y-98189769D01*
X178642321Y-98189768D01*
X178642318Y-98189762D01*
X178538302Y-98034092D01*
X178538299Y-98034088D01*
X178405911Y-97901700D01*
X178405907Y-97901697D01*
X178250237Y-97797681D01*
X178250228Y-97797676D01*
X178077251Y-97726027D01*
X178077243Y-97726025D01*
X177893620Y-97689500D01*
X177893616Y-97689500D01*
X177706384Y-97689500D01*
X177706379Y-97689500D01*
X177522756Y-97726025D01*
X177522748Y-97726027D01*
X177349771Y-97797676D01*
X177349762Y-97797681D01*
X177194092Y-97901697D01*
X177194088Y-97901700D01*
X177061700Y-98034088D01*
X177061697Y-98034092D01*
X176957681Y-98189762D01*
X176957676Y-98189771D01*
X176886027Y-98362748D01*
X176886025Y-98362756D01*
X176849500Y-98546379D01*
X163599303Y-98546379D01*
X165558863Y-96586819D01*
X165620186Y-96553334D01*
X165646544Y-96550500D01*
X174091324Y-96550500D01*
X174158363Y-96570185D01*
X174179005Y-96586819D01*
X174192686Y-96600500D01*
X174306814Y-96666392D01*
X174434108Y-96700500D01*
X174434110Y-96700500D01*
X174565890Y-96700500D01*
X174565892Y-96700500D01*
X174693186Y-96666392D01*
X174807314Y-96600500D01*
X174900500Y-96507314D01*
X174966392Y-96393186D01*
X175000500Y-96265892D01*
X175000500Y-96134108D01*
X174966392Y-96006814D01*
X174900500Y-95892686D01*
X174807314Y-95799500D01*
X174750250Y-95766554D01*
X174693187Y-95733608D01*
X174629539Y-95716554D01*
X174565892Y-95699500D01*
X174434108Y-95699500D01*
X174306812Y-95733608D01*
X174192686Y-95799500D01*
X174192683Y-95799502D01*
X174179005Y-95813181D01*
X174117682Y-95846666D01*
X174091324Y-95849500D01*
X165403856Y-95849500D01*
X165314712Y-95873386D01*
X165314709Y-95873387D01*
X165234791Y-95919527D01*
X165234786Y-95919531D01*
X163162181Y-97992137D01*
X163100858Y-98025622D01*
X163031166Y-98020638D01*
X162975233Y-97978766D01*
X162950816Y-97913302D01*
X162950500Y-97904456D01*
X162950500Y-97827527D01*
X162950500Y-97827525D01*
X162912984Y-97687515D01*
X162877820Y-97626610D01*
X162840511Y-97561988D01*
X162840506Y-97561982D01*
X162738017Y-97459493D01*
X162738011Y-97459488D01*
X162612488Y-97387017D01*
X162612489Y-97387017D01*
X162601006Y-97383940D01*
X162472475Y-97349500D01*
X162327525Y-97349500D01*
X162187515Y-97387016D01*
X162108063Y-97432887D01*
X162046064Y-97449500D01*
X160740691Y-97449500D01*
X160671944Y-97467920D01*
X160626112Y-97480201D01*
X160626107Y-97480204D01*
X160582695Y-97505267D01*
X160582696Y-97505268D01*
X160523389Y-97539508D01*
X160523383Y-97539513D01*
X160039513Y-98023383D01*
X160039509Y-98023389D01*
X159980201Y-98126112D01*
X159980200Y-98126117D01*
X159949500Y-98240691D01*
X159949500Y-106362035D01*
X159929815Y-106429074D01*
X159913181Y-106449716D01*
X159149716Y-107213181D01*
X159088393Y-107246666D01*
X159062035Y-107249500D01*
X158060523Y-107249500D01*
X157993484Y-107229815D01*
X157947729Y-107177011D01*
X157937785Y-107107853D01*
X157966810Y-107044297D01*
X157972842Y-107037819D01*
X157982560Y-107028100D01*
X157982563Y-107028096D01*
X158064637Y-106905264D01*
X158064642Y-106905254D01*
X158121177Y-106768767D01*
X158121179Y-106768759D01*
X158149999Y-106623873D01*
X158150000Y-106623871D01*
X158150000Y-106125000D01*
X157700000Y-106125000D01*
X157700000Y-105875000D01*
X158150000Y-105875000D01*
X158150000Y-105790629D01*
X158169685Y-105723590D01*
X158222489Y-105677835D01*
X158291647Y-105667891D01*
X158335999Y-105683241D01*
X158387515Y-105712984D01*
X158527525Y-105750500D01*
X158527528Y-105750500D01*
X158672472Y-105750500D01*
X158672475Y-105750500D01*
X158812485Y-105712984D01*
X158938015Y-105640509D01*
X159040509Y-105538015D01*
X159112984Y-105412485D01*
X159150500Y-105272475D01*
X159150500Y-105127525D01*
X159112984Y-104987515D01*
X159103970Y-104971903D01*
X159055246Y-104887511D01*
X159040509Y-104861985D01*
X158938015Y-104759491D01*
X158938013Y-104759490D01*
X158938011Y-104759488D01*
X158812488Y-104687017D01*
X158812489Y-104687017D01*
X158801006Y-104683940D01*
X158672475Y-104649500D01*
X158672472Y-104649500D01*
X158667255Y-104649500D01*
X158600216Y-104629815D01*
X158579574Y-104613181D01*
X157936819Y-103970426D01*
X157903334Y-103909103D01*
X157900500Y-103882745D01*
X157900500Y-102329386D01*
X157920185Y-102262347D01*
X157936819Y-102241705D01*
X157940509Y-102238015D01*
X158012984Y-102112485D01*
X158050500Y-101972475D01*
X158050500Y-101827525D01*
X158012984Y-101687515D01*
X157940509Y-101561985D01*
X157838015Y-101459491D01*
X157838013Y-101459490D01*
X157838011Y-101459488D01*
X157712488Y-101387017D01*
X157712489Y-101387017D01*
X157701006Y-101383940D01*
X157572475Y-101349500D01*
X157427525Y-101349500D01*
X157298993Y-101383940D01*
X157287511Y-101387017D01*
X157161988Y-101459488D01*
X157161982Y-101459493D01*
X157059493Y-101561982D01*
X157059488Y-101561988D01*
X156987017Y-101687511D01*
X156987016Y-101687515D01*
X156949500Y-101827525D01*
X156949500Y-101972475D01*
X156987016Y-102112485D01*
X156987017Y-102112488D01*
X157059488Y-102238011D01*
X157059493Y-102238017D01*
X157063181Y-102241705D01*
X157096666Y-102303028D01*
X157099500Y-102329386D01*
X157099500Y-104152726D01*
X157126793Y-104254589D01*
X157132638Y-104264712D01*
X157179520Y-104345913D01*
X157179522Y-104345915D01*
X157335144Y-104501537D01*
X157368629Y-104562860D01*
X157363645Y-104632552D01*
X157321773Y-104688485D01*
X157271655Y-104710835D01*
X157181238Y-104728820D01*
X157181232Y-104728822D01*
X157044745Y-104785357D01*
X157044735Y-104785362D01*
X156921903Y-104867436D01*
X156921899Y-104867439D01*
X156817439Y-104971899D01*
X156817436Y-104971903D01*
X156735362Y-105094735D01*
X156735357Y-105094745D01*
X156678822Y-105231232D01*
X156678820Y-105231240D01*
X156650000Y-105376126D01*
X156650000Y-105875000D01*
X157100000Y-105875000D01*
X157100000Y-106125000D01*
X156650000Y-106125000D01*
X156634361Y-106140638D01*
X156630315Y-106154420D01*
X156577511Y-106200175D01*
X156508353Y-106210119D01*
X156444797Y-106181094D01*
X156436429Y-106172214D01*
X156436262Y-106172382D01*
X156323367Y-106059487D01*
X156323365Y-106059485D01*
X156246675Y-106015208D01*
X156192136Y-105983719D01*
X156118950Y-105964109D01*
X156045766Y-105944500D01*
X155894234Y-105944500D01*
X155747863Y-105983719D01*
X155616635Y-106059485D01*
X155616632Y-106059487D01*
X155509487Y-106166632D01*
X155509485Y-106166635D01*
X155433719Y-106297863D01*
X155406486Y-106399500D01*
X155394500Y-106444234D01*
X155394500Y-106595766D01*
X155408898Y-106649500D01*
X155433719Y-106742136D01*
X155464899Y-106796140D01*
X155509485Y-106873365D01*
X155616635Y-106980515D01*
X155616636Y-106980516D01*
X155616638Y-106980517D01*
X155681756Y-107018113D01*
X155729972Y-107068680D01*
X155743194Y-107137287D01*
X155717226Y-107202152D01*
X155660312Y-107242680D01*
X155619756Y-107249500D01*
X154245544Y-107249500D01*
X154178505Y-107229815D01*
X154132750Y-107177011D01*
X154122806Y-107107853D01*
X154151831Y-107044297D01*
X154157863Y-107037819D01*
X154609353Y-106586329D01*
X155080470Y-106115212D01*
X155126614Y-106035288D01*
X155131993Y-106015212D01*
X155150500Y-105946144D01*
X155150500Y-104453856D01*
X155126614Y-104364712D01*
X155120346Y-104353856D01*
X155115760Y-104345912D01*
X155115758Y-104345910D01*
X155111198Y-104338011D01*
X155080470Y-104284788D01*
X154886819Y-104091137D01*
X154853334Y-104029814D01*
X154850500Y-104003456D01*
X154850500Y-103927527D01*
X154850500Y-103927525D01*
X154812984Y-103787515D01*
X154746565Y-103672475D01*
X154740511Y-103661988D01*
X154740506Y-103661982D01*
X154638017Y-103559493D01*
X154638011Y-103559488D01*
X154512488Y-103487017D01*
X154512489Y-103487017D01*
X154501006Y-103483940D01*
X154372475Y-103449500D01*
X154227525Y-103449500D01*
X154098993Y-103483940D01*
X154087511Y-103487017D01*
X153961988Y-103559488D01*
X153961982Y-103559493D01*
X153859493Y-103661982D01*
X153859488Y-103661988D01*
X153787017Y-103787511D01*
X153787016Y-103787515D01*
X153749500Y-103927525D01*
X153749500Y-104072475D01*
X153779595Y-104184788D01*
X153787017Y-104212488D01*
X153859488Y-104338011D01*
X153859490Y-104338013D01*
X153859491Y-104338015D01*
X153961985Y-104440509D01*
X153961986Y-104440510D01*
X153961988Y-104440511D01*
X154087511Y-104512982D01*
X154087512Y-104512982D01*
X154087515Y-104512984D01*
X154227525Y-104550500D01*
X154303456Y-104550500D01*
X154370495Y-104570185D01*
X154391137Y-104586819D01*
X154413181Y-104608863D01*
X154446666Y-104670186D01*
X154449500Y-104696544D01*
X154449500Y-105703456D01*
X154429815Y-105770495D01*
X154413181Y-105791137D01*
X153591137Y-106613181D01*
X153529814Y-106646666D01*
X153503456Y-106649500D01*
X152696543Y-106649500D01*
X152629504Y-106629815D01*
X152608862Y-106613181D01*
X151686819Y-105691137D01*
X151653334Y-105629814D01*
X151650500Y-105603456D01*
X151650500Y-104353858D01*
X151650500Y-104353856D01*
X151637836Y-104306593D01*
X151639499Y-104236743D01*
X151678662Y-104178881D01*
X151742891Y-104151377D01*
X151757611Y-104150500D01*
X151772472Y-104150500D01*
X151772475Y-104150500D01*
X151912485Y-104112984D01*
X152038015Y-104040509D01*
X152140509Y-103938015D01*
X152212984Y-103812485D01*
X152250500Y-103672475D01*
X152250500Y-103527525D01*
X152212984Y-103387515D01*
X152140509Y-103261985D01*
X152038015Y-103159491D01*
X152038013Y-103159490D01*
X152038011Y-103159488D01*
X151912488Y-103087017D01*
X151912489Y-103087017D01*
X151901006Y-103083940D01*
X151772475Y-103049500D01*
X151772472Y-103049500D01*
X151696544Y-103049500D01*
X151629505Y-103029815D01*
X151608863Y-103013181D01*
X151515213Y-102919531D01*
X151515208Y-102919527D01*
X151435290Y-102873387D01*
X151435289Y-102873386D01*
X151435288Y-102873386D01*
X151346144Y-102849500D01*
X151346143Y-102849500D01*
X149696544Y-102849500D01*
X149629505Y-102829815D01*
X149608863Y-102813181D01*
X147723207Y-100927525D01*
X149949500Y-100927525D01*
X149949500Y-101072475D01*
X149987016Y-101212485D01*
X149987017Y-101212488D01*
X150059488Y-101338011D01*
X150059490Y-101338013D01*
X150059491Y-101338015D01*
X150161985Y-101440509D01*
X150161986Y-101440510D01*
X150161988Y-101440511D01*
X150287511Y-101512982D01*
X150287512Y-101512982D01*
X150287515Y-101512984D01*
X150427525Y-101550500D01*
X150427528Y-101550500D01*
X150572472Y-101550500D01*
X150572475Y-101550500D01*
X150712485Y-101512984D01*
X150791936Y-101467112D01*
X150853936Y-101450500D01*
X152059308Y-101450500D01*
X152059309Y-101450500D01*
X152149673Y-101426286D01*
X152173887Y-101419799D01*
X152276614Y-101360489D01*
X152860490Y-100776614D01*
X152919799Y-100673887D01*
X152929010Y-100639511D01*
X152950500Y-100559309D01*
X152950500Y-98853935D01*
X152967112Y-98791936D01*
X153012984Y-98712485D01*
X153050500Y-98572475D01*
X153050500Y-98427525D01*
X153012984Y-98287515D01*
X152956551Y-98189771D01*
X152940511Y-98161988D01*
X152940506Y-98161982D01*
X152838017Y-98059493D01*
X152838011Y-98059488D01*
X152712488Y-97987017D01*
X152712489Y-97987017D01*
X152701006Y-97983940D01*
X152572475Y-97949500D01*
X152427525Y-97949500D01*
X152298993Y-97983940D01*
X152287511Y-97987017D01*
X152161988Y-98059488D01*
X152161982Y-98059493D01*
X152059493Y-98161982D01*
X152059488Y-98161988D01*
X151987017Y-98287511D01*
X151987016Y-98287515D01*
X151949500Y-98427525D01*
X151949500Y-98572475D01*
X151987016Y-98712485D01*
X152032887Y-98791936D01*
X152049500Y-98853935D01*
X152049500Y-100262034D01*
X152029815Y-100329073D01*
X152013185Y-100349710D01*
X151849714Y-100513182D01*
X151788393Y-100546666D01*
X151762035Y-100549500D01*
X150853936Y-100549500D01*
X150791936Y-100532887D01*
X150712485Y-100487016D01*
X150572475Y-100449500D01*
X150427525Y-100449500D01*
X150298993Y-100483940D01*
X150287511Y-100487017D01*
X150161988Y-100559488D01*
X150161982Y-100559493D01*
X150059493Y-100661982D01*
X150059488Y-100661988D01*
X149987017Y-100787511D01*
X149987016Y-100787515D01*
X149949500Y-100927525D01*
X147723207Y-100927525D01*
X146886819Y-100091137D01*
X146853334Y-100029814D01*
X146850500Y-100003456D01*
X146850500Y-97096543D01*
X146870185Y-97029504D01*
X146886819Y-97008862D01*
X147008862Y-96886819D01*
X147070185Y-96853334D01*
X147096543Y-96850500D01*
X147620641Y-96850500D01*
X147687680Y-96870185D01*
X147694894Y-96875257D01*
X147695312Y-96875498D01*
X147695314Y-96875500D01*
X147809442Y-96941392D01*
X147936736Y-96975500D01*
X147936738Y-96975500D01*
X148068518Y-96975500D01*
X148068520Y-96975500D01*
X148195814Y-96941392D01*
X148309942Y-96875500D01*
X148403128Y-96782314D01*
X148469020Y-96668186D01*
X148503128Y-96540892D01*
X148503128Y-96440612D01*
X148522813Y-96373573D01*
X148565126Y-96333226D01*
X148673434Y-96270695D01*
X148766620Y-96177509D01*
X148832512Y-96063381D01*
X148866620Y-95936087D01*
X148866620Y-95804303D01*
X148832512Y-95677009D01*
X148766620Y-95562881D01*
X148673434Y-95469695D01*
X148616370Y-95436749D01*
X148559307Y-95403803D01*
X148463186Y-95378048D01*
X148432012Y-95369695D01*
X148300228Y-95369695D01*
X148172932Y-95403803D01*
X148058806Y-95469695D01*
X148058803Y-95469697D01*
X148045125Y-95483376D01*
X147983802Y-95516861D01*
X147957444Y-95519695D01*
X147175348Y-95519695D01*
X147108309Y-95500010D01*
X147062554Y-95447206D01*
X147052610Y-95378048D01*
X147081635Y-95314492D01*
X147087667Y-95308014D01*
X149161829Y-93233852D01*
X151480470Y-90915212D01*
X151526614Y-90835288D01*
X151541735Y-90778856D01*
X151550500Y-90746144D01*
X151550500Y-88227670D01*
X153507492Y-88227670D01*
X153507492Y-88372620D01*
X153545008Y-88512630D01*
X153545009Y-88512633D01*
X153617480Y-88638156D01*
X153617485Y-88638162D01*
X153671173Y-88691850D01*
X153704658Y-88753173D01*
X153707492Y-88779531D01*
X153707492Y-89904135D01*
X153731378Y-89993279D01*
X153731379Y-89993282D01*
X153777519Y-90073200D01*
X153777521Y-90073203D01*
X153777522Y-90073204D01*
X155084788Y-91380470D01*
X155154085Y-91420478D01*
X155154087Y-91420480D01*
X155161342Y-91424668D01*
X155164712Y-91426614D01*
X155253856Y-91450500D01*
X155253857Y-91450500D01*
X155346144Y-91450500D01*
X157120614Y-91450500D01*
X157187653Y-91470185D01*
X157208295Y-91486819D01*
X157261985Y-91540509D01*
X157261986Y-91540510D01*
X157261988Y-91540511D01*
X157387511Y-91612982D01*
X157387512Y-91612982D01*
X157387515Y-91612984D01*
X157527525Y-91650500D01*
X157527528Y-91650500D01*
X157672472Y-91650500D01*
X157672475Y-91650500D01*
X157812485Y-91612984D01*
X157938015Y-91540509D01*
X158040509Y-91438015D01*
X158106787Y-91323217D01*
X158157354Y-91275002D01*
X158225961Y-91261779D01*
X158290826Y-91287747D01*
X158301855Y-91297537D01*
X159684788Y-92680470D01*
X159754085Y-92720478D01*
X159754087Y-92720480D01*
X159761342Y-92724668D01*
X159764712Y-92726614D01*
X159853856Y-92750500D01*
X164020614Y-92750500D01*
X164087653Y-92770185D01*
X164108295Y-92786819D01*
X164161985Y-92840509D01*
X164161986Y-92840510D01*
X164161988Y-92840511D01*
X164287511Y-92912982D01*
X164287512Y-92912982D01*
X164287515Y-92912984D01*
X164427525Y-92950500D01*
X164427528Y-92950500D01*
X164572472Y-92950500D01*
X164572475Y-92950500D01*
X164712485Y-92912984D01*
X164838015Y-92840509D01*
X164940509Y-92738015D01*
X165012984Y-92612485D01*
X165050500Y-92472475D01*
X165050500Y-92327525D01*
X165012984Y-92187515D01*
X164940509Y-92061985D01*
X164838015Y-91959491D01*
X164838013Y-91959490D01*
X164838011Y-91959488D01*
X164712488Y-91887017D01*
X164712489Y-91887017D01*
X164688055Y-91880470D01*
X164572475Y-91849500D01*
X164427525Y-91849500D01*
X164311945Y-91880470D01*
X164287511Y-91887017D01*
X164161988Y-91959488D01*
X164161982Y-91959493D01*
X164108295Y-92013181D01*
X164046972Y-92046666D01*
X164020614Y-92049500D01*
X161564666Y-92049500D01*
X161497627Y-92029815D01*
X161451872Y-91977011D01*
X161441928Y-91907853D01*
X161444891Y-91893407D01*
X161446603Y-91887017D01*
X161450500Y-91872475D01*
X161450500Y-91727525D01*
X161412984Y-91587515D01*
X161385843Y-91540506D01*
X161340511Y-91461988D01*
X161340506Y-91461982D01*
X161238017Y-91359493D01*
X161238011Y-91359488D01*
X161112488Y-91287017D01*
X161112489Y-91287017D01*
X161101006Y-91283940D01*
X160972475Y-91249500D01*
X160827525Y-91249500D01*
X160827520Y-91249500D01*
X160818919Y-91251805D01*
X160754747Y-91251805D01*
X160751090Y-91250825D01*
X160746144Y-91249500D01*
X160746143Y-91249500D01*
X160396544Y-91249500D01*
X160329505Y-91229815D01*
X160308863Y-91213181D01*
X159057863Y-89962181D01*
X159024378Y-89900858D01*
X159029362Y-89831166D01*
X159071234Y-89775233D01*
X159136698Y-89750816D01*
X159145544Y-89750500D01*
X166403456Y-89750500D01*
X166470495Y-89770185D01*
X166491137Y-89786819D01*
X167213181Y-90508863D01*
X167246666Y-90570186D01*
X167249500Y-90596544D01*
X167249500Y-94279637D01*
X167229815Y-94346676D01*
X167187501Y-94387024D01*
X167061985Y-94459491D01*
X167061982Y-94459493D01*
X166959493Y-94561982D01*
X166959488Y-94561988D01*
X166887017Y-94687511D01*
X166887016Y-94687515D01*
X166849500Y-94827525D01*
X166849500Y-94972475D01*
X166876681Y-95073915D01*
X166887017Y-95112488D01*
X166959488Y-95238011D01*
X166959490Y-95238013D01*
X166959491Y-95238015D01*
X167061985Y-95340509D01*
X167061986Y-95340510D01*
X167061988Y-95340511D01*
X167187511Y-95412982D01*
X167187512Y-95412982D01*
X167187515Y-95412984D01*
X167327525Y-95450500D01*
X167327528Y-95450500D01*
X167472472Y-95450500D01*
X167472475Y-95450500D01*
X167612485Y-95412984D01*
X167738015Y-95340509D01*
X167840509Y-95238015D01*
X167912984Y-95112485D01*
X167950500Y-94972475D01*
X167950500Y-94827525D01*
X167948197Y-94818930D01*
X167948196Y-94754742D01*
X167950500Y-94746144D01*
X167950500Y-93466428D01*
X176850000Y-93466428D01*
X176850000Y-93653571D01*
X176886506Y-93837097D01*
X176886508Y-93837105D01*
X176958119Y-94009991D01*
X176958124Y-94009999D01*
X177044281Y-94138940D01*
X177479077Y-93704145D01*
X177519930Y-93774905D01*
X177585095Y-93840070D01*
X177655853Y-93880922D01*
X177221057Y-94315718D01*
X177350008Y-94401880D01*
X177522894Y-94473491D01*
X177522902Y-94473493D01*
X177706428Y-94509999D01*
X177706431Y-94510000D01*
X177893569Y-94510000D01*
X177893571Y-94509999D01*
X178077097Y-94473493D01*
X178077105Y-94473491D01*
X178249991Y-94401880D01*
X178378941Y-94315718D01*
X178378941Y-94315717D01*
X177944146Y-93880922D01*
X178014905Y-93840070D01*
X178080070Y-93774905D01*
X178120922Y-93704146D01*
X178555717Y-94138941D01*
X178555718Y-94138941D01*
X178641880Y-94009991D01*
X178713491Y-93837105D01*
X178713493Y-93837097D01*
X178749999Y-93653571D01*
X178750000Y-93653569D01*
X178750000Y-93466430D01*
X178749999Y-93466428D01*
X178713493Y-93282902D01*
X178713491Y-93282894D01*
X178641880Y-93110008D01*
X178555718Y-92981057D01*
X178120922Y-93415853D01*
X178080070Y-93345095D01*
X178014905Y-93279930D01*
X177944145Y-93239077D01*
X178378940Y-92804281D01*
X178378940Y-92804280D01*
X178249999Y-92718124D01*
X178249991Y-92718119D01*
X178077105Y-92646508D01*
X178077097Y-92646506D01*
X177893570Y-92610000D01*
X177706430Y-92610000D01*
X177522902Y-92646506D01*
X177522894Y-92646508D01*
X177350003Y-92718121D01*
X177221058Y-92804279D01*
X177221058Y-92804281D01*
X177655854Y-93239077D01*
X177585095Y-93279930D01*
X177519930Y-93345095D01*
X177479077Y-93415854D01*
X177044281Y-92981058D01*
X177044279Y-92981058D01*
X176958121Y-93110003D01*
X176886508Y-93282894D01*
X176886506Y-93282902D01*
X176850000Y-93466428D01*
X167950500Y-93466428D01*
X167950500Y-90353856D01*
X167926614Y-90264712D01*
X167880470Y-90184788D01*
X166815212Y-89119530D01*
X166815211Y-89119529D01*
X166815208Y-89119527D01*
X166735290Y-89073387D01*
X166735289Y-89073386D01*
X166735288Y-89073386D01*
X166646144Y-89049500D01*
X166646143Y-89049500D01*
X158479386Y-89049500D01*
X158412347Y-89029815D01*
X158391705Y-89013181D01*
X158338017Y-88959493D01*
X158338011Y-88959488D01*
X158212488Y-88887017D01*
X158212489Y-88887017D01*
X158201006Y-88883940D01*
X158072475Y-88849500D01*
X157927525Y-88849500D01*
X157798993Y-88883940D01*
X157787511Y-88887017D01*
X157661988Y-88959488D01*
X157661982Y-88959493D01*
X157559493Y-89061982D01*
X157559488Y-89061988D01*
X157487017Y-89187511D01*
X157487016Y-89187515D01*
X157449500Y-89327525D01*
X157449500Y-89327527D01*
X157449500Y-89472474D01*
X157455109Y-89493407D01*
X157453446Y-89563257D01*
X157414283Y-89621119D01*
X157350055Y-89648623D01*
X157335334Y-89649500D01*
X156196544Y-89649500D01*
X156129505Y-89629815D01*
X156108863Y-89613181D01*
X155980200Y-89484518D01*
X155946715Y-89423195D01*
X155943881Y-89396837D01*
X155943881Y-88785302D01*
X155963566Y-88718263D01*
X155980200Y-88697621D01*
X155985971Y-88691850D01*
X156033890Y-88643931D01*
X156106365Y-88518401D01*
X156143881Y-88378391D01*
X156143881Y-88233441D01*
X156106365Y-88093431D01*
X156105329Y-88091637D01*
X156033892Y-87967904D01*
X156033887Y-87967898D01*
X155931398Y-87865409D01*
X155931392Y-87865404D01*
X155805869Y-87792933D01*
X155805870Y-87792933D01*
X155784332Y-87787162D01*
X155665856Y-87755416D01*
X155520906Y-87755416D01*
X155400185Y-87787763D01*
X155330335Y-87786100D01*
X155272473Y-87746937D01*
X155269718Y-87743477D01*
X155267039Y-87739986D01*
X155164549Y-87637496D01*
X155164543Y-87637491D01*
X155039020Y-87565020D01*
X155039021Y-87565020D01*
X155027538Y-87561943D01*
X154899007Y-87527503D01*
X154754057Y-87527503D01*
X154625525Y-87561943D01*
X154614043Y-87565020D01*
X154488520Y-87637491D01*
X154380276Y-87745735D01*
X154379146Y-87744605D01*
X154330286Y-87780272D01*
X154260539Y-87784417D01*
X154256272Y-87783354D01*
X154130467Y-87749645D01*
X153985517Y-87749645D01*
X153871217Y-87780272D01*
X153845503Y-87787162D01*
X153719980Y-87859633D01*
X153719974Y-87859638D01*
X153617485Y-87962127D01*
X153617480Y-87962133D01*
X153545009Y-88087656D01*
X153545008Y-88087660D01*
X153507492Y-88227670D01*
X151550500Y-88227670D01*
X151550500Y-83457525D01*
X151545705Y-83439629D01*
X151545705Y-83380297D01*
X151545510Y-83380272D01*
X151545705Y-83378783D01*
X151545705Y-83375443D01*
X151546571Y-83372215D01*
X151546571Y-83227265D01*
X151509055Y-83087255D01*
X151436580Y-82961725D01*
X151334086Y-82859231D01*
X151334084Y-82859230D01*
X151334082Y-82859228D01*
X151208559Y-82786757D01*
X151208560Y-82786757D01*
X151197077Y-82783680D01*
X151068546Y-82749240D01*
X150923596Y-82749240D01*
X150795064Y-82783680D01*
X150783582Y-82786757D01*
X150658059Y-82859228D01*
X150658053Y-82859233D01*
X150555564Y-82961722D01*
X150555559Y-82961728D01*
X150483088Y-83087251D01*
X150483087Y-83087255D01*
X150445571Y-83227265D01*
X150445571Y-83372215D01*
X150468430Y-83457525D01*
X150483088Y-83512228D01*
X150555559Y-83637751D01*
X150555561Y-83637753D01*
X150555562Y-83637755D01*
X150658056Y-83740249D01*
X150783586Y-83812724D01*
X150783588Y-83812724D01*
X150787500Y-83814983D01*
X150835715Y-83865550D01*
X150849500Y-83922370D01*
X150849500Y-90503456D01*
X150829815Y-90570495D01*
X150813181Y-90591137D01*
X147201855Y-94202462D01*
X147140532Y-94235947D01*
X147070840Y-94230963D01*
X147014907Y-94189091D01*
X147006787Y-94176781D01*
X146968178Y-94109909D01*
X146940509Y-94061985D01*
X146838015Y-93959491D01*
X146838013Y-93959490D01*
X146838011Y-93959488D01*
X146712488Y-93887017D01*
X146712489Y-93887017D01*
X146701006Y-93883940D01*
X146572475Y-93849500D01*
X146545543Y-93849500D01*
X146478504Y-93829815D01*
X146432749Y-93777011D01*
X146422805Y-93707853D01*
X146451830Y-93644297D01*
X146457862Y-93637819D01*
X147549071Y-92546610D01*
X148780469Y-91315212D01*
X148826614Y-91235288D01*
X148842634Y-91175499D01*
X148850500Y-91146144D01*
X148850500Y-88158676D01*
X148870185Y-88091637D01*
X148886819Y-88070995D01*
X148900500Y-88057314D01*
X148966392Y-87943186D01*
X149000500Y-87815892D01*
X149000500Y-87684108D01*
X148966392Y-87556814D01*
X148900500Y-87442686D01*
X148807314Y-87349500D01*
X148727564Y-87303456D01*
X148693187Y-87283608D01*
X148629539Y-87266554D01*
X148565892Y-87249500D01*
X148434108Y-87249500D01*
X148306812Y-87283608D01*
X148192686Y-87349500D01*
X148192683Y-87349502D01*
X148099502Y-87442683D01*
X148099500Y-87442686D01*
X148033608Y-87556812D01*
X148006680Y-87657313D01*
X147999500Y-87684108D01*
X147999500Y-87815892D01*
X148011220Y-87859633D01*
X148033608Y-87943187D01*
X148047877Y-87967901D01*
X148099500Y-88057314D01*
X148099502Y-88057316D01*
X148113181Y-88070995D01*
X148146666Y-88132318D01*
X148149500Y-88158676D01*
X148149500Y-90903456D01*
X148129815Y-90970495D01*
X148113181Y-90991137D01*
X147312181Y-91792137D01*
X147250858Y-91825622D01*
X147181166Y-91820638D01*
X147125233Y-91778766D01*
X147100816Y-91713302D01*
X147100500Y-91704456D01*
X147100500Y-88046544D01*
X147120185Y-87979505D01*
X147136819Y-87958863D01*
X147208863Y-87886819D01*
X147270186Y-87853334D01*
X147296544Y-87850500D01*
X147315890Y-87850500D01*
X147315892Y-87850500D01*
X147443186Y-87816392D01*
X147557314Y-87750500D01*
X147650500Y-87657314D01*
X147716392Y-87543186D01*
X147750500Y-87415892D01*
X147750500Y-87284108D01*
X147716392Y-87156814D01*
X147650500Y-87042686D01*
X147557314Y-86949500D01*
X147500250Y-86916554D01*
X147443187Y-86883608D01*
X147379539Y-86866554D01*
X147315892Y-86849500D01*
X147184108Y-86849500D01*
X147056812Y-86883608D01*
X146942686Y-86949500D01*
X146942683Y-86949502D01*
X146849502Y-87042683D01*
X146849500Y-87042686D01*
X146783608Y-87156812D01*
X146749500Y-87284108D01*
X146749500Y-87303456D01*
X146729815Y-87370495D01*
X146713181Y-87391137D01*
X146469531Y-87634786D01*
X146469529Y-87634789D01*
X146429656Y-87703853D01*
X146429654Y-87703855D01*
X146423386Y-87714709D01*
X146423386Y-87714710D01*
X146399500Y-87803856D01*
X146399500Y-91803456D01*
X146379815Y-91870495D01*
X146363181Y-91891137D01*
X144694927Y-93559391D01*
X144633604Y-93592876D01*
X144563912Y-93587892D01*
X144507979Y-93546020D01*
X144483562Y-93480556D01*
X144483246Y-93471710D01*
X144483246Y-93414447D01*
X144483246Y-93414445D01*
X144445730Y-93274435D01*
X144422299Y-93233852D01*
X144373257Y-93148908D01*
X144373252Y-93148902D01*
X144319565Y-93095215D01*
X144286080Y-93033892D01*
X144283246Y-93007534D01*
X144283246Y-91197218D01*
X144299860Y-91135216D01*
X144312984Y-91112485D01*
X144350500Y-90972475D01*
X144350500Y-90827525D01*
X144312984Y-90687515D01*
X144245422Y-90570495D01*
X144240511Y-90561988D01*
X144240506Y-90561982D01*
X144138017Y-90459493D01*
X144138011Y-90459488D01*
X144012488Y-90387017D01*
X144012489Y-90387017D01*
X144001006Y-90383940D01*
X143872475Y-90349500D01*
X143727525Y-90349500D01*
X143598993Y-90383940D01*
X143587511Y-90387017D01*
X143461988Y-90459488D01*
X143461982Y-90459493D01*
X143359493Y-90561982D01*
X143359488Y-90561988D01*
X143287017Y-90687511D01*
X143287016Y-90687515D01*
X143249500Y-90827525D01*
X143249500Y-90972475D01*
X143287016Y-91112485D01*
X143287017Y-91112488D01*
X143359488Y-91238011D01*
X143359490Y-91238013D01*
X143359491Y-91238015D01*
X143461985Y-91340509D01*
X143520245Y-91374145D01*
X143568461Y-91424710D01*
X143582246Y-91481532D01*
X143582246Y-93007534D01*
X143562561Y-93074573D01*
X143545927Y-93095215D01*
X143492239Y-93148902D01*
X143492234Y-93148908D01*
X143419763Y-93274431D01*
X143419762Y-93274435D01*
X143382246Y-93414445D01*
X143382246Y-93414447D01*
X143382246Y-93559391D01*
X143382245Y-93559391D01*
X143419763Y-93699408D01*
X143492234Y-93824931D01*
X143492236Y-93824933D01*
X143492237Y-93824935D01*
X143594731Y-93927429D01*
X143594732Y-93927430D01*
X143594734Y-93927431D01*
X143720257Y-93999902D01*
X143720258Y-93999902D01*
X143720261Y-93999904D01*
X143860271Y-94037420D01*
X143860274Y-94037420D01*
X143917536Y-94037420D01*
X143984575Y-94057105D01*
X144030330Y-94109909D01*
X144040274Y-94179067D01*
X144011249Y-94242623D01*
X144005217Y-94249101D01*
X143244531Y-95009786D01*
X143244529Y-95009789D01*
X143207507Y-95073915D01*
X143207505Y-95073917D01*
X143198387Y-95089709D01*
X143174500Y-95178856D01*
X143174500Y-102928456D01*
X143154815Y-102995495D01*
X143138181Y-103016137D01*
X141119531Y-105034786D01*
X141119527Y-105034791D01*
X141073605Y-105114332D01*
X141073387Y-105114707D01*
X141049500Y-105203856D01*
X141049500Y-110803456D01*
X141029815Y-110870495D01*
X141013181Y-110891137D01*
X140556137Y-111348181D01*
X140494814Y-111381666D01*
X140468456Y-111384500D01*
X128658676Y-111384500D01*
X128591637Y-111364815D01*
X128570995Y-111348181D01*
X128557316Y-111334502D01*
X128557314Y-111334500D01*
X128500250Y-111301554D01*
X128443187Y-111268608D01*
X128379539Y-111251554D01*
X128315892Y-111234500D01*
X128184108Y-111234500D01*
X128056812Y-111268608D01*
X127942686Y-111334500D01*
X127942683Y-111334502D01*
X127849502Y-111427683D01*
X127849500Y-111427686D01*
X127783608Y-111541812D01*
X127757832Y-111638011D01*
X127749500Y-111669108D01*
X117411229Y-111669108D01*
X117390253Y-111630694D01*
X117382909Y-111614611D01*
X117314336Y-111430760D01*
X117309354Y-111413790D01*
X117302982Y-111384500D01*
X117267647Y-111222063D01*
X117265130Y-111204556D01*
X117256085Y-111078096D01*
X117250816Y-111004418D01*
X117250500Y-110995572D01*
X117250500Y-97453389D01*
X138299500Y-97453389D01*
X138299500Y-97626610D01*
X138326594Y-97797681D01*
X138326598Y-97797701D01*
X138380127Y-97962445D01*
X138458768Y-98116788D01*
X138560586Y-98256928D01*
X138683072Y-98379414D01*
X138823212Y-98481232D01*
X138977555Y-98559873D01*
X139142299Y-98613402D01*
X139313389Y-98640500D01*
X139313390Y-98640500D01*
X139486610Y-98640500D01*
X139486611Y-98640500D01*
X139657701Y-98613402D01*
X139822445Y-98559873D01*
X139976788Y-98481232D01*
X140116928Y-98379414D01*
X140239414Y-98256928D01*
X140341232Y-98116788D01*
X140419873Y-97962445D01*
X140473402Y-97797701D01*
X140500500Y-97626611D01*
X140500500Y-97453389D01*
X140473402Y-97282299D01*
X140419873Y-97117555D01*
X140341232Y-96963212D01*
X140239414Y-96823072D01*
X140116928Y-96700586D01*
X139976788Y-96598768D01*
X139822445Y-96520127D01*
X139657701Y-96466598D01*
X139657699Y-96466597D01*
X139657698Y-96466597D01*
X139526271Y-96445781D01*
X139486611Y-96439500D01*
X139313389Y-96439500D01*
X139273728Y-96445781D01*
X139142302Y-96466597D01*
X138977552Y-96520128D01*
X138823211Y-96598768D01*
X138743256Y-96656859D01*
X138683072Y-96700586D01*
X138683070Y-96700588D01*
X138683069Y-96700588D01*
X138560588Y-96823069D01*
X138560588Y-96823070D01*
X138560586Y-96823072D01*
X138522495Y-96875500D01*
X138458768Y-96963211D01*
X138380128Y-97117552D01*
X138326597Y-97282302D01*
X138299500Y-97453389D01*
X117250500Y-97453389D01*
X117250500Y-94913389D01*
X138299500Y-94913389D01*
X138299500Y-95086611D01*
X138326598Y-95257701D01*
X138380127Y-95422445D01*
X138458768Y-95576788D01*
X138560586Y-95716928D01*
X138683072Y-95839414D01*
X138823212Y-95941232D01*
X138977555Y-96019873D01*
X139142299Y-96073402D01*
X139313389Y-96100500D01*
X139313390Y-96100500D01*
X139486610Y-96100500D01*
X139486611Y-96100500D01*
X139657701Y-96073402D01*
X139822445Y-96019873D01*
X139976788Y-95941232D01*
X140116928Y-95839414D01*
X140239414Y-95716928D01*
X140341232Y-95576788D01*
X140419873Y-95422445D01*
X140473402Y-95257701D01*
X140500500Y-95086611D01*
X140500500Y-94913389D01*
X140473402Y-94742299D01*
X140419873Y-94577555D01*
X140341232Y-94423212D01*
X140239414Y-94283072D01*
X140116928Y-94160586D01*
X139976788Y-94058768D01*
X139822445Y-93980127D01*
X139657701Y-93926598D01*
X139657699Y-93926597D01*
X139657698Y-93926597D01*
X139526271Y-93905781D01*
X139486611Y-93899500D01*
X139313389Y-93899500D01*
X139273728Y-93905781D01*
X139142302Y-93926597D01*
X138977552Y-93980128D01*
X138823211Y-94058768D01*
X138752823Y-94109909D01*
X138683072Y-94160586D01*
X138683070Y-94160588D01*
X138683069Y-94160588D01*
X138560588Y-94283069D01*
X138560588Y-94283070D01*
X138560586Y-94283072D01*
X138536868Y-94315717D01*
X138458768Y-94423211D01*
X138380128Y-94577552D01*
X138326597Y-94742302D01*
X138313099Y-94827527D01*
X138299500Y-94913389D01*
X117250500Y-94913389D01*
X117250500Y-92373389D01*
X138299500Y-92373389D01*
X138299500Y-92546610D01*
X138320701Y-92680472D01*
X138326598Y-92717701D01*
X138380127Y-92882445D01*
X138458768Y-93036788D01*
X138560586Y-93176928D01*
X138683072Y-93299414D01*
X138823212Y-93401232D01*
X138977555Y-93479873D01*
X139142299Y-93533402D01*
X139313389Y-93560500D01*
X139313390Y-93560500D01*
X139486610Y-93560500D01*
X139486611Y-93560500D01*
X139657701Y-93533402D01*
X139822445Y-93479873D01*
X139976788Y-93401232D01*
X140116928Y-93299414D01*
X140239414Y-93176928D01*
X140341232Y-93036788D01*
X140357977Y-93003921D01*
X140405949Y-92953127D01*
X140473770Y-92936331D01*
X140539905Y-92958867D01*
X140556143Y-92972536D01*
X140688181Y-93104574D01*
X140721666Y-93165897D01*
X140724500Y-93192255D01*
X140724500Y-93909460D01*
X140707887Y-93971460D01*
X140658609Y-94056810D01*
X140658609Y-94056811D01*
X140658608Y-94056813D01*
X140658608Y-94056814D01*
X140624500Y-94184108D01*
X140624500Y-94315892D01*
X140634662Y-94353818D01*
X140658608Y-94443187D01*
X140676106Y-94473493D01*
X140724500Y-94557314D01*
X140817686Y-94650500D01*
X140931814Y-94716392D01*
X141059108Y-94750500D01*
X141059110Y-94750500D01*
X141199019Y-94750500D01*
X141199019Y-94753671D01*
X141253274Y-94762095D01*
X141305561Y-94808439D01*
X141324500Y-94874304D01*
X141324500Y-94916324D01*
X141304815Y-94983363D01*
X141288181Y-95004005D01*
X141274502Y-95017683D01*
X141274500Y-95017686D01*
X141208608Y-95131812D01*
X141196003Y-95178856D01*
X141174500Y-95259108D01*
X141174500Y-95390892D01*
X141182955Y-95422445D01*
X141208608Y-95518187D01*
X141209479Y-95519695D01*
X141274500Y-95632314D01*
X141367686Y-95725500D01*
X141481814Y-95791392D01*
X141609108Y-95825500D01*
X141609110Y-95825500D01*
X141740890Y-95825500D01*
X141740892Y-95825500D01*
X141868186Y-95791392D01*
X141982314Y-95725500D01*
X142075500Y-95632314D01*
X142141392Y-95518186D01*
X142175500Y-95390892D01*
X142175500Y-95259108D01*
X142141392Y-95131814D01*
X142075500Y-95017686D01*
X142061819Y-95004005D01*
X142028334Y-94942682D01*
X142025500Y-94916324D01*
X142025500Y-91181986D01*
X142045185Y-91114947D01*
X142050258Y-91107732D01*
X142050498Y-91107315D01*
X142050500Y-91107314D01*
X142116392Y-90993186D01*
X142150500Y-90865892D01*
X142150500Y-90734108D01*
X142116392Y-90606814D01*
X142050500Y-90492686D01*
X141957314Y-90399500D01*
X141878260Y-90353858D01*
X141843187Y-90333608D01*
X141779539Y-90316554D01*
X141715892Y-90299500D01*
X141584108Y-90299500D01*
X141456812Y-90333608D01*
X141342686Y-90399500D01*
X141342683Y-90399502D01*
X141249502Y-90492683D01*
X141249500Y-90492686D01*
X141183608Y-90606812D01*
X141149500Y-90734108D01*
X141149500Y-90865891D01*
X141183608Y-90993187D01*
X141199089Y-91020000D01*
X141249500Y-91107314D01*
X141249502Y-91107316D01*
X141288181Y-91145995D01*
X141321666Y-91207318D01*
X141324500Y-91233676D01*
X141324500Y-92308745D01*
X141304815Y-92375784D01*
X141252011Y-92421539D01*
X141182853Y-92431483D01*
X141119297Y-92402458D01*
X141112819Y-92396426D01*
X140855915Y-92139522D01*
X140855913Y-92139520D01*
X140810250Y-92113156D01*
X140764589Y-92086793D01*
X140713657Y-92073146D01*
X140662727Y-92059500D01*
X140662726Y-92059500D01*
X140507042Y-92059500D01*
X140440003Y-92039815D01*
X140396557Y-91991794D01*
X140341233Y-91883213D01*
X140295769Y-91820638D01*
X140239414Y-91743072D01*
X140116928Y-91620586D01*
X139976788Y-91518768D01*
X139822445Y-91440127D01*
X139657701Y-91386598D01*
X139657699Y-91386597D01*
X139657698Y-91386597D01*
X139526271Y-91365781D01*
X139486611Y-91359500D01*
X139313389Y-91359500D01*
X139273728Y-91365781D01*
X139142302Y-91386597D01*
X138977552Y-91440128D01*
X138823211Y-91518768D01*
X138793292Y-91540506D01*
X138683072Y-91620586D01*
X138683070Y-91620588D01*
X138683069Y-91620588D01*
X138560588Y-91743069D01*
X138560588Y-91743070D01*
X138560586Y-91743072D01*
X138534653Y-91778766D01*
X138458768Y-91883211D01*
X138380128Y-92037552D01*
X138326597Y-92202302D01*
X138299500Y-92373389D01*
X117250500Y-92373389D01*
X117250500Y-89045371D01*
X138300000Y-89045371D01*
X138300000Y-89795000D01*
X138915856Y-89795000D01*
X138900000Y-89854174D01*
X138900000Y-89985826D01*
X138915856Y-90045000D01*
X138300000Y-90045000D01*
X138300000Y-90794628D01*
X138314503Y-90867540D01*
X138314505Y-90867544D01*
X138369760Y-90950239D01*
X138452455Y-91005494D01*
X138452459Y-91005496D01*
X138525371Y-91019999D01*
X138525374Y-91020000D01*
X139275000Y-91020000D01*
X139275000Y-90404144D01*
X139334174Y-90420000D01*
X139465826Y-90420000D01*
X139525000Y-90404144D01*
X139525000Y-91020000D01*
X140274626Y-91020000D01*
X140274628Y-91019999D01*
X140347540Y-91005496D01*
X140347544Y-91005494D01*
X140430239Y-90950239D01*
X140485494Y-90867544D01*
X140485496Y-90867540D01*
X140499999Y-90794628D01*
X140500000Y-90794626D01*
X140500000Y-90045000D01*
X139884144Y-90045000D01*
X139900000Y-89985826D01*
X139900000Y-89854174D01*
X139884144Y-89795000D01*
X140500000Y-89795000D01*
X140500000Y-89045373D01*
X140499999Y-89045371D01*
X140485496Y-88972459D01*
X140485494Y-88972455D01*
X140430239Y-88889760D01*
X140347544Y-88834505D01*
X140347540Y-88834503D01*
X140274627Y-88820000D01*
X139525000Y-88820000D01*
X139525000Y-89435855D01*
X139465826Y-89420000D01*
X139334174Y-89420000D01*
X139275000Y-89435855D01*
X139275000Y-88820000D01*
X138525373Y-88820000D01*
X138452459Y-88834503D01*
X138452455Y-88834505D01*
X138369760Y-88889760D01*
X138314505Y-88972455D01*
X138314503Y-88972459D01*
X138300000Y-89045371D01*
X117250500Y-89045371D01*
X117250500Y-84084108D01*
X147999500Y-84084108D01*
X147999500Y-84215891D01*
X148033608Y-84343187D01*
X148066554Y-84400250D01*
X148099500Y-84457314D01*
X148192686Y-84550500D01*
X148306814Y-84616392D01*
X148434108Y-84650500D01*
X148434110Y-84650500D01*
X148565890Y-84650500D01*
X148565892Y-84650500D01*
X148693186Y-84616392D01*
X148807314Y-84550500D01*
X148900500Y-84457314D01*
X148966392Y-84343186D01*
X149000500Y-84215892D01*
X149000500Y-84196543D01*
X149020185Y-84129504D01*
X149036819Y-84108862D01*
X149061573Y-84084108D01*
X149180469Y-83965212D01*
X149226614Y-83885288D01*
X149250500Y-83796144D01*
X149250500Y-80262627D01*
X149270185Y-80195588D01*
X149312501Y-80155239D01*
X149338015Y-80140509D01*
X149440509Y-80038015D01*
X149461224Y-80002136D01*
X175249500Y-80002136D01*
X175249500Y-81997863D01*
X175249501Y-81997882D01*
X175255908Y-82057481D01*
X175306202Y-82192327D01*
X175306203Y-82192328D01*
X175306204Y-82192330D01*
X175392454Y-82307546D01*
X175507670Y-82393796D01*
X175507671Y-82393796D01*
X175507672Y-82393797D01*
X175642518Y-82444091D01*
X175642517Y-82444091D01*
X175649445Y-82444835D01*
X175702128Y-82450500D01*
X175702137Y-82450500D01*
X177697863Y-82450500D01*
X177697872Y-82450500D01*
X177757482Y-82444091D01*
X177892330Y-82393796D01*
X178007546Y-82307546D01*
X178093796Y-82192330D01*
X178144091Y-82057482D01*
X178150500Y-81997872D01*
X178150500Y-80002128D01*
X178144091Y-79942518D01*
X178093796Y-79807670D01*
X178007546Y-79692454D01*
X177892330Y-79606204D01*
X177892328Y-79606203D01*
X177892327Y-79606202D01*
X177757481Y-79555908D01*
X177757482Y-79555908D01*
X177697882Y-79549501D01*
X177697880Y-79549500D01*
X177697872Y-79549500D01*
X175702128Y-79549500D01*
X175702120Y-79549500D01*
X175702117Y-79549501D01*
X175642518Y-79555908D01*
X175507672Y-79606202D01*
X175507670Y-79606204D01*
X175392454Y-79692454D01*
X175306204Y-79807670D01*
X175306202Y-79807672D01*
X175255908Y-79942518D01*
X175249501Y-80002117D01*
X175249500Y-80002136D01*
X149461224Y-80002136D01*
X149486451Y-79958441D01*
X149498942Y-79936807D01*
X149498942Y-79936806D01*
X149512984Y-79912485D01*
X149550500Y-79772475D01*
X149550500Y-79627525D01*
X149512984Y-79487515D01*
X149440509Y-79361985D01*
X149338015Y-79259491D01*
X149338013Y-79259490D01*
X149338011Y-79259488D01*
X149212488Y-79187017D01*
X149212489Y-79187017D01*
X149201006Y-79183940D01*
X149072475Y-79149500D01*
X148927525Y-79149500D01*
X148798993Y-79183940D01*
X148787511Y-79187017D01*
X148661988Y-79259488D01*
X148661982Y-79259493D01*
X148559493Y-79361982D01*
X148559488Y-79361988D01*
X148487017Y-79487511D01*
X148487016Y-79487515D01*
X148449500Y-79627525D01*
X148449500Y-79772475D01*
X148487016Y-79912485D01*
X148532887Y-79991936D01*
X148549500Y-80053935D01*
X148549500Y-83525563D01*
X148529815Y-83592602D01*
X148477011Y-83638357D01*
X148441690Y-83648502D01*
X148434107Y-83649500D01*
X148306812Y-83683608D01*
X148192686Y-83749500D01*
X148192683Y-83749502D01*
X148099502Y-83842683D01*
X148099500Y-83842686D01*
X148033608Y-83956812D01*
X147999500Y-84084108D01*
X117250500Y-84084108D01*
X117250500Y-77385883D01*
X175250000Y-77385883D01*
X175250000Y-77614116D01*
X175285704Y-77839544D01*
X175356230Y-78056604D01*
X175459851Y-78259969D01*
X175587523Y-78435696D01*
X175587525Y-78435697D01*
X176196064Y-77827157D01*
X176219881Y-77868408D01*
X176331592Y-77980119D01*
X176372840Y-78003934D01*
X175764301Y-78612473D01*
X175940033Y-78740150D01*
X176143395Y-78843769D01*
X176360455Y-78914295D01*
X176585884Y-78950000D01*
X176814116Y-78950000D01*
X177039544Y-78914295D01*
X177256604Y-78843769D01*
X177459966Y-78740150D01*
X177635696Y-78612473D01*
X177635697Y-78612472D01*
X177027159Y-78003934D01*
X177068408Y-77980119D01*
X177180119Y-77868408D01*
X177203934Y-77827158D01*
X177812472Y-78435697D01*
X177812473Y-78435696D01*
X177940150Y-78259966D01*
X178043769Y-78056604D01*
X178114295Y-77839544D01*
X178150000Y-77614116D01*
X178150000Y-77385883D01*
X178114295Y-77160455D01*
X178043769Y-76943395D01*
X177940150Y-76740033D01*
X177812473Y-76564302D01*
X177812473Y-76564301D01*
X177203934Y-77172840D01*
X177180119Y-77131592D01*
X177068408Y-77019881D01*
X177027158Y-76996065D01*
X177635697Y-76387525D01*
X177635696Y-76387523D01*
X177459969Y-76259851D01*
X177256604Y-76156230D01*
X177039544Y-76085704D01*
X176814116Y-76050000D01*
X176585884Y-76050000D01*
X176360455Y-76085704D01*
X176143395Y-76156230D01*
X175940030Y-76259851D01*
X175764302Y-76387524D01*
X175764301Y-76387525D01*
X176372841Y-76996065D01*
X176331592Y-77019881D01*
X176219881Y-77131592D01*
X176196065Y-77172841D01*
X175587525Y-76564301D01*
X175587524Y-76564302D01*
X175459851Y-76740030D01*
X175356230Y-76943395D01*
X175285704Y-77160455D01*
X175250000Y-77385883D01*
X117250500Y-77385883D01*
X117250500Y-76004427D01*
X117250816Y-75995581D01*
X117265130Y-75795443D01*
X117265131Y-75795442D01*
X117265130Y-75795436D01*
X117267646Y-75777938D01*
X117309356Y-75586200D01*
X117314335Y-75569242D01*
X117382911Y-75385382D01*
X117390251Y-75369310D01*
X117484294Y-75197083D01*
X117493850Y-75182214D01*
X117611443Y-75025128D01*
X117623017Y-75011771D01*
X117761771Y-74873017D01*
X117775128Y-74861443D01*
X117932214Y-74743850D01*
X117947083Y-74734294D01*
X118119310Y-74640251D01*
X118135382Y-74632911D01*
X118319242Y-74564335D01*
X118336200Y-74559356D01*
X118527938Y-74517646D01*
X118545436Y-74515130D01*
X118745582Y-74500816D01*
X118754428Y-74500500D01*
X118815892Y-74500500D01*
X178684108Y-74500500D01*
X178745572Y-74500500D01*
X178754418Y-74500816D01*
G37*
%TD.AperFunction*%
%TD*%
M02*
